<ttFont>
<head>
    <!-- Most of this table will be recalculated by the compiler -->
    <tableVersion value="1.0"/>
    <fontRevision value="2.0"/>
    <checkSumAdjustment value="0xe5c6daf8"/>
    <magicNumber value="0x5f0f3cf5"/>
    <flags value="00000000 00001011"/>
    <unitsPerEm value="1000"/>
    <created value="Fri Apr 25 18:27:40 2014"/>
    <modified value="Fri Apr 25 18:27:40 2014"/>
    <xMin value="-112"/>
    <yMin value="-409"/>
    <xMax value="1936"/>
    <yMax value="1218"/>
    <macStyle value="00000000 00000001"/>
    <lowestRecPPEM value="8"/>
    <fontDirectionHint value="2"/>
    <indexToLocFormat value="0"/>
    <glyphDataFormat value="0"/>
  </head>
    <TTGlyph name=".notdef" xMin="33" yMin="0" xMax="298" yMax="666">
      <contour>
        <pt x="33" y="0" on="1"/>
        <pt x="33" y="666" on="1"/>
        <pt x="298" y="666" on="1"/>
        <pt x="298" y="0" on="1"/>
      </contour>
      <contour>
        <pt x="66" y="33" on="1"/>
        <pt x="265" y="33" on="1"/>
        <pt x="265" y="633" on="1"/>
        <pt x="66" y="633" on="1"/>
      </contour>
    </TTGlyph>
    <TTGlyph name="A" xMin="41" yMin="0" xMax="711" yMax="721">
      <contour>
        <pt x="262" y="234" on="1"/>
        <pt x="490" y="234" on="1"/>
        <pt x="378" y="608" on="1"/>
      </contour>
      <contour>
        <pt x="41" y="0" on="1"/>
        <pt x="278" y="721" on="1"/>
        <pt x="471" y="721" on="1"/>
        <pt x="711" y="0" on="1"/>
        <pt x="559" y="0" on="1"/>
        <pt x="518" y="137" on="1"/>
        <pt x="233" y="137" on="1"/>
        <pt x="191" y="0" on="1"/>
      </contour>
    </TTGlyph>
    <TTGlyph name="AE" xMin="41" yMin="0" xMax="835" yMax="721">
      <contour>
        <pt x="436" y="610" on="1"/>
        <pt x="370" y="610" on="1"/>
        <pt x="257" y="233" on="1"/>
        <pt x="436" y="233" on="1"/>
      </contour>
      <contour>
        <pt x="436" y="137" on="1"/>
        <pt x="230" y="137" on="1"/>
        <pt x="192" y="0" on="1"/>
        <pt x="41" y="0" on="1"/>
        <pt x="263" y="721" on="1"/>
        <pt x="830" y="721" on="1"/>
        <pt x="830" y="610" on="1"/>
        <pt x="573" y="610" on="1"/>
        <pt x="573" y="419" on="1"/>
        <pt x="796" y="419" on="1"/>
        <pt x="796" y="315" on="1"/>
        <pt x="573" y="315" on="1"/>
        <pt x="573" y="111" on="1"/>
        <pt x="835" y="111" on="1"/>
        <pt x="835" y="0" on="1"/>
        <pt x="436" y="0" on="1"/>
      </contour>
    </TTGlyph>
    <TTGlyph name="AEacute" xMin="41" yMin="0" xMax="835" yMax="969">
      <component glyphName="acute" x="454" y="196" flags="0x1004"/>
      <component glyphName="AE" x="0" y="0" flags="0x1004"/>
    </TTGlyph>
    <TTGlyph name="Aacute" xMin="41" yMin="0" xMax="711" yMax="969">
      <component glyphName="acute" x="300" y="196" flags="0x1004"/>
      <component glyphName="A" x="0" y="0" flags="0x1004"/>
    </TTGlyph>
    <TTGlyph name="Abreve" xMin="41" yMin="0" xMax="711" yMax="917">
      <component glyphName="breve" x="251" y="196" flags="0x1004"/>
      <component glyphName="A" x="0" y="0" flags="0x1004"/>
    </TTGlyph>
    <TTGlyph name="Acircumflex" xMin="41" yMin="0" xMax="711" yMax="935">
      <component glyphName="circumflex" x="251" y="196" flags="0x1004"/>
      <component glyphName="A" x="0" y="0" flags="0x1004"/>
    </TTGlyph>
    <TTGlyph name="Adieresis" xMin="41" yMin="0" xMax="711" yMax="917">
      <component glyphName="dieresis" x="140" y="196" flags="0x1004"/>
      <component glyphName="A" x="0" y="0" flags="0x1004"/>
    </TTGlyph>
    <TTGlyph name="Agrave" xMin="41" yMin="0" xMax="711" yMax="969">
      <component glyphName="grave" x="188" y="196" flags="0x1004"/>
      <component glyphName="A" x="0" y="0" flags="0x1004"/>
    </TTGlyph>
    <TTGlyph name="Amacron" xMin="41" yMin="0" xMax="711" yMax="884">
      <component glyphName="macron" x="256" y="196" flags="0x1004"/>
      <component glyphName="A" x="0" y="0" flags="0x1004"/>
    </TTGlyph>
    <TTGlyph name="Aogonek" xMin="41" yMin="-248" xMax="711" yMax="721">
      <component glyphName="ogonek" x="500" y="0" flags="0x1004"/>
      <component glyphName="A" x="0" y="0" flags="0x1004"/>
    </TTGlyph>
    <TTGlyph name="Aring" xMin="41" yMin="0" xMax="711" yMax="980">
      <component glyphName="ring" x="236" y="196" flags="0x1004"/>
      <component glyphName="A" x="0" y="0" flags="0x1004"/>
    </TTGlyph>
    <TTGlyph name="Aringacute" xMin="41" yMin="0" xMax="711" yMax="1218">
      <component glyphName="acute" x="293" y="445" flags="0x1004"/>
      <component glyphName="Aring" x="0" y="0" flags="0x1004"/>
    </TTGlyph>
    <TTGlyph name="Atilde" xMin="41" yMin="0" xMax="711" yMax="932">
      <component glyphName="tilde" x="193" y="196" flags="0x1004"/>
      <component glyphName="A" x="0" y="0" flags="0x1004"/>
    </TTGlyph>
    <TTGlyph name="B" xMin="104" yMin="0" xMax="667" yMax="721">
      <contour>
        <pt x="249" y="431" on="1"/>
        <pt x="398" y="431" on="1"/>
        <pt x="456" y="431" on="0"/>
        <pt x="488" y="475" on="0"/>
        <pt x="488" y="587" on="0"/>
        <pt x="445" y="622" on="0"/>
        <pt x="372" y="622" on="1"/>
        <pt x="249" y="622" on="1"/>
      </contour>
      <contour>
        <pt x="249" y="102" on="1"/>
        <pt x="389" y="102" on="1"/>
        <pt x="473" y="102" on="0"/>
        <pt x="522" y="147" on="0"/>
        <pt x="522" y="285" on="0"/>
        <pt x="478" y="343" on="0"/>
        <pt x="404" y="343" on="1"/>
        <pt x="249" y="343" on="1"/>
      </contour>
      <contour>
        <pt x="104" y="0" on="1"/>
        <pt x="104" y="721" on="1"/>
        <pt x="381" y="721" on="1"/>
        <pt x="527" y="721" on="0"/>
        <pt x="636" y="632" on="0"/>
        <pt x="636" y="531" on="1"/>
        <pt x="636" y="472" on="0"/>
        <pt x="597" y="406" on="0"/>
        <pt x="544" y="393" on="1"/>
        <pt x="614" y="383" on="0"/>
        <pt x="667" y="297" on="0"/>
        <pt x="667" y="219" on="1"/>
        <pt x="667" y="209" on="1"/>
        <pt x="667" y="101" on="0"/>
        <pt x="547" y="0" on="0"/>
        <pt x="416" y="0" on="1"/>
      </contour>
    </TTGlyph>
    <TTGlyph name="C" xMin="82" yMin="-13" xMax="669" yMax="733">
      <contour>
        <pt x="385" y="-13" on="1"/>
        <pt x="200" y="-13" on="0"/>
        <pt x="136" y="59" on="1"/>
        <pt x="105" y="95" on="0"/>
        <pt x="82" y="178" on="0"/>
        <pt x="82" y="236" on="1"/>
        <pt x="82" y="477" on="1"/>
        <pt x="82" y="537" on="0"/>
        <pt x="105" y="622" on="0"/>
        <pt x="136" y="659" on="1"/>
        <pt x="198" y="733" on="0"/>
        <pt x="385" y="733" on="1"/>
        <pt x="522" y="733" on="0"/>
        <pt x="592" y="686" on="1"/>
        <pt x="669" y="634" on="0"/>
        <pt x="669" y="480" on="1"/>
        <pt x="669" y="471" on="1"/>
        <pt x="527" y="455" on="1"/>
        <pt x="527" y="491" on="1"/>
        <pt x="527" y="566" on="0"/>
        <pt x="468" y="619" on="0"/>
        <pt x="301" y="619" on="0"/>
        <pt x="227" y="566" on="0"/>
        <pt x="227" y="494" on="1"/>
        <pt x="227" y="222" on="1"/>
        <pt x="227" y="151" on="0"/>
        <pt x="300" y="101" on="0"/>
        <pt x="469" y="101" on="0"/>
        <pt x="527" y="149" on="0"/>
        <pt x="527" y="225" on="1"/>
        <pt x="527" y="248" on="1"/>
        <pt x="669" y="248" on="1"/>
        <pt x="669" y="234" on="1"/>
        <pt x="669" y="174" on="0"/>
        <pt x="650" y="95" on="0"/>
        <pt x="622" y="58" on="1"/>
        <pt x="566" y="-13" on="0"/>
      </contour>
    </TTGlyph>
    <TTGlyph name="Cacute" xMin="82" yMin="-13" xMax="669" yMax="969">
      <component glyphName="acute" x="303" y="196" flags="0x1004"/>
      <component glyphName="C" x="0" y="0" flags="0x1004"/>
    </TTGlyph>
    <TTGlyph name="Ccaron" xMin="82" yMin="-13" xMax="669" yMax="935">
      <component glyphName="caron" x="254" y="196" flags="0x1004"/>
      <component glyphName="C" x="0" y="0" flags="0x1004"/>
    </TTGlyph>
    <TTGlyph name="Ccedilla" xMin="82" yMin="-236" xMax="669" yMax="733">
      <component glyphName="cedilla" x="279" y="0" flags="0x1004"/>
      <component glyphName="C" x="0" y="0" flags="0x1004"/>
    </TTGlyph>
    <TTGlyph name="Ccircumflex" xMin="82" yMin="-13" xMax="669" yMax="935">
      <component glyphName="circumflex" x="254" y="196" flags="0x1004"/>
      <component glyphName="C" x="0" y="0" flags="0x1004"/>
    </TTGlyph>
    <TTGlyph name="Cdotaccent" xMin="82" yMin="-13" xMax="669" yMax="931">
      <component glyphName="dotaccent" x="259" y="196" flags="0x1004"/>
      <component glyphName="C" x="0" y="0" flags="0x1004"/>
    </TTGlyph>
    <TTGlyph name="D" xMin="104" yMin="0" xMax="682" yMax="721">
      <contour>
        <pt x="104" y="0" on="1"/>
        <pt x="104" y="721" on="1"/>
        <pt x="416" y="721" on="1"/>
        <pt x="562" y="721" on="0"/>
        <pt x="682" y="586" on="0"/>
        <pt x="682" y="469" on="1"/>
        <pt x="682" y="469" on="0"/>
        <pt x="682" y="248" on="1"/>
        <pt x="682" y="131" on="0"/>
        <pt x="561" y="0" on="0"/>
        <pt x="417" y="0" on="1"/>
      </contour>
      <contour>
        <pt x="249" y="113" on="1"/>
        <pt x="404" y="113" on="1"/>
        <pt x="479" y="113" on="0"/>
        <pt x="537" y="167" on="0"/>
        <pt x="537" y="229" on="1"/>
        <pt x="537" y="488" on="1"/>
        <pt x="537" y="549" on="0"/>
        <pt x="477" y="608" on="0"/>
        <pt x="404" y="608" on="1"/>
        <pt x="249" y="608" on="1"/>
      </contour>
    </TTGlyph>
    <TTGlyph name="Dcaron" xMin="104" yMin="0" xMax="682" yMax="935">
      <component glyphName="caron" x="250" y="196" flags="0x1004"/>
      <component glyphName="D" x="0" y="0" flags="0x1004"/>
    </TTGlyph>
    <TTGlyph name="Dcroat" xMin="15" yMin="0" xMax="682" yMax="721">
      <contour>
        <pt x="249" y="417" on="1"/>
        <pt x="359" y="417" on="1"/>
        <pt x="359" y="345" on="1"/>
        <pt x="249" y="345" on="1"/>
        <pt x="249" y="113" on="1"/>
        <pt x="404" y="113" on="1"/>
        <pt x="479" y="113" on="0"/>
        <pt x="537" y="167" on="0"/>
        <pt x="537" y="229" on="1"/>
        <pt x="537" y="488" on="1"/>
        <pt x="537" y="549" on="0"/>
        <pt x="477" y="608" on="0"/>
        <pt x="404" y="608" on="1"/>
        <pt x="249" y="608" on="1"/>
      </contour>
      <contour>
        <pt x="104" y="0" on="1"/>
        <pt x="104" y="345" on="1"/>
        <pt x="15" y="345" on="1"/>
        <pt x="15" y="417" on="1"/>
        <pt x="104" y="417" on="1"/>
        <pt x="104" y="721" on="1"/>
        <pt x="416" y="721" on="1"/>
        <pt x="562" y="721" on="0"/>
        <pt x="682" y="586" on="0"/>
        <pt x="682" y="469" on="1"/>
        <pt x="682" y="248" on="1"/>
        <pt x="682" y="131" on="0"/>
        <pt x="561" y="0" on="0"/>
        <pt x="417" y="0" on="1"/>
      </contour>
    </TTGlyph>
    <TTGlyph name="E" xMin="104" yMin="0" xMax="581" yMax="721">
      <contour>
        <pt x="104" y="0" on="1"/>
        <pt x="104" y="721" on="1"/>
        <pt x="576" y="721" on="1"/>
        <pt x="576" y="611" on="1"/>
        <pt x="248" y="611" on="1"/>
        <pt x="248" y="420" on="1"/>
        <pt x="539" y="420" on="1"/>
        <pt x="539" y="315" on="1"/>
        <pt x="248" y="315" on="1"/>
        <pt x="248" y="109" on="1"/>
        <pt x="581" y="109" on="1"/>
        <pt x="581" y="0" on="1"/>
      </contour>
    </TTGlyph>
    <TTGlyph name="Eacute" xMin="104" yMin="0" xMax="581" yMax="969">
      <component glyphName="acute" x="281" y="196" flags="0x1004"/>
      <component glyphName="E" x="0" y="0" flags="0x1004"/>
    </TTGlyph>
    <TTGlyph name="Ebreve" xMin="104" yMin="0" xMax="581" yMax="917">
      <component glyphName="breve" x="232" y="196" flags="0x1004"/>
      <component glyphName="E" x="0" y="0" flags="0x1004"/>
    </TTGlyph>
    <TTGlyph name="Ecaron" xMin="104" yMin="0" xMax="581" yMax="935">
      <component glyphName="caron" x="232" y="196" flags="0x1004"/>
      <component glyphName="E" x="0" y="0" flags="0x1004"/>
    </TTGlyph>
    <TTGlyph name="Ecircumflex" xMin="104" yMin="0" xMax="581" yMax="935">
      <component glyphName="circumflex" x="232" y="196" flags="0x1004"/>
      <component glyphName="E" x="0" y="0" flags="0x1004"/>
    </TTGlyph>
    <TTGlyph name="Edieresis" xMin="104" yMin="0" xMax="581" yMax="917">
      <component glyphName="dieresis" x="121" y="196" flags="0x1004"/>
      <component glyphName="E" x="0" y="0" flags="0x1004"/>
    </TTGlyph>
    <TTGlyph name="Edotaccent" xMin="104" yMin="0" xMax="581" yMax="931">
      <component glyphName="dotaccent" x="237" y="196" flags="0x1004"/>
      <component glyphName="E" x="0" y="0" flags="0x1004"/>
    </TTGlyph>
    <TTGlyph name="Egrave" xMin="104" yMin="0" xMax="581" yMax="969">
      <component glyphName="grave" x="169" y="196" flags="0x1004"/>
      <component glyphName="E" x="0" y="0" flags="0x1004"/>
    </TTGlyph>
    <TTGlyph name="Emacron" xMin="104" yMin="0" xMax="581" yMax="884">
      <component glyphName="macron" x="237" y="196" flags="0x1004"/>
      <component glyphName="E" x="0" y="0" flags="0x1004"/>
    </TTGlyph>
    <TTGlyph name="Eng" xMin="93" yMin="-187" xMax="708" yMax="721">
      <contour>
        <pt x="708" y="79" on="1"/>
        <pt x="708" y="6" on="0"/>
        <pt x="685" y="-89" on="0"/>
        <pt x="625" y="-157" on="0"/>
        <pt x="521" y="-187" on="0"/>
        <pt x="440" y="-187" on="1"/>
        <pt x="426" y="-94" on="1"/>
        <pt x="477" y="-90" on="0"/>
        <pt x="521" y="-81" on="0"/>
        <pt x="563" y="-50" on="0"/>
        <pt x="575" y="6" on="0"/>
        <pt x="575" y="57" on="1"/>
        <pt x="575" y="75" on="1"/>
        <pt x="224" y="486" on="1"/>
        <pt x="224" y="0" on="1"/>
        <pt x="93" y="0" on="1"/>
        <pt x="93" y="721" on="1"/>
        <pt x="203" y="721" on="1"/>
        <pt x="578" y="273" on="1"/>
        <pt x="578" y="721" on="1"/>
        <pt x="708" y="721" on="1"/>
      </contour>
    </TTGlyph>
    <TTGlyph name="Eogonek" xMin="104" yMin="-248" xMax="581" yMax="721">
      <component glyphName="ogonek" x="307" y="0" flags="0x1004"/>
      <component glyphName="E" x="0" y="0" flags="0x1004"/>
    </TTGlyph>
    <TTGlyph name="Eth" xMin="15" yMin="0" xMax="682" yMax="721">
      <component glyphName="hyphen" x="-49" y="104" flags="0x1004"/>
      <component glyphName="D" x="0" y="0" flags="0x1004"/>
    </TTGlyph>
    <TTGlyph name="Euro" xMin="22" yMin="-13" xMax="669" yMax="733">
      <contour>
        <pt x="385" y="262" on="1"/>
        <pt x="22" y="262" on="1"/>
        <pt x="22" y="327" on="1"/>
        <pt x="385" y="327" on="1"/>
      </contour>
      <contour>
        <pt x="385" y="409" on="1"/>
        <pt x="22" y="409" on="1"/>
        <pt x="22" y="475" on="1"/>
        <pt x="385" y="475" on="1"/>
      </contour>
      <contour>
        <pt x="385" y="-13" on="1"/>
        <pt x="476" y="-13" on="0"/>
        <pt x="593" y="22" on="0"/>
        <pt x="650" y="95" on="0"/>
        <pt x="669" y="174" on="0"/>
        <pt x="669" y="234" on="1"/>
        <pt x="669" y="248" on="1"/>
        <pt x="527" y="248" on="1"/>
        <pt x="527" y="225" on="1"/>
        <pt x="527" y="149" on="0"/>
        <pt x="469" y="101" on="0"/>
        <pt x="385" y="101" on="1"/>
        <pt x="300" y="101" on="0"/>
        <pt x="227" y="151" on="0"/>
        <pt x="227" y="222" on="1"/>
        <pt x="227" y="494" on="1"/>
        <pt x="227" y="566" on="0"/>
        <pt x="301" y="619" on="0"/>
        <pt x="385" y="619" on="1"/>
        <pt x="468" y="619" on="0"/>
        <pt x="527" y="566" on="0"/>
        <pt x="527" y="491" on="1"/>
        <pt x="527" y="455" on="1"/>
        <pt x="669" y="471" on="1"/>
        <pt x="669" y="480" on="1"/>
        <pt x="669" y="528" on="0"/>
        <pt x="657" y="598" on="0"/>
        <pt x="622" y="666" on="0"/>
        <pt x="561" y="707" on="0"/>
        <pt x="457" y="733" on="0"/>
        <pt x="385" y="733" on="1"/>
        <pt x="291" y="733" on="0"/>
        <pt x="167" y="696" on="0"/>
        <pt x="105" y="622" on="0"/>
        <pt x="82" y="537" on="0"/>
        <pt x="82" y="477" on="1"/>
        <pt x="82" y="236" on="1"/>
        <pt x="82" y="178" on="0"/>
        <pt x="105" y="95" on="0"/>
        <pt x="168" y="23" on="0"/>
        <pt x="292" y="-13" on="0"/>
      </contour>
    </TTGlyph>
    <TTGlyph name="F" xMin="104" yMin="0" xMax="540" yMax="721">
      <contour>
        <pt x="104" y="0" on="1"/>
        <pt x="104" y="721" on="1"/>
        <pt x="540" y="721" on="1"/>
        <pt x="540" y="610" on="1"/>
        <pt x="249" y="610" on="1"/>
        <pt x="249" y="414" on="1"/>
        <pt x="520" y="414" on="1"/>
        <pt x="520" y="310" on="1"/>
        <pt x="249" y="310" on="1"/>
        <pt x="249" y="0" on="1"/>
      </contour>
    </TTGlyph>
    <TTGlyph name="G" xMin="82" yMin="-13" xMax="697" yMax="733">
      <contour>
        <pt x="401" y="-13" on="1"/>
        <pt x="215" y="-13" on="0"/>
        <pt x="144" y="59" on="1"/>
        <pt x="110" y="94" on="0"/>
        <pt x="82" y="179" on="0"/>
        <pt x="82" y="236" on="1"/>
        <pt x="82" y="477" on="1"/>
        <pt x="82" y="536" on="0"/>
        <pt x="110" y="623" on="0"/>
        <pt x="144" y="659" on="1"/>
        <pt x="214" y="733" on="0"/>
        <pt x="401" y="733" on="1"/>
        <pt x="581" y="733" on="0"/>
        <pt x="642" y="664" on="1"/>
        <pt x="673" y="629" on="0"/>
        <pt x="696" y="549" on="0"/>
        <pt x="696" y="492" on="1"/>
        <pt x="696" y="480" on="1"/>
        <pt x="554" y="470" on="1"/>
        <pt x="554" y="499" on="1"/>
        <pt x="554" y="569" on="0"/>
        <pt x="485" y="619" on="0"/>
        <pt x="315" y="619" on="0"/>
        <pt x="228" y="564" on="0"/>
        <pt x="228" y="494" on="1"/>
        <pt x="228" y="222" on="1"/>
        <pt x="228" y="152" on="0"/>
        <pt x="313" y="101" on="0"/>
        <pt x="489" y="101" on="0"/>
        <pt x="566" y="151" on="0"/>
        <pt x="566" y="222" on="1"/>
        <pt x="566" y="274" on="1"/>
        <pt x="420" y="274" on="1"/>
        <pt x="420" y="370" on="1"/>
        <pt x="697" y="370" on="1"/>
        <pt x="697" y="0" on="1"/>
        <pt x="620" y="0" on="1"/>
        <pt x="597" y="83" on="1"/>
        <pt x="589" y="57" on="0"/>
        <pt x="556" y="27" on="1"/>
        <pt x="512" y="-13" on="0"/>
      </contour>
    </TTGlyph>
    <TTGlyph name="Gbreve" xMin="82" yMin="-13" xMax="697" yMax="917">
      <component glyphName="breve" x="271" y="196" flags="0x1004"/>
      <component glyphName="G" x="0" y="0" flags="0x1004"/>
    </TTGlyph>
    <TTGlyph name="Gcaron" xMin="82" yMin="-13" xMax="697" yMax="935">
      <component glyphName="caron" x="271" y="196" flags="0x1004"/>
      <component glyphName="G" x="0" y="0" flags="0x1004"/>
    </TTGlyph>
    <TTGlyph name="Gcircumflex" xMin="82" yMin="-13" xMax="697" yMax="935">
      <component glyphName="circumflex" x="271" y="196" flags="0x1004"/>
      <component glyphName="G" x="0" y="0" flags="0x1004"/>
    </TTGlyph>
    <TTGlyph name="Gdotaccent" xMin="82" yMin="-13" xMax="697" yMax="931">
      <component glyphName="dotaccent" x="276" y="196" flags="0x1004"/>
      <component glyphName="G" x="0" y="0" flags="0x1004"/>
    </TTGlyph>
    <TTGlyph name="H" xMin="104" yMin="0" xMax="711" yMax="721">
      <contour>
        <pt x="104" y="0" on="1"/>
        <pt x="104" y="721" on="1"/>
        <pt x="249" y="721" on="1"/>
        <pt x="249" y="414" on="1"/>
        <pt x="565" y="414" on="1"/>
        <pt x="565" y="721" on="1"/>
        <pt x="711" y="721" on="1"/>
        <pt x="711" y="0" on="1"/>
        <pt x="565" y="0" on="1"/>
        <pt x="565" y="300" on="1"/>
        <pt x="249" y="300" on="1"/>
        <pt x="249" y="0" on="1"/>
      </contour>
    </TTGlyph>
    <TTGlyph name="Hbar" xMin="41" yMin="0" xMax="752" yMax="721">
      <contour>
        <pt x="249" y="553" on="1"/>
        <pt x="249" y="414" on="1"/>
        <pt x="565" y="414" on="1"/>
        <pt x="565" y="553" on="1"/>
      </contour>
      <contour>
        <pt x="104" y="0" on="1"/>
        <pt x="104" y="553" on="1"/>
        <pt x="41" y="553" on="1"/>
        <pt x="41" y="604" on="1"/>
        <pt x="104" y="604" on="1"/>
        <pt x="104" y="721" on="1"/>
        <pt x="249" y="721" on="1"/>
        <pt x="249" y="604" on="1"/>
        <pt x="565" y="604" on="1"/>
        <pt x="565" y="721" on="1"/>
        <pt x="711" y="721" on="1"/>
        <pt x="711" y="604" on="1"/>
        <pt x="752" y="604" on="1"/>
        <pt x="752" y="553" on="1"/>
        <pt x="711" y="553" on="1"/>
        <pt x="711" y="0" on="1"/>
        <pt x="565" y="0" on="1"/>
        <pt x="565" y="300" on="1"/>
        <pt x="249" y="300" on="1"/>
        <pt x="249" y="0" on="1"/>
      </contour>
    </TTGlyph>
    <TTGlyph name="Hcircumflex" xMin="104" yMin="0" xMax="711" yMax="935">
      <component glyphName="circumflex" x="283" y="196" flags="0x1004"/>
      <component glyphName="H" x="0" y="0" flags="0x1004"/>
    </TTGlyph>
    <TTGlyph name="I" xMin="77" yMin="0" xMax="483" yMax="721">
      <contour>
        <pt x="77" y="0" on="1"/>
        <pt x="77" y="108" on="1"/>
        <pt x="208" y="108" on="1"/>
        <pt x="208" y="613" on="1"/>
        <pt x="77" y="613" on="1"/>
        <pt x="77" y="721" on="1"/>
        <pt x="483" y="721" on="1"/>
        <pt x="483" y="613" on="1"/>
        <pt x="353" y="613" on="1"/>
        <pt x="353" y="108" on="1"/>
        <pt x="483" y="108" on="1"/>
        <pt x="483" y="0" on="1"/>
      </contour>
    </TTGlyph>
    <TTGlyph name="IJ" xMin="77" yMin="-12" xMax="1066" yMax="721">
      <component glyphName="J" x="560" y="0" flags="0x1004"/>
      <component glyphName="I" x="0" y="0" flags="0x1004"/>
    </TTGlyph>
    <TTGlyph name="Iacute" xMin="77" yMin="0" xMax="483" yMax="969">
      <component glyphName="acute" x="209" y="196" flags="0x1004"/>
      <component glyphName="I" x="0" y="0" flags="0x1004"/>
    </TTGlyph>
    <TTGlyph name="Ibreve" xMin="77" yMin="0" xMax="483" yMax="917">
      <component glyphName="breve" x="161" y="196" flags="0x1004"/>
      <component glyphName="I" x="0" y="0" flags="0x1004"/>
    </TTGlyph>
    <TTGlyph name="Icircumflex" xMin="77" yMin="0" xMax="483" yMax="935">
      <component glyphName="circumflex" x="161" y="196" flags="0x1004"/>
      <component glyphName="I" x="0" y="0" flags="0x1004"/>
    </TTGlyph>
    <TTGlyph name="Idieresis" xMin="77" yMin="0" xMax="483" yMax="917">
      <component glyphName="dieresis" x="49" y="196" flags="0x1004"/>
      <component glyphName="I" x="0" y="0" flags="0x1004"/>
    </TTGlyph>
    <TTGlyph name="Idotaccent" xMin="77" yMin="0" xMax="483" yMax="931">
      <component glyphName="dotaccent" x="166" y="196" flags="0x1004"/>
      <component glyphName="I" x="0" y="0" flags="0x1004"/>
    </TTGlyph>
    <TTGlyph name="Igrave" xMin="77" yMin="0" xMax="483" yMax="969">
      <component glyphName="grave" x="97" y="196" flags="0x1004"/>
      <component glyphName="I" x="0" y="0" flags="0x1004"/>
    </TTGlyph>
    <TTGlyph name="Imacron" xMin="77" yMin="0" xMax="483" yMax="884">
      <component glyphName="macron" x="166" y="196" flags="0x1004"/>
      <component glyphName="I" x="0" y="0" flags="0x1004"/>
    </TTGlyph>
    <TTGlyph name="Iogonek" xMin="77" yMin="-248" xMax="483" yMax="721">
      <component glyphName="ogonek" x="156" y="0" flags="0x1004"/>
      <component glyphName="I" x="0" y="0" flags="0x1004"/>
    </TTGlyph>
    <TTGlyph name="Itilde" xMin="77" yMin="0" xMax="483" yMax="932">
      <component glyphName="tilde" x="103" y="196" flags="0x1004"/>
      <component glyphName="I" x="0" y="0" flags="0x1004"/>
    </TTGlyph>
    <TTGlyph name="J" xMin="34" yMin="-12" xMax="506" yMax="721">
      <contour>
        <pt x="246" y="-12" on="1"/>
        <pt x="128" y="-12" on="0"/>
        <pt x="34" y="33" on="1"/>
        <pt x="68" y="140" on="1"/>
        <pt x="149" y="102" on="0"/>
        <pt x="301" y="102" on="0"/>
        <pt x="361" y="164" on="0"/>
        <pt x="361" y="215" on="1"/>
        <pt x="361" y="610" on="1"/>
        <pt x="113" y="610" on="1"/>
        <pt x="113" y="721" on="1"/>
        <pt x="506" y="721" on="1"/>
        <pt x="506" y="206" on="1"/>
        <pt x="506" y="102" on="0"/>
        <pt x="368" y="-12" on="0"/>
      </contour>
    </TTGlyph>
    <TTGlyph name="Jcircumflex" xMin="34" yMin="-12" xMax="506" yMax="935">
      <component glyphName="circumflex" x="181" y="196" flags="0x1004"/>
      <component glyphName="J" x="0" y="0" flags="0x1004"/>
    </TTGlyph>
    <TTGlyph name="K" xMin="104" yMin="0" xMax="707" yMax="721">
      <contour>
        <pt x="104" y="0" on="1"/>
        <pt x="104" y="721" on="1"/>
        <pt x="249" y="721" on="1"/>
        <pt x="249" y="371" on="1"/>
        <pt x="529" y="721" on="1"/>
        <pt x="689" y="721" on="1"/>
        <pt x="437" y="393" on="1"/>
        <pt x="707" y="0" on="1"/>
        <pt x="543" y="0" on="1"/>
        <pt x="316" y="332" on="1"/>
        <pt x="249" y="264" on="1"/>
        <pt x="249" y="0" on="1"/>
      </contour>
    </TTGlyph>
    <TTGlyph name="L" xMin="104" yMin="0" xMax="550" yMax="721">
      <contour>
        <pt x="104" y="0" on="1"/>
        <pt x="104" y="721" on="1"/>
        <pt x="249" y="721" on="1"/>
        <pt x="249" y="113" on="1"/>
        <pt x="550" y="113" on="1"/>
        <pt x="550" y="0" on="1"/>
      </contour>
    </TTGlyph>
    <TTGlyph name="Lacute" xMin="104" yMin="0" xMax="550" yMax="969">
      <component glyphName="acute" x="135" y="196" flags="0x1004"/>
      <component glyphName="L" x="0" y="0" flags="0x1004"/>
    </TTGlyph>
    <TTGlyph name="Lcaron" xMin="104" yMin="0" xMax="550" yMax="907">
      <component glyphName="caron.alt" x="62" y="0" flags="0x1004"/>
      <component glyphName="L" x="0" y="0" flags="0x1004"/>
    </TTGlyph>
    <TTGlyph name="Ldot" xMin="104" yMin="0" xMax="550" yMax="721">
      <component glyphName="periodcentered" x="207" y="-44" flags="0x1004"/>
      <component glyphName="L" x="0" y="0" flags="0x1004"/>
    </TTGlyph>
    <TTGlyph name="Lslash" xMin="12" yMin="0" xMax="550" yMax="721">
      <contour>
        <pt x="12" y="273" on="1"/>
        <pt x="12" y="382" on="1"/>
        <pt x="387" y="534" on="1"/>
        <pt x="387" y="425" on="1"/>
      </contour>
      <contour>
        <pt x="104" y="0" on="1"/>
        <pt x="550" y="0" on="1"/>
        <pt x="550" y="113" on="1"/>
        <pt x="249" y="113" on="1"/>
        <pt x="249" y="721" on="1"/>
        <pt x="104" y="721" on="1"/>
      </contour>
    </TTGlyph>
    <TTGlyph name="M" xMin="104" yMin="0" xMax="833" yMax="721">
      <contour>
        <pt x="104" y="0" on="1"/>
        <pt x="104" y="721" on="1"/>
        <pt x="263" y="721" on="1"/>
        <pt x="468" y="372" on="1"/>
        <pt x="670" y="721" on="1"/>
        <pt x="833" y="721" on="1"/>
        <pt x="833" y="0" on="1"/>
        <pt x="697" y="0" on="1"/>
        <pt x="697" y="533" on="1"/>
        <pt x="517" y="209" on="1"/>
        <pt x="420" y="209" on="1"/>
        <pt x="239" y="531" on="1"/>
        <pt x="239" y="0" on="1"/>
      </contour>
    </TTGlyph>
    <TTGlyph name="N" xMin="104" yMin="0" xMax="716" yMax="721">
      <contour>
        <pt x="104" y="0" on="1"/>
        <pt x="104" y="721" on="1"/>
        <pt x="212" y="721" on="1"/>
        <pt x="587" y="227" on="1"/>
        <pt x="587" y="721" on="1"/>
        <pt x="716" y="721" on="1"/>
        <pt x="716" y="0" on="1"/>
        <pt x="607" y="0" on="1"/>
        <pt x="234" y="486" on="1"/>
        <pt x="234" y="0" on="1"/>
      </contour>
    </TTGlyph>
    <TTGlyph name="Nacute" xMin="104" yMin="0" xMax="716" yMax="969">
      <component glyphName="acute" x="340" y="196" flags="0x1004"/>
      <component glyphName="N" x="0" y="0" flags="0x1004"/>
    </TTGlyph>
    <TTGlyph name="Ncaron" xMin="104" yMin="0" xMax="716" yMax="935">
      <component glyphName="caron" x="292" y="196" flags="0x1004"/>
      <component glyphName="N" x="0" y="0" flags="0x1004"/>
    </TTGlyph>
    <TTGlyph name="Ntilde" xMin="104" yMin="0" xMax="716" yMax="932">
      <component glyphName="tilde" x="233" y="196" flags="0x1004"/>
      <component glyphName="N" x="0" y="0" flags="0x1004"/>
    </TTGlyph>
    <TTGlyph name="O" xMin="82" yMin="-13" xMax="710" yMax="733">
      <contour>
        <pt x="401" y="-13" on="1"/>
        <pt x="214" y="-13" on="0"/>
        <pt x="144" y="63" on="1"/>
        <pt x="110" y="100" on="0"/>
        <pt x="82" y="187" on="0"/>
        <pt x="82" y="245" on="1"/>
        <pt x="82" y="470" on="1"/>
        <pt x="82" y="529" on="0"/>
        <pt x="110" y="618" on="0"/>
        <pt x="144" y="656" on="1"/>
        <pt x="213" y="733" on="0"/>
        <pt x="401" y="733" on="1"/>
        <pt x="582" y="733" on="0"/>
        <pt x="650" y="652" on="1"/>
        <pt x="710" y="579" on="0"/>
        <pt x="710" y="463" on="1"/>
        <pt x="710" y="252" on="1"/>
        <pt x="710" y="137" on="0"/>
        <pt x="649" y="67" on="1"/>
        <pt x="580" y="-13" on="0"/>
      </contour>
      <contour>
        <pt x="401" y="101" on="1"/>
        <pt x="486" y="101" on="0"/>
        <pt x="564" y="157" on="0"/>
        <pt x="564" y="229" on="1"/>
        <pt x="564" y="490" on="1"/>
        <pt x="564" y="561" on="0"/>
        <pt x="485" y="619" on="0"/>
        <pt x="316" y="619" on="0"/>
        <pt x="228" y="561" on="0"/>
        <pt x="228" y="490" on="1"/>
        <pt x="228" y="229" on="1"/>
        <pt x="228" y="158" on="0"/>
        <pt x="315" y="101" on="0"/>
      </contour>
    </TTGlyph>
    <TTGlyph name="OE" xMin="78" yMin="0" xMax="736" yMax="721">
      <contour>
        <pt x="349" y="93" on="1"/>
        <pt x="349" y="93" on="0"/>
        <pt x="433" y="93" on="1"/>
        <pt x="433" y="625" on="1"/>
        <pt x="348" y="625" on="1"/>
        <pt x="210" y="625" on="0"/>
        <pt x="210" y="499" on="1"/>
        <pt x="210" y="217" on="1"/>
        <pt x="210" y="93" on="0"/>
      </contour>
      <contour>
        <pt x="350" y="0" on="1"/>
        <pt x="196" y="0" on="0"/>
        <pt x="78" y="127" on="0"/>
        <pt x="78" y="247" on="1"/>
        <pt x="78" y="468" on="1"/>
        <pt x="78" y="580" on="0"/>
        <pt x="131" y="646" on="1"/>
        <pt x="190" y="721" on="0"/>
        <pt x="350" y="721" on="1"/>
        <pt x="735" y="721" on="1"/>
        <pt x="735" y="628" on="1"/>
        <pt x="564" y="628" on="1"/>
        <pt x="564" y="419" on="1"/>
        <pt x="694" y="419" on="1"/>
        <pt x="694" y="325" on="1"/>
        <pt x="564" y="325" on="1"/>
        <pt x="564" y="93" on="1"/>
        <pt x="736" y="93" on="1"/>
        <pt x="736" y="0" on="1"/>
      </contour>
    </TTGlyph>
    <TTGlyph name="Oacute" xMin="82" yMin="-13" xMax="710" yMax="969">
      <component glyphName="acute" x="320" y="196" flags="0x1004"/>
      <component glyphName="O" x="0" y="0" flags="0x1004"/>
    </TTGlyph>
    <TTGlyph name="Obreve" xMin="82" yMin="-13" xMax="710" yMax="917">
      <component glyphName="breve" x="271" y="196" flags="0x1004"/>
      <component glyphName="O" x="0" y="0" flags="0x1004"/>
    </TTGlyph>
    <TTGlyph name="Ocircumflex" xMin="82" yMin="-13" xMax="710" yMax="935">
      <component glyphName="circumflex" x="271" y="196" flags="0x1004"/>
      <component glyphName="O" x="0" y="0" flags="0x1004"/>
    </TTGlyph>
    <TTGlyph name="Odieresis" xMin="82" yMin="-13" xMax="710" yMax="917">
      <component glyphName="dieresis" x="160" y="196" flags="0x1004"/>
      <component glyphName="O" x="0" y="0" flags="0x1004"/>
    </TTGlyph>
    <TTGlyph name="Ograve" xMin="82" yMin="-13" xMax="710" yMax="969">
      <component glyphName="grave" x="208" y="196" flags="0x1004"/>
      <component glyphName="O" x="0" y="0" flags="0x1004"/>
    </TTGlyph>
    <TTGlyph name="Ohungarumlaut" xMin="82" yMin="-13" xMax="710" yMax="939">
      <component glyphName="hungarumlaut" x="223" y="196" flags="0x1004"/>
      <component glyphName="O" x="0" y="0" flags="0x1004"/>
    </TTGlyph>
    <TTGlyph name="Omacron" xMin="82" yMin="-13" xMax="710" yMax="884">
      <component glyphName="macron" x="276" y="196" flags="0x1004"/>
      <component glyphName="O" x="0" y="0" flags="0x1004"/>
    </TTGlyph>
    <TTGlyph name="Oslash" xMin="82" yMin="-106" xMax="710" yMax="829">
      <contour>
        <pt x="228" y="229" on="1"/>
        <pt x="228" y="150" on="0"/>
        <pt x="286" y="121" on="1"/>
        <pt x="474" y="612" on="1"/>
        <pt x="445" y="619" on="0"/>
        <pt x="401" y="619" on="1"/>
        <pt x="316" y="619" on="0"/>
        <pt x="228" y="561" on="0"/>
        <pt x="228" y="490" on="1"/>
      </contour>
      <contour>
        <pt x="564" y="490" on="1"/>
        <pt x="564" y="567" on="0"/>
        <pt x="514" y="597" on="1"/>
        <pt x="327" y="107" on="1"/>
        <pt x="360" y="101" on="0"/>
        <pt x="401" y="101" on="1"/>
        <pt x="486" y="101" on="0"/>
        <pt x="564" y="157" on="0"/>
        <pt x="564" y="229" on="1"/>
      </contour>
      <contour>
        <pt x="401" y="-13" on="1"/>
        <pt x="340" y="-13" on="0"/>
        <pt x="285" y="-3" on="1"/>
        <pt x="246" y="-106" on="1"/>
        <pt x="204" y="-95" on="1"/>
        <pt x="243" y="7" on="1"/>
        <pt x="154" y="34" on="0"/>
        <pt x="82" y="156" on="0"/>
        <pt x="82" y="245" on="1"/>
        <pt x="82" y="470" on="1"/>
        <pt x="82" y="529" on="0"/>
        <pt x="110" y="618" on="0"/>
        <pt x="177" y="693" on="0"/>
        <pt x="307" y="733" on="0"/>
        <pt x="464" y="733" on="0"/>
        <pt x="516" y="722" on="1"/>
        <pt x="557" y="829" on="1"/>
        <pt x="599" y="818" on="1"/>
        <pt x="558" y="710" on="1"/>
        <pt x="710" y="656" on="0"/>
        <pt x="710" y="463" on="1"/>
        <pt x="710" y="252" on="1"/>
        <pt x="710" y="137" on="0"/>
        <pt x="649" y="67" on="1"/>
        <pt x="580" y="-13" on="0"/>
      </contour>
    </TTGlyph>
    <TTGlyph name="Oslashacute" xMin="82" yMin="-106" xMax="710" yMax="969">
      <component glyphName="acute" x="320" y="196" flags="0x1004"/>
      <component glyphName="Oslash" x="0" y="0" flags="0x1004"/>
    </TTGlyph>
    <TTGlyph name="Otilde" xMin="82" yMin="-13" xMax="710" yMax="932">
      <component glyphName="tilde" x="213" y="196" flags="0x1004"/>
      <component glyphName="O" x="0" y="0" flags="0x1004"/>
    </TTGlyph>
    <TTGlyph name="P" xMin="104" yMin="0" xMax="621" yMax="721">
      <contour>
        <pt x="249" y="354" on="1"/>
        <pt x="395" y="354" on="1"/>
        <pt x="447" y="354" on="0"/>
        <pt x="485" y="415" on="0"/>
        <pt x="485" y="483" on="1"/>
        <pt x="485" y="618" on="0"/>
        <pt x="400" y="618" on="1"/>
        <pt x="249" y="618" on="1"/>
      </contour>
      <contour>
        <pt x="104" y="0" on="1"/>
        <pt x="104" y="721" on="1"/>
        <pt x="386" y="721" on="1"/>
        <pt x="507" y="721" on="0"/>
        <pt x="621" y="611" on="0"/>
        <pt x="621" y="363" on="0"/>
        <pt x="510" y="249" on="0"/>
        <pt x="372" y="249" on="1"/>
        <pt x="249" y="249" on="1"/>
        <pt x="249" y="0" on="1"/>
      </contour>
    </TTGlyph>
    <TTGlyph name="Q" xMin="82" yMin="-261" xMax="710" yMax="733">
      <contour>
        <pt x="401" y="101" on="1"/>
        <pt x="486" y="101" on="0"/>
        <pt x="564" y="157" on="0"/>
        <pt x="564" y="229" on="1"/>
        <pt x="564" y="490" on="1"/>
        <pt x="564" y="561" on="0"/>
        <pt x="485" y="619" on="0"/>
        <pt x="316" y="619" on="0"/>
        <pt x="228" y="561" on="0"/>
        <pt x="228" y="490" on="1"/>
        <pt x="228" y="229" on="1"/>
        <pt x="228" y="158" on="0"/>
        <pt x="315" y="101" on="0"/>
      </contour>
      <contour>
        <pt x="710" y="252" on="1"/>
        <pt x="710" y="17" on="0"/>
        <pt x="470" y="-9" on="1"/>
        <pt x="589" y="-208" on="1"/>
        <pt x="497" y="-261" on="1"/>
        <pt x="340" y="-10" on="1"/>
        <pt x="189" y="2" on="0"/>
        <pt x="132" y="76" on="1"/>
        <pt x="82" y="141" on="0"/>
        <pt x="82" y="245" on="1"/>
        <pt x="82" y="470" on="1"/>
        <pt x="82" y="529" on="0"/>
        <pt x="110" y="618" on="0"/>
        <pt x="144" y="656" on="1"/>
        <pt x="213" y="733" on="0"/>
        <pt x="401" y="733" on="1"/>
        <pt x="582" y="733" on="0"/>
        <pt x="650" y="652" on="1"/>
        <pt x="710" y="579" on="0"/>
        <pt x="710" y="463" on="1"/>
      </contour>
    </TTGlyph>
    <TTGlyph name="R" xMin="104" yMin="0" xMax="688" yMax="721">
      <contour>
        <pt x="249" y="388" on="1"/>
        <pt x="427" y="388" on="1"/>
        <pt x="478" y="388" on="0"/>
        <pt x="517" y="446" on="0"/>
        <pt x="517" y="499" on="1"/>
        <pt x="517" y="618" on="0"/>
        <pt x="433" y="618" on="1"/>
        <pt x="249" y="618" on="1"/>
      </contour>
      <contour>
        <pt x="104" y="0" on="1"/>
        <pt x="104" y="721" on="1"/>
        <pt x="415" y="721" on="1"/>
        <pt x="550" y="721" on="0"/>
        <pt x="655" y="611" on="0"/>
        <pt x="655" y="505" on="1"/>
        <pt x="655" y="430" on="0"/>
        <pt x="610" y="331" on="0"/>
        <pt x="549" y="306" on="1"/>
        <pt x="688" y="0" on="1"/>
        <pt x="538" y="0" on="1"/>
        <pt x="412" y="285" on="1"/>
        <pt x="249" y="285" on="1"/>
        <pt x="249" y="0" on="1"/>
      </contour>
    </TTGlyph>
    <TTGlyph name="Racute" xMin="104" yMin="0" xMax="688" yMax="969">
      <component glyphName="acute" x="269" y="196" flags="0x1004"/>
      <component glyphName="R" x="0" y="0" flags="0x1004"/>
    </TTGlyph>
    <TTGlyph name="Rcaron" xMin="104" yMin="0" xMax="688" yMax="935">
      <component glyphName="caron" x="220" y="196" flags="0x1004"/>
      <component glyphName="R" x="0" y="0" flags="0x1004"/>
    </TTGlyph>
    <TTGlyph name="S" xMin="59" yMin="-13" xMax="571" yMax="733">
      <contour>
        <pt x="438" y="201" on="1"/>
        <pt x="438" y="235" on="0"/>
        <pt x="399" y="279" on="0"/>
        <pt x="339" y="296" on="1"/>
        <pt x="216" y="333" on="1"/>
        <pt x="133" y="358" on="0"/>
        <pt x="66" y="459" on="0"/>
        <pt x="66" y="534" on="1"/>
        <pt x="66" y="631" on="0"/>
        <pt x="205" y="733" on="0"/>
        <pt x="317" y="733" on="1"/>
        <pt x="463" y="733" on="0"/>
        <pt x="558" y="677" on="1"/>
        <pt x="517" y="575" on="1"/>
        <pt x="422" y="619" on="0"/>
        <pt x="330" y="619" on="1"/>
        <pt x="268" y="619" on="0"/>
        <pt x="209" y="583" on="0"/>
        <pt x="209" y="502" on="0"/>
        <pt x="249" y="461" on="0"/>
        <pt x="302" y="445" on="1"/>
        <pt x="425" y="409" on="1"/>
        <pt x="499" y="387" on="0"/>
        <pt x="571" y="289" on="0"/>
        <pt x="571" y="108" on="0"/>
        <pt x="454" y="-13" on="0"/>
        <pt x="336" y="-13" on="1"/>
        <pt x="175" y="-13" on="0"/>
        <pt x="59" y="53" on="1"/>
        <pt x="108" y="159" on="1"/>
        <pt x="218" y="101" on="0"/>
        <pt x="333" y="101" on="1"/>
        <pt x="394" y="101" on="0"/>
        <pt x="438" y="151" on="0"/>
      </contour>
    </TTGlyph>
    <TTGlyph name="Sacute" xMin="59" yMin="-13" xMax="571" yMax="969">
      <component glyphName="acute" x="246" y="196" flags="0x1004"/>
      <component glyphName="S" x="0" y="0" flags="0x1004"/>
    </TTGlyph>
    <TTGlyph name="Scaron" xMin="59" yMin="-13" xMax="571" yMax="935">
      <component glyphName="caron" x="197" y="196" flags="0x1004"/>
      <component glyphName="S" x="0" y="0" flags="0x1004"/>
    </TTGlyph>
    <TTGlyph name="Scedilla" xMin="59" yMin="-236" xMax="571" yMax="733">
      <component glyphName="cedilla" x="248" y="0" flags="0x1004"/>
      <component glyphName="S" x="0" y="0" flags="0x1004"/>
    </TTGlyph>
    <TTGlyph name="Scircumflex" xMin="59" yMin="-13" xMax="571" yMax="935">
      <component glyphName="circumflex" x="197" y="196" flags="0x1004"/>
      <component glyphName="S" x="0" y="0" flags="0x1004"/>
    </TTGlyph>
    <TTGlyph name="Sigma" xMin="45" yMin="0" xMax="532" yMax="721">
      <contour>
        <pt x="532" y="0" on="1"/>
        <pt x="45" y="0" on="1"/>
        <pt x="45" y="93" on="1"/>
        <pt x="280" y="372" on="1"/>
        <pt x="45" y="630" on="1"/>
        <pt x="45" y="721" on="1"/>
        <pt x="532" y="721" on="1"/>
        <pt x="532" y="611" on="1"/>
        <pt x="219" y="611" on="1"/>
        <pt x="426" y="396" on="1"/>
        <pt x="426" y="358" on="1"/>
        <pt x="218" y="110" on="1"/>
        <pt x="532" y="110" on="1"/>
      </contour>
    </TTGlyph>
    <TTGlyph name="T" xMin="19" yMin="0" xMax="564" yMax="721">
      <contour>
        <pt x="219" y="0" on="1"/>
        <pt x="219" y="610" on="1"/>
        <pt x="19" y="610" on="1"/>
        <pt x="19" y="721" on="1"/>
        <pt x="564" y="721" on="1"/>
        <pt x="564" y="610" on="1"/>
        <pt x="364" y="610" on="1"/>
        <pt x="364" y="0" on="1"/>
      </contour>
    </TTGlyph>
    <TTGlyph name="Tbar" xMin="19" yMin="0" xMax="564" yMax="721">
      <contour>
        <pt x="219" y="0" on="1"/>
        <pt x="219" y="334" on="1"/>
        <pt x="145" y="334" on="1"/>
        <pt x="145" y="411" on="1"/>
        <pt x="219" y="411" on="1"/>
        <pt x="219" y="610" on="1"/>
        <pt x="19" y="610" on="1"/>
        <pt x="19" y="721" on="1"/>
        <pt x="564" y="721" on="1"/>
        <pt x="564" y="610" on="1"/>
        <pt x="364" y="610" on="1"/>
        <pt x="364" y="411" on="1"/>
        <pt x="440" y="411" on="1"/>
        <pt x="440" y="334" on="1"/>
        <pt x="364" y="334" on="1"/>
        <pt x="364" y="0" on="1"/>
      </contour>
    </TTGlyph>
    <TTGlyph name="Tcaron" xMin="19" yMin="0" xMax="564" yMax="935">
      <component glyphName="caron" x="163" y="196" flags="0x1004"/>
      <component glyphName="T" x="0" y="0" flags="0x1004"/>
    </TTGlyph>
    <TTGlyph name="Thorn" xMin="105" yMin="0" xMax="621" yMax="721">
      <contour>
        <pt x="250" y="277" on="1"/>
        <pt x="403" y="277" on="1"/>
        <pt x="457" y="277" on="0"/>
        <pt x="490" y="322" on="0"/>
        <pt x="490" y="449" on="0"/>
        <pt x="455" y="504" on="0"/>
        <pt x="407" y="504" on="1"/>
        <pt x="250" y="504" on="1"/>
      </contour>
      <contour>
        <pt x="105" y="0" on="1"/>
        <pt x="105" y="721" on="1"/>
        <pt x="250" y="721" on="1"/>
        <pt x="250" y="605" on="1"/>
        <pt x="394" y="605" on="1"/>
        <pt x="517" y="605" on="0"/>
        <pt x="621" y="515" on="0"/>
        <pt x="621" y="269" on="0"/>
        <pt x="520" y="174" on="0"/>
        <pt x="380" y="174" on="1"/>
        <pt x="250" y="174" on="1"/>
        <pt x="250" y="0" on="1"/>
      </contour>
    </TTGlyph>
    <TTGlyph name="U" xMin="94" yMin="-13" xMax="690" yMax="721">
      <contour>
        <pt x="396" y="-13" on="1"/>
        <pt x="216" y="-13" on="0"/>
        <pt x="152" y="56" on="1"/>
        <pt x="120" y="91" on="0"/>
        <pt x="94" y="173" on="0"/>
        <pt x="94" y="229" on="1"/>
        <pt x="94" y="721" on="1"/>
        <pt x="239" y="721" on="1"/>
        <pt x="239" y="222" on="1"/>
        <pt x="239" y="154" on="0"/>
        <pt x="316" y="101" on="0"/>
        <pt x="475" y="101" on="0"/>
        <pt x="545" y="154" on="0"/>
        <pt x="545" y="222" on="1"/>
        <pt x="545" y="721" on="1"/>
        <pt x="690" y="721" on="1"/>
        <pt x="690" y="234" on="1"/>
        <pt x="690" y="190" on="0"/>
        <pt x="683" y="156" on="1"/>
        <pt x="649" y="-13" on="0"/>
      </contour>
    </TTGlyph>
    <TTGlyph name="Uacute" xMin="94" yMin="-13" xMax="690" yMax="969">
      <component glyphName="acute" x="321" y="196" flags="0x1004"/>
      <component glyphName="U" x="0" y="0" flags="0x1004"/>
    </TTGlyph>
    <TTGlyph name="Ubreve" xMin="94" yMin="-13" xMax="690" yMax="917">
      <component glyphName="breve" x="272" y="196" flags="0x1004"/>
      <component glyphName="U" x="0" y="0" flags="0x1004"/>
    </TTGlyph>
    <TTGlyph name="Ucircumflex" xMin="94" yMin="-13" xMax="690" yMax="935">
      <component glyphName="circumflex" x="272" y="196" flags="0x1004"/>
      <component glyphName="U" x="0" y="0" flags="0x1004"/>
    </TTGlyph>
    <TTGlyph name="Udieresis" xMin="94" yMin="-13" xMax="690" yMax="917">
      <component glyphName="dieresis" x="161" y="196" flags="0x1004"/>
      <component glyphName="U" x="0" y="0" flags="0x1004"/>
    </TTGlyph>
    <TTGlyph name="Ugrave" xMin="94" yMin="-13" xMax="690" yMax="969">
      <component glyphName="grave" x="209" y="196" flags="0x1004"/>
      <component glyphName="U" x="0" y="0" flags="0x1004"/>
    </TTGlyph>
    <TTGlyph name="Uhungarumlaut" xMin="94" yMin="-13" xMax="690" yMax="939">
      <component glyphName="hungarumlaut" x="224" y="196" flags="0x1004"/>
      <component glyphName="U" x="0" y="0" flags="0x1004"/>
    </TTGlyph>
    <TTGlyph name="Umacron" xMin="94" yMin="-13" xMax="690" yMax="884">
      <component glyphName="macron" x="277" y="196" flags="0x1004"/>
      <component glyphName="U" x="0" y="0" flags="0x1004"/>
    </TTGlyph>
    <TTGlyph name="Uogonek" xMin="94" yMin="-248" xMax="690" yMax="721">
      <component glyphName="ogonek" x="305" y="0" flags="0x1004"/>
      <component glyphName="U" x="0" y="0" flags="0x1004"/>
    </TTGlyph>
    <TTGlyph name="Uring" xMin="94" yMin="-13" xMax="690" yMax="980">
      <component glyphName="ring" x="258" y="196" flags="0x1004"/>
      <component glyphName="U" x="0" y="0" flags="0x1004"/>
    </TTGlyph>
    <TTGlyph name="Utilde" xMin="94" yMin="-13" xMax="690" yMax="932">
      <component glyphName="tilde" x="214" y="196" flags="0x1004"/>
      <component glyphName="U" x="0" y="0" flags="0x1004"/>
    </TTGlyph>
    <TTGlyph name="V" xMin="20" yMin="0" xMax="705" yMax="721">
      <contour>
        <pt x="275" y="0" on="1"/>
        <pt x="20" y="721" on="1"/>
        <pt x="173" y="721" on="1"/>
        <pt x="365" y="140" on="1"/>
        <pt x="551" y="721" on="1"/>
        <pt x="705" y="721" on="1"/>
        <pt x="451" y="0" on="1"/>
      </contour>
    </TTGlyph>
    <TTGlyph name="W" xMin="34" yMin="0" xMax="949" yMax="721">
      <contour>
        <pt x="218" y="0" on="1"/>
        <pt x="34" y="721" on="1"/>
        <pt x="171" y="721" on="1"/>
        <pt x="293" y="222" on="1"/>
        <pt x="426" y="721" on="1"/>
        <pt x="547" y="721" on="1"/>
        <pt x="700" y="228" on="1"/>
        <pt x="812" y="721" on="1"/>
        <pt x="949" y="721" on="1"/>
        <pt x="766" y="0" on="1"/>
        <pt x="644" y="0" on="1"/>
        <pt x="490" y="514" on="1"/>
        <pt x="348" y="0" on="1"/>
      </contour>
    </TTGlyph>
    <TTGlyph name="Wacute" xMin="34" yMin="0" xMax="949" yMax="969">
      <component glyphName="acute" x="405" y="196" flags="0x1004"/>
      <component glyphName="W" x="0" y="0" flags="0x1004"/>
    </TTGlyph>
    <TTGlyph name="Wcircumflex" xMin="34" yMin="0" xMax="949" yMax="935">
      <component glyphName="circumflex" x="356" y="196" flags="0x1004"/>
      <component glyphName="W" x="0" y="0" flags="0x1004"/>
    </TTGlyph>
    <TTGlyph name="Wdieresis" xMin="34" yMin="0" xMax="949" yMax="917">
      <component glyphName="dieresis" x="245" y="196" flags="0x1004"/>
      <component glyphName="W" x="0" y="0" flags="0x1004"/>
    </TTGlyph>
    <TTGlyph name="Wgrave" xMin="34" yMin="0" xMax="949" yMax="969">
      <component glyphName="grave" x="292" y="196" flags="0x1004"/>
      <component glyphName="W" x="0" y="0" flags="0x1004"/>
    </TTGlyph>
    <TTGlyph name="X" xMin="19" yMin="0" xMax="642" yMax="721">
      <contour>
        <pt x="19" y="0" on="1"/>
        <pt x="250" y="365" on="1"/>
        <pt x="24" y="721" on="1"/>
        <pt x="175" y="721" on="1"/>
        <pt x="327" y="487" on="1"/>
        <pt x="473" y="721" on="1"/>
        <pt x="633" y="721" on="1"/>
        <pt x="405" y="366" on="1"/>
        <pt x="642" y="0" on="1"/>
        <pt x="482" y="0" on="1"/>
        <pt x="327" y="245" on="1"/>
        <pt x="170" y="0" on="1"/>
      </contour>
    </TTGlyph>
    <TTGlyph name="Y" xMin="9" yMin="0" xMax="646" yMax="721">
      <contour>
        <pt x="257" y="0" on="1"/>
        <pt x="257" y="277" on="1"/>
        <pt x="9" y="721" on="1"/>
        <pt x="162" y="721" on="1"/>
        <pt x="331" y="419" on="1"/>
        <pt x="499" y="721" on="1"/>
        <pt x="646" y="721" on="1"/>
        <pt x="402" y="277" on="1"/>
        <pt x="402" y="0" on="1"/>
      </contour>
    </TTGlyph>
    <TTGlyph name="Yacute" xMin="9" yMin="0" xMax="646" yMax="969">
      <component glyphName="acute" x="257" y="196" flags="0x1004"/>
      <component glyphName="Y" x="0" y="0" flags="0x1004"/>
    </TTGlyph>
    <TTGlyph name="Ycircumflex" xMin="9" yMin="0" xMax="646" yMax="935">
      <component glyphName="circumflex" x="208" y="196" flags="0x1004"/>
      <component glyphName="Y" x="0" y="0" flags="0x1004"/>
    </TTGlyph>
    <TTGlyph name="Ydieresis" xMin="9" yMin="0" xMax="646" yMax="917">
      <component glyphName="dieresis" x="97" y="196" flags="0x1004"/>
      <component glyphName="Y" x="0" y="0" flags="0x1004"/>
    </TTGlyph>
    <TTGlyph name="Ygrave" xMin="9" yMin="0" xMax="646" yMax="969">
      <component glyphName="grave" x="145" y="196" flags="0x1004"/>
      <component glyphName="Y" x="0" y="0" flags="0x1004"/>
    </TTGlyph>
    <TTGlyph name="Z" xMin="60" yMin="0" xMax="557" yMax="721">
      <contour>
        <pt x="60" y="0" on="1"/>
        <pt x="60" y="86" on="1"/>
        <pt x="383" y="614" on="1"/>
        <pt x="72" y="614" on="1"/>
        <pt x="72" y="721" on="1"/>
        <pt x="551" y="721" on="1"/>
        <pt x="551" y="633" on="1"/>
        <pt x="229" y="103" on="1"/>
        <pt x="557" y="103" on="1"/>
        <pt x="557" y="0" on="1"/>
      </contour>
    </TTGlyph>
    <TTGlyph name="Zacute" xMin="60" yMin="0" xMax="557" yMax="969">
      <component glyphName="acute" x="257" y="196" flags="0x1004"/>
      <component glyphName="Z" x="0" y="0" flags="0x1004"/>
    </TTGlyph>
    <TTGlyph name="Zcaron" xMin="60" yMin="0" xMax="557" yMax="935">
      <component glyphName="caron" x="208" y="196" flags="0x1004"/>
      <component glyphName="Z" x="0" y="0" flags="0x1004"/>
    </TTGlyph>
    <TTGlyph name="Zdotaccent" xMin="60" yMin="0" xMax="557" yMax="931">
      <component glyphName="dotaccent" x="213" y="196" flags="0x1004"/>
      <component glyphName="Z" x="0" y="0" flags="0x1004"/>
    </TTGlyph>
    <TTGlyph name="a" xMin="55" yMin="-11" xMax="545" yMax="536">
      <contour>
        <pt x="241" y="79" on="1"/>
        <pt x="268" y="79" on="0"/>
        <pt x="341" y="113" on="0"/>
        <pt x="359" y="141" on="1"/>
        <pt x="359" y="260" on="1"/>
        <pt x="254" y="219" on="1"/>
        <pt x="182" y="190" on="0"/>
        <pt x="182" y="141" on="1"/>
        <pt x="182" y="79" on="0"/>
      </contour>
      <contour>
        <pt x="207" y="-11" on="1"/>
        <pt x="138" y="-11" on="0"/>
        <pt x="55" y="69" on="0"/>
        <pt x="55" y="187" on="0"/>
        <pt x="131" y="262" on="0"/>
        <pt x="221" y="294" on="1"/>
        <pt x="317" y="329" on="1"/>
        <pt x="333" y="335" on="0"/>
        <pt x="348" y="344" on="0"/>
        <pt x="359" y="366" on="0"/>
        <pt x="359" y="417" on="0"/>
        <pt x="321" y="443" on="0"/>
        <pt x="230" y="443" on="0"/>
        <pt x="195" y="408" on="0"/>
        <pt x="195" y="374" on="1"/>
        <pt x="195" y="353" on="1"/>
        <pt x="70" y="353" on="1"/>
        <pt x="70" y="369" on="1"/>
        <pt x="70" y="448" on="0"/>
        <pt x="174" y="536" on="0"/>
        <pt x="392" y="536" on="0"/>
        <pt x="490" y="444" on="0"/>
        <pt x="490" y="358" on="1"/>
        <pt x="490" y="150" on="1"/>
        <pt x="490" y="114" on="0"/>
        <pt x="509" y="93" on="0"/>
        <pt x="545" y="93" on="1"/>
        <pt x="540" y="-4" on="1"/>
        <pt x="495" y="-4" on="1"/>
        <pt x="439" y="-4" on="0"/>
        <pt x="383" y="29" on="0"/>
        <pt x="370" y="63" on="1"/>
        <pt x="320" y="-11" on="0"/>
      </contour>
    </TTGlyph>
    <TTGlyph name="aacute" xMin="55" yMin="-11" xMax="545" yMax="773">
      <component glyphName="acute" x="208" y="0" flags="0x1004"/>
      <component glyphName="a" x="0" y="0" flags="0x1004"/>
    </TTGlyph>
    <TTGlyph name="abreve" xMin="55" yMin="-11" xMax="545" yMax="721">
      <component glyphName="breve" x="160" y="0" flags="0x1004"/>
      <component glyphName="a" x="0" y="0" flags="0x1004"/>
    </TTGlyph>
    <TTGlyph name="acircumflex" xMin="55" yMin="-11" xMax="545" yMax="739">
      <component glyphName="circumflex" x="160" y="0" flags="0x1004"/>
      <component glyphName="a" x="0" y="0" flags="0x1004"/>
    </TTGlyph>
    <TTGlyph name="acute" xMin="52" yMin="595" xMax="238" yMax="773">
      <contour>
        <pt x="52" y="595" on="1"/>
        <pt x="107" y="773" on="1"/>
        <pt x="238" y="773" on="1"/>
        <pt x="125" y="595" on="1"/>
      </contour>
    </TTGlyph>
    <TTGlyph name="adieresis" xMin="55" yMin="-11" xMax="545" yMax="721">
      <component glyphName="dieresis" x="48" y="0" flags="0x1004"/>
      <component glyphName="a" x="0" y="0" flags="0x1004"/>
    </TTGlyph>
    <TTGlyph name="ae" xMin="55" yMin="-11" xMax="793" yMax="536">
      <contour>
        <pt x="494" y="320" on="1"/>
        <pt x="669" y="320" on="1"/>
        <pt x="669" y="374" on="1"/>
        <pt x="669" y="415" on="0"/>
        <pt x="627" y="443" on="0"/>
        <pt x="583" y="443" on="1"/>
        <pt x="494" y="443" on="0"/>
        <pt x="494" y="371" on="1"/>
      </contour>
      <contour>
        <pt x="251" y="77" on="1"/>
        <pt x="280" y="77" on="0"/>
        <pt x="345" y="101" on="0"/>
        <pt x="361" y="126" on="1"/>
        <pt x="361" y="254" on="1"/>
        <pt x="341" y="237" on="0"/>
        <pt x="182" y="201" on="0"/>
        <pt x="182" y="144" on="1"/>
        <pt x="182" y="112" on="0"/>
        <pt x="218" y="77" on="0"/>
      </contour>
      <contour>
        <pt x="55" y="143" on="1"/>
        <pt x="55" y="198" on="0"/>
        <pt x="119" y="261" on="0"/>
        <pt x="219" y="286" on="1"/>
        <pt x="236" y="290" on="0"/>
        <pt x="264" y="296" on="1"/>
        <pt x="338" y="313" on="0"/>
        <pt x="348" y="328" on="1"/>
        <pt x="361" y="351" on="0"/>
        <pt x="361" y="376" on="1"/>
        <pt x="361" y="443" on="0"/>
        <pt x="277" y="443" on="1"/>
        <pt x="230" y="443" on="0"/>
        <pt x="195" y="404" on="0"/>
        <pt x="195" y="369" on="1"/>
        <pt x="195" y="351" on="1"/>
        <pt x="70" y="351" on="1"/>
        <pt x="70" y="364" on="1"/>
        <pt x="70" y="444" on="0"/>
        <pt x="175" y="536" on="0"/>
        <pt x="280" y="536" on="1"/>
        <pt x="331" y="536" on="0"/>
        <pt x="412" y="503" on="0"/>
        <pt x="429" y="472" on="1"/>
        <pt x="481" y="536" on="0"/>
        <pt x="694" y="536" on="0"/>
        <pt x="793" y="447" on="0"/>
        <pt x="793" y="364" on="1"/>
        <pt x="793" y="251" on="1"/>
        <pt x="494" y="251" on="1"/>
        <pt x="494" y="157" on="1"/>
        <pt x="494" y="115" on="0"/>
        <pt x="537" y="81" on="0"/>
        <pt x="630" y="81" on="0"/>
        <pt x="668" y="113" on="0"/>
        <pt x="669" y="172" on="1"/>
        <pt x="792" y="172" on="1"/>
        <pt x="790" y="63" on="0"/>
        <pt x="692" y="-11" on="0"/>
        <pt x="453" y="-11" on="0"/>
        <pt x="414" y="63" on="1"/>
        <pt x="370" y="25" on="0"/>
        <pt x="275" y="-11" on="0"/>
        <pt x="134" y="-11" on="0"/>
        <pt x="55" y="71" on="0"/>
      </contour>
    </TTGlyph>
    <TTGlyph name="aeacute" xMin="55" yMin="-11" xMax="793" yMax="773">
      <component glyphName="ae" x="0" y="0" flags="0x1004"/>
      <component glyphName="acute" x="353" y="0" flags="0x1004"/>
    </TTGlyph>
    <TTGlyph name="agrave" xMin="55" yMin="-11" xMax="545" yMax="773">
      <component glyphName="grave" x="96" y="0" flags="0x1004"/>
      <component glyphName="a" x="0" y="0" flags="0x1004"/>
    </TTGlyph>
    <TTGlyph name="amacron" xMin="55" yMin="-11" xMax="545" yMax="688">
      <component glyphName="macron" x="165" y="0" flags="0x1004"/>
      <component glyphName="a" x="0" y="0" flags="0x1004"/>
    </TTGlyph>
    <TTGlyph name="ampersand" xMin="72" yMin="-13" xMax="720" yMax="735">
      <contour>
        <pt x="358" y="95" on="1"/>
        <pt x="393" y="95" on="0"/>
        <pt x="432" y="98" on="0"/>
        <pt x="477" y="117" on="0"/>
        <pt x="485" y="136" on="1"/>
        <pt x="273" y="344" on="1"/>
        <pt x="249" y="337" on="0"/>
        <pt x="220" y="318" on="0"/>
        <pt x="205" y="276" on="0"/>
        <pt x="205" y="228" on="1"/>
        <pt x="205" y="151" on="0"/>
        <pt x="266" y="95" on="0"/>
      </contour>
      <contour>
        <pt x="358" y="-13" on="1"/>
        <pt x="198" y="-13" on="0"/>
        <pt x="72" y="94" on="0"/>
        <pt x="72" y="225" on="1"/>
        <pt x="72" y="298" on="0"/>
        <pt x="139" y="382" on="0"/>
        <pt x="211" y="403" on="1"/>
        <pt x="168" y="443" on="0"/>
        <pt x="125" y="517" on="0"/>
        <pt x="125" y="569" on="1"/>
        <pt x="125" y="655" on="0"/>
        <pt x="237" y="735" on="0"/>
        <pt x="497" y="735" on="0"/>
        <pt x="604" y="668" on="0"/>
        <pt x="604" y="583" on="1"/>
        <pt x="604" y="542" on="1"/>
        <pt x="488" y="542" on="1"/>
        <pt x="488" y="562" on="1"/>
        <pt x="488" y="611" on="0"/>
        <pt x="443" y="637" on="0"/>
        <pt x="302" y="637" on="0"/>
        <pt x="254" y="599" on="0"/>
        <pt x="254" y="527" on="0"/>
        <pt x="276" y="503" on="1"/>
        <pt x="285" y="493" on="0"/>
        <pt x="312" y="464" on="1"/>
        <pt x="535" y="244" on="1"/>
        <pt x="535" y="401" on="1"/>
        <pt x="650" y="401" on="1"/>
        <pt x="650" y="268" on="1"/>
        <pt x="650" y="191" on="0"/>
        <pt x="637" y="151" on="1"/>
        <pt x="720" y="73" on="1"/>
        <pt x="642" y="-11" on="1"/>
        <pt x="579" y="50" on="1"/>
        <pt x="524" y="-13" on="0"/>
      </contour>
    </TTGlyph>
    <TTGlyph name="aogonek" xMin="55" yMin="-248" xMax="569" yMax="536">
      <component glyphName="ogonek" x="363" y="0" flags="0x1004"/>
      <component glyphName="a" x="0" y="0" flags="0x1004"/>
    </TTGlyph>
    <TTGlyph name="approxequal" xMin="29" yMin="360" xMax="471" yMax="701">
      <contour>
        <pt x="352" y="552" on="1"/>
        <pt x="310" y="552" on="0"/>
        <pt x="158" y="620" on="0"/>
        <pt x="143" y="620" on="1"/>
        <pt x="82" y="620" on="0"/>
        <pt x="82" y="560" on="1"/>
        <pt x="29" y="560" on="1"/>
        <pt x="29" y="627" on="0"/>
        <pt x="95" y="701" on="0"/>
        <pt x="189" y="701" on="0"/>
        <pt x="342" y="634" on="0"/>
        <pt x="357" y="634" on="1"/>
        <pt x="417" y="634" on="0"/>
        <pt x="417" y="693" on="1"/>
        <pt x="471" y="693" on="1"/>
        <pt x="471" y="626" on="0"/>
        <pt x="404" y="552" on="0"/>
      </contour>
      <contour>
        <pt x="352" y="360" on="1"/>
        <pt x="310" y="360" on="0"/>
        <pt x="158" y="428" on="0"/>
        <pt x="143" y="428" on="1"/>
        <pt x="82" y="428" on="0"/>
        <pt x="82" y="368" on="1"/>
        <pt x="29" y="368" on="1"/>
        <pt x="29" y="435" on="0"/>
        <pt x="95" y="509" on="0"/>
        <pt x="189" y="509" on="0"/>
        <pt x="342" y="442" on="0"/>
        <pt x="357" y="442" on="1"/>
        <pt x="417" y="442" on="0"/>
        <pt x="417" y="501" on="1"/>
        <pt x="471" y="501" on="1"/>
        <pt x="471" y="434" on="0"/>
        <pt x="404" y="360" on="0"/>
      </contour>
    </TTGlyph>
    <TTGlyph name="aring" xMin="55" yMin="-11" xMax="545" yMax="784">
      <component glyphName="ring" x="145" y="0" flags="0x1004"/>
      <component glyphName="a" x="0" y="0" flags="0x1004"/>
    </TTGlyph>
    <TTGlyph name="aringacute" xMin="55" yMin="-11" xMax="545" yMax="1022">
      <component glyphName="aring" x="0" y="0" flags="0x1004"/>
      <component glyphName="acute" x="201" y="249" flags="0x1004"/>
    </TTGlyph>
    <TTGlyph name="asciicircum" xMin="39" yMin="250" xMax="563" yMax="626">
      <contour>
        <pt x="39" y="250" on="1"/>
        <pt x="237" y="626" on="1"/>
        <pt x="364" y="626" on="1"/>
        <pt x="563" y="250" on="1"/>
        <pt x="452" y="250" on="1"/>
        <pt x="304" y="543" on="1"/>
        <pt x="155" y="250" on="1"/>
      </contour>
    </TTGlyph>
    <TTGlyph name="asciitilde" xMin="44" yMin="552" xMax="456" yMax="716">
      <contour>
        <pt x="337" y="552" on="1"/>
        <pt x="305" y="552" on="0"/>
        <pt x="232" y="594" on="0"/>
        <pt x="172" y="635" on="0"/>
        <pt x="157" y="635" on="1"/>
        <pt x="127" y="635" on="0"/>
        <pt x="97" y="590" on="0"/>
        <pt x="97" y="560" on="1"/>
        <pt x="44" y="560" on="1"/>
        <pt x="44" y="628" on="0"/>
        <pt x="112" y="716" on="0"/>
        <pt x="162" y="716" on="1"/>
        <pt x="194" y="716" on="0"/>
        <pt x="268" y="675" on="0"/>
        <pt x="328" y="634" on="0"/>
        <pt x="343" y="634" on="1"/>
        <pt x="373" y="634" on="0"/>
        <pt x="403" y="678" on="0"/>
        <pt x="403" y="708" on="1"/>
        <pt x="456" y="708" on="1"/>
        <pt x="456" y="640" on="0"/>
        <pt x="387" y="552" on="0"/>
      </contour>
    </TTGlyph>
    <TTGlyph name="asterisk" xMin="42" yMin="292" xMax="445" yMax="706">
      <contour>
        <pt x="200" y="292" on="1"/>
        <pt x="214" y="451" on="1"/>
        <pt x="81" y="366" on="1"/>
        <pt x="42" y="445" on="1"/>
        <pt x="184" y="502" on="1"/>
        <pt x="47" y="571" on="1"/>
        <pt x="93" y="646" on="1"/>
        <pt x="214" y="553" on="1"/>
        <pt x="200" y="706" on="1"/>
        <pt x="287" y="706" on="1"/>
        <pt x="272" y="547" on="1"/>
        <pt x="406" y="632" on="1"/>
        <pt x="445" y="554" on="1"/>
        <pt x="303" y="497" on="1"/>
        <pt x="440" y="427" on="1"/>
        <pt x="394" y="353" on="1"/>
        <pt x="273" y="445" on="1"/>
        <pt x="287" y="292" on="1"/>
      </contour>
    </TTGlyph>
    <TTGlyph name="at" xMin="117" yMin="-233" xMax="912" yMax="744">
      <contour>
        <pt x="579" y="130" on="1"/>
        <pt x="625" y="130" on="0"/>
        <pt x="725" y="166" on="0"/>
        <pt x="729" y="184" on="1"/>
        <pt x="729" y="363" on="1"/>
        <pt x="722" y="359" on="0"/>
        <pt x="590" y="325" on="1"/>
        <pt x="526" y="308" on="0"/>
        <pt x="480" y="258" on="0"/>
        <pt x="480" y="172" on="0"/>
        <pt x="535" y="130" on="0"/>
      </contour>
      <contour>
        <pt x="529" y="-233" on="1"/>
        <pt x="117" y="-233" on="0"/>
        <pt x="117" y="170" on="1"/>
        <pt x="117" y="376" on="1"/>
        <pt x="117" y="560" on="0"/>
        <pt x="296" y="744" on="0"/>
        <pt x="495" y="744" on="1"/>
        <pt x="763" y="744" on="0"/>
        <pt x="828" y="604" on="1"/>
        <pt x="859" y="536" on="0"/>
        <pt x="859" y="421" on="1"/>
        <pt x="860" y="192" on="1"/>
        <pt x="860" y="153" on="0"/>
        <pt x="879" y="126" on="0"/>
        <pt x="912" y="126" on="1"/>
        <pt x="902" y="29" on="1"/>
        <pt x="851" y="29" on="1"/>
        <pt x="815" y="29" on="0"/>
        <pt x="769" y="51" on="0"/>
        <pt x="751" y="77" on="0"/>
        <pt x="740" y="102" on="1"/>
        <pt x="717" y="69" on="0"/>
        <pt x="612" y="26" on="0"/>
        <pt x="555" y="26" on="1"/>
        <pt x="470" y="26" on="0"/>
        <pt x="356" y="123" on="0"/>
        <pt x="356" y="209" on="1"/>
        <pt x="356" y="241" on="0"/>
        <pt x="370" y="287" on="0"/>
        <pt x="409" y="337" on="0"/>
        <pt x="493" y="378" on="0"/>
        <pt x="577" y="400" on="0"/>
        <pt x="728" y="437" on="1"/>
        <pt x="728" y="495" on="0"/>
        <pt x="713" y="566" on="0"/>
        <pt x="669" y="621" on="0"/>
        <pt x="585" y="645" on="0"/>
        <pt x="443" y="645" on="0"/>
        <pt x="351" y="626" on="0"/>
        <pt x="275" y="567" on="0"/>
        <pt x="242" y="453" on="0"/>
        <pt x="242" y="362" on="1"/>
        <pt x="242" y="177" on="1"/>
        <pt x="242" y="4" on="0"/>
        <pt x="330" y="-64" on="1"/>
        <pt x="372" y="-97" on="0"/>
        <pt x="475" y="-125" on="0"/>
        <pt x="642" y="-125" on="0"/>
        <pt x="833" y="-84" on="1"/>
        <pt x="862" y="-183" on="1"/>
        <pt x="669" y="-233" on="0"/>
      </contour>
    </TTGlyph>
    <TTGlyph name="atilde" xMin="55" yMin="-11" xMax="545" yMax="736">
      <component glyphName="tilde" x="102" y="0" flags="0x1004"/>
      <component glyphName="a" x="0" y="0" flags="0x1004"/>
    </TTGlyph>
    <TTGlyph name="b" xMin="83" yMin="-11" xMax="533" yMax="740">
      <contour>
        <pt x="303" y="82" on="1"/>
        <pt x="400" y="82" on="0"/>
        <pt x="400" y="158" on="1"/>
        <pt x="400" y="370" on="1"/>
        <pt x="400" y="443" on="0"/>
        <pt x="309" y="443" on="1"/>
        <pt x="266" y="443" on="0"/>
        <pt x="216" y="418" on="1"/>
        <pt x="216" y="105" on="1"/>
        <pt x="247" y="82" on="0"/>
      </contour>
      <contour>
        <pt x="325" y="-11" on="1"/>
        <pt x="254" y="-11" on="0"/>
        <pt x="188" y="32" on="1"/>
        <pt x="174" y="0" on="1"/>
        <pt x="83" y="0" on="1"/>
        <pt x="83" y="740" on="1"/>
        <pt x="216" y="740" on="1"/>
        <pt x="216" y="508" on="1"/>
        <pt x="269" y="536" on="0"/>
        <pt x="333" y="536" on="1"/>
        <pt x="436" y="536" on="0"/>
        <pt x="533" y="441" on="0"/>
        <pt x="533" y="368" on="1"/>
        <pt x="533" y="161" on="1"/>
        <pt x="533" y="84" on="0"/>
        <pt x="420" y="-11" on="0"/>
      </contour>
    </TTGlyph>
    <TTGlyph name="backslash" xMin="52" yMin="0" xMax="448" yMax="740">
      <contour>
        <pt x="330" y="0" on="1"/>
        <pt x="52" y="740" on="1"/>
        <pt x="170" y="740" on="1"/>
        <pt x="448" y="0" on="1"/>
      </contour>
    </TTGlyph>
    <TTGlyph name="bar" xMin="128" yMin="-62" xMax="247" yMax="785">
      <contour>
        <pt x="128" y="-62" on="1"/>
        <pt x="128" y="785" on="1"/>
        <pt x="247" y="785" on="1"/>
        <pt x="247" y="-62" on="1"/>
      </contour>
    </TTGlyph>
    <TTGlyph name="braceleft" xMin="92" yMin="-62" xMax="413" yMax="760">
      <contour>
        <pt x="413" y="-62" on="1"/>
        <pt x="278" y="-62" on="0"/>
        <pt x="185" y="32" on="0"/>
        <pt x="185" y="157" on="1"/>
        <pt x="185" y="200" on="1"/>
        <pt x="185" y="258" on="0"/>
        <pt x="148" y="291" on="0"/>
        <pt x="92" y="291" on="1"/>
        <pt x="92" y="407" on="1"/>
        <pt x="147" y="407" on="0"/>
        <pt x="185" y="447" on="0"/>
        <pt x="185" y="506" on="1"/>
        <pt x="185" y="556" on="1"/>
        <pt x="185" y="660" on="0"/>
        <pt x="214" y="707" on="1"/>
        <pt x="229" y="730" on="0"/>
        <pt x="288" y="753" on="0"/>
        <pt x="356" y="760" on="0"/>
        <pt x="413" y="760" on="1"/>
        <pt x="413" y="675" on="1"/>
        <pt x="351" y="675" on="0"/>
        <pt x="321" y="644" on="0"/>
        <pt x="321" y="591" on="1"/>
        <pt x="321" y="527" on="1"/>
        <pt x="321" y="379" on="0"/>
        <pt x="243" y="353" on="1"/>
        <pt x="286" y="338" on="0"/>
        <pt x="322" y="255" on="0"/>
        <pt x="322" y="180" on="1"/>
        <pt x="322" y="123" on="1"/>
        <pt x="322" y="63" on="0"/>
        <pt x="353" y="22" on="0"/>
        <pt x="413" y="22" on="1"/>
      </contour>
    </TTGlyph>
    <TTGlyph name="braceright" xMin="86" yMin="-62" xMax="408" yMax="760">
      <contour>
        <pt x="86" y="-62" on="1"/>
        <pt x="86" y="-62" on="0"/>
        <pt x="86" y="22" on="1"/>
        <pt x="146" y="22" on="0"/>
        <pt x="178" y="63" on="0"/>
        <pt x="178" y="123" on="1"/>
        <pt x="178" y="180" on="1"/>
        <pt x="178" y="255" on="0"/>
        <pt x="213" y="338" on="0"/>
        <pt x="256" y="353" on="1"/>
        <pt x="178" y="379" on="0"/>
        <pt x="178" y="527" on="1"/>
        <pt x="178" y="591" on="1"/>
        <pt x="178" y="644" on="0"/>
        <pt x="148" y="675" on="0"/>
        <pt x="86" y="675" on="1"/>
        <pt x="86" y="760" on="1"/>
        <pt x="143" y="760" on="0"/>
        <pt x="177" y="756" on="1"/>
        <pt x="259" y="748" on="0"/>
        <pt x="284" y="707" on="1"/>
        <pt x="314" y="660" on="0"/>
        <pt x="314" y="556" on="1"/>
        <pt x="314" y="506" on="1"/>
        <pt x="314" y="447" on="0"/>
        <pt x="353" y="407" on="0"/>
        <pt x="408" y="407" on="1"/>
        <pt x="408" y="291" on="1"/>
        <pt x="352" y="291" on="0"/>
        <pt x="314" y="258" on="0"/>
        <pt x="314" y="200" on="1"/>
        <pt x="314" y="157" on="1"/>
        <pt x="314" y="32" on="0"/>
        <pt x="221" y="-62" on="0"/>
      </contour>
    </TTGlyph>
    <TTGlyph name="bracketleft" xMin="104" yMin="-43" xMax="339" yMax="777">
      <contour>
        <pt x="104" y="-43" on="1"/>
        <pt x="104" y="777" on="1"/>
        <pt x="339" y="777" on="1"/>
        <pt x="339" y="699" on="1"/>
        <pt x="237" y="699" on="1"/>
        <pt x="237" y="35" on="1"/>
        <pt x="339" y="35" on="1"/>
        <pt x="339" y="-43" on="1"/>
      </contour>
    </TTGlyph>
    <TTGlyph name="bracketright" xMin="71" yMin="-43" xMax="307" yMax="777">
      <contour>
        <pt x="71" y="-43" on="1"/>
        <pt x="71" y="35" on="1"/>
        <pt x="174" y="35" on="1"/>
        <pt x="174" y="699" on="1"/>
        <pt x="71" y="699" on="1"/>
        <pt x="71" y="777" on="1"/>
        <pt x="307" y="777" on="1"/>
        <pt x="307" y="-43" on="1"/>
      </contour>
    </TTGlyph>
    <TTGlyph name="breve" xMin="0" yMin="594" xMax="250" yMax="721">
      <contour>
        <pt x="125" y="594" on="1"/>
        <pt x="71" y="594" on="0"/>
        <pt x="0" y="653" on="0"/>
        <pt x="0" y="721" on="1"/>
        <pt x="70" y="721" on="1"/>
        <pt x="70" y="672" on="0"/>
        <pt x="180" y="672" on="0"/>
        <pt x="180" y="721" on="1"/>
        <pt x="250" y="721" on="1"/>
        <pt x="250" y="653" on="0"/>
        <pt x="179" y="594" on="0"/>
      </contour>
    </TTGlyph>
    <TTGlyph name="brokenbar" xMin="137" yMin="-59" xMax="239" yMax="721">
      <contour>
        <pt x="137" y="391" on="1"/>
        <pt x="137" y="721" on="1"/>
        <pt x="239" y="721" on="1"/>
        <pt x="239" y="391" on="1"/>
      </contour>
      <contour>
        <pt x="137" y="-59" on="1"/>
        <pt x="137" y="288" on="1"/>
        <pt x="239" y="288" on="1"/>
        <pt x="239" y="-59" on="1"/>
      </contour>
    </TTGlyph>
    <TTGlyph name="bullet" xMin="94" yMin="190" xMax="406" yMax="500">
      <contour>
        <pt x="250" y="190" on="1"/>
        <pt x="180" y="190" on="0"/>
        <pt x="94" y="277" on="0"/>
        <pt x="94" y="413" on="0"/>
        <pt x="180" y="500" on="0"/>
        <pt x="320" y="500" on="0"/>
        <pt x="406" y="413" on="0"/>
        <pt x="406" y="277" on="0"/>
        <pt x="320" y="190" on="0"/>
      </contour>
    </TTGlyph>
    <TTGlyph name="c" xMin="68" yMin="-11" xMax="502" yMax="536">
      <contour>
        <pt x="288" y="-11" on="1"/>
        <pt x="164" y="-11" on="0"/>
        <pt x="68" y="82" on="0"/>
        <pt x="68" y="160" on="1"/>
        <pt x="68" y="370" on="1"/>
        <pt x="68" y="449" on="0"/>
        <pt x="183" y="536" on="0"/>
        <pt x="398" y="536" on="0"/>
        <pt x="502" y="450" on="0"/>
        <pt x="502" y="341" on="1"/>
        <pt x="377" y="332" on="1"/>
        <pt x="377" y="402" on="0"/>
        <pt x="344" y="443" on="0"/>
        <pt x="291" y="443" on="1"/>
        <pt x="201" y="443" on="0"/>
        <pt x="201" y="369" on="1"/>
        <pt x="201" y="157" on="1"/>
        <pt x="201" y="116" on="0"/>
        <pt x="244" y="82" on="0"/>
        <pt x="345" y="82" on="0"/>
        <pt x="377" y="120" on="0"/>
        <pt x="377" y="186" on="1"/>
        <pt x="501" y="186" on="1"/>
        <pt x="499" y="73" on="0"/>
        <pt x="412" y="-11" on="0"/>
      </contour>
    </TTGlyph>
    <TTGlyph name="cacute" xMin="68" yMin="-11" xMax="502" yMax="773">
      <component glyphName="c" x="0" y="0" flags="0x1004"/>
      <component glyphName="acute" x="217" y="0" flags="0x1004"/>
    </TTGlyph>
    <TTGlyph name="caron" xMin="-34" yMin="594" xMax="288" yMax="739">
      <contour>
        <pt x="186" y="594" on="1"/>
        <pt x="76" y="594" on="1"/>
        <pt x="-34" y="739" on="1"/>
        <pt x="79" y="739" on="1"/>
        <pt x="130" y="669" on="1"/>
        <pt x="178" y="739" on="1"/>
        <pt x="288" y="739" on="1"/>
      </contour>
    </TTGlyph>
    <TTGlyph name="caron.alt" xMin="284" yMin="583" xMax="441" yMax="907">
      <contour>
        <pt x="441" y="798" on="1"/>
        <pt x="441" y="733" on="0"/>
        <pt x="377" y="612" on="0"/>
        <pt x="346" y="583" on="1"/>
        <pt x="293" y="605" on="1"/>
        <pt x="318" y="633" on="0"/>
        <pt x="365" y="727" on="0"/>
        <pt x="365" y="772" on="1"/>
        <pt x="284" y="772" on="1"/>
        <pt x="284" y="907" on="1"/>
        <pt x="441" y="907" on="1"/>
      </contour>
    </TTGlyph>
    <TTGlyph name="ccaron" xMin="68" yMin="-11" xMax="502" yMax="739">
      <component glyphName="caron" x="168" y="0" flags="0x1004"/>
      <component glyphName="c" x="0" y="0" flags="0x1004"/>
    </TTGlyph>
    <TTGlyph name="ccedilla" xMin="68" yMin="-236" xMax="502" yMax="536">
      <component glyphName="cedilla" x="194" y="0" flags="0x1004"/>
      <component glyphName="c" x="0" y="0" flags="0x1004"/>
    </TTGlyph>
    <TTGlyph name="ccircumflex" xMin="68" yMin="-11" xMax="502" yMax="739">
      <component glyphName="circumflex" x="168" y="0" flags="0x1004"/>
      <component glyphName="c" x="0" y="0" flags="0x1004"/>
    </TTGlyph>
    <TTGlyph name="cdotaccent" xMin="68" yMin="-11" xMax="502" yMax="735">
      <component glyphName="dotaccent" x="173" y="0" flags="0x1004"/>
      <component glyphName="c" x="0" y="0" flags="0x1004"/>
    </TTGlyph>
    <TTGlyph name="cedilla" xMin="59" yMin="-236" xMax="225" yMax="5">
      <contour>
        <pt x="105" y="-236" on="1"/>
        <pt x="82" y="-236" on="0"/>
        <pt x="59" y="-232" on="1"/>
        <pt x="59" y="-175" on="1"/>
        <pt x="77" y="-178" on="0"/>
        <pt x="90" y="-178" on="1"/>
        <pt x="147" y="-178" on="0"/>
        <pt x="147" y="-136" on="1"/>
        <pt x="147" y="-114" on="0"/>
        <pt x="111" y="-80" on="0"/>
        <pt x="77" y="-79" on="1"/>
        <pt x="77" y="5" on="1"/>
        <pt x="128" y="5" on="1"/>
        <pt x="131" y="-44" on="1"/>
        <pt x="225" y="-61" on="0"/>
        <pt x="225" y="-147" on="1"/>
        <pt x="225" y="-184" on="0"/>
        <pt x="162" y="-236" on="0"/>
      </contour>
    </TTGlyph>
    <TTGlyph name="cent" xMin="68" yMin="-104" xMax="502" yMax="630">
      <contour>
        <pt x="263" y="-104" on="1"/>
        <pt x="263" y="-10" on="1"/>
        <pt x="154" y="-5" on="0"/>
        <pt x="68" y="86" on="0"/>
        <pt x="68" y="160" on="1"/>
        <pt x="68" y="370" on="1"/>
        <pt x="68" y="444" on="0"/>
        <pt x="170" y="530" on="0"/>
        <pt x="263" y="535" on="1"/>
        <pt x="263" y="630" on="1"/>
        <pt x="308" y="630" on="1"/>
        <pt x="308" y="536" on="1"/>
        <pt x="408" y="532" on="0"/>
        <pt x="502" y="444" on="0"/>
        <pt x="502" y="341" on="1"/>
        <pt x="377" y="332" on="1"/>
        <pt x="377" y="402" on="0"/>
        <pt x="344" y="443" on="0"/>
        <pt x="291" y="443" on="1"/>
        <pt x="201" y="443" on="0"/>
        <pt x="201" y="369" on="1"/>
        <pt x="201" y="157" on="1"/>
        <pt x="201" y="116" on="0"/>
        <pt x="244" y="82" on="0"/>
        <pt x="345" y="82" on="0"/>
        <pt x="377" y="120" on="0"/>
        <pt x="377" y="186" on="1"/>
        <pt x="501" y="186" on="1"/>
        <pt x="499" y="77" on="0"/>
        <pt x="419" y="-8" on="0"/>
        <pt x="308" y="-11" on="1"/>
        <pt x="308" y="-104" on="1"/>
      </contour>
    </TTGlyph>
    <TTGlyph name="circumflex" xMin="-34" yMin="594" xMax="288" yMax="739">
      <contour>
        <pt x="-34" y="594" on="1"/>
        <pt x="76" y="739" on="1"/>
        <pt x="186" y="739" on="1"/>
        <pt x="288" y="594" on="1"/>
        <pt x="178" y="594" on="1"/>
        <pt x="130" y="664" on="1"/>
        <pt x="79" y="594" on="1"/>
      </contour>
    </TTGlyph>
    <TTGlyph name="colon" xMin="83" yMin="96" xMax="229" yMax="556">
      <component glyphName="period" x="3" y="417" flags="0x1004"/>
      <component glyphName="period" x="3" y="96" flags="0x1004"/>
    </TTGlyph>
    <TTGlyph name="comma" xMin="109" yMin="-190" xMax="266" yMax="135">
      <contour>
        <pt x="266" y="26" on="1"/>
        <pt x="266" y="-39" on="0"/>
        <pt x="201" y="-162" on="0"/>
        <pt x="170" y="-190" on="1"/>
        <pt x="118" y="-167" on="1"/>
        <pt x="143" y="-139" on="0"/>
        <pt x="189" y="-45" on="0"/>
        <pt x="189" y="0" on="1"/>
        <pt x="189" y="0" on="0"/>
        <pt x="109" y="0" on="1"/>
        <pt x="109" y="135" on="1"/>
        <pt x="266" y="135" on="1"/>
      </contour>
    </TTGlyph>
    <TTGlyph name="copyright" xMin="74" yMin="-7" xMax="793" yMax="711">
      <contour>
        <pt x="434" y="-7" on="1"/>
        <pt x="282" y="-7" on="0"/>
        <pt x="74" y="200" on="0"/>
        <pt x="74" y="505" on="0"/>
        <pt x="282" y="711" on="0"/>
        <pt x="587" y="711" on="0"/>
        <pt x="793" y="506" on="0"/>
        <pt x="793" y="200" on="0"/>
        <pt x="586" y="-7" on="0"/>
      </contour>
      <contour>
        <pt x="435" y="40" on="1"/>
        <pt x="568" y="40" on="0"/>
        <pt x="741" y="219" on="0"/>
        <pt x="741" y="487" on="0"/>
        <pt x="568" y="665" on="0"/>
        <pt x="302" y="665" on="0"/>
        <pt x="127" y="487" on="0"/>
        <pt x="127" y="219" on="0"/>
        <pt x="302" y="40" on="0"/>
      </contour>
      <contour>
        <pt x="439" y="140" on="1"/>
        <pt x="341" y="140" on="0"/>
        <pt x="267" y="216" on="0"/>
        <pt x="267" y="288" on="1"/>
        <pt x="267" y="424" on="1"/>
        <pt x="267" y="499" on="0"/>
        <pt x="340" y="577" on="0"/>
        <pt x="532" y="577" on="0"/>
        <pt x="598" y="496" on="0"/>
        <pt x="598" y="420" on="1"/>
        <pt x="598" y="408" on="1"/>
        <pt x="541" y="403" on="1"/>
        <pt x="541" y="435" on="1"/>
        <pt x="541" y="490" on="0"/>
        <pt x="494" y="533" on="0"/>
        <pt x="380" y="533" on="0"/>
        <pt x="326" y="489" on="0"/>
        <pt x="326" y="435" on="1"/>
        <pt x="326" y="279" on="1"/>
        <pt x="326" y="226" on="0"/>
        <pt x="381" y="184" on="0"/>
        <pt x="496" y="184" on="0"/>
        <pt x="541" y="224" on="0"/>
        <pt x="541" y="279" on="1"/>
        <pt x="541" y="309" on="1"/>
        <pt x="598" y="309" on="1"/>
        <pt x="598" y="292" on="1"/>
        <pt x="598" y="218" on="0"/>
        <pt x="532" y="140" on="0"/>
      </contour>
    </TTGlyph>
    <TTGlyph name="currency" xMin="61" yMin="186" xMax="489" yMax="521">
      <contour>
        <pt x="273" y="258" on="1"/>
        <pt x="318" y="258" on="0"/>
        <pt x="365" y="313" on="0"/>
        <pt x="365" y="393" on="0"/>
        <pt x="318" y="448" on="0"/>
        <pt x="228" y="448" on="0"/>
        <pt x="180" y="393" on="0"/>
        <pt x="180" y="313" on="0"/>
        <pt x="228" y="258" on="0"/>
      </contour>
      <contour>
        <pt x="273" y="186" on="1"/>
        <pt x="197" y="186" on="0"/>
        <pt x="151" y="234" on="1"/>
        <pt x="85" y="187" on="1"/>
        <pt x="62" y="228" on="1"/>
        <pt x="124" y="273" on="1"/>
        <pt x="105" y="311" on="0"/>
        <pt x="105" y="398" on="0"/>
        <pt x="125" y="436" on="1"/>
        <pt x="61" y="482" on="1"/>
        <pt x="86" y="521" on="1"/>
        <pt x="152" y="473" on="1"/>
        <pt x="199" y="520" on="0"/>
        <pt x="349" y="520" on="0"/>
        <pt x="395" y="471" on="1"/>
        <pt x="465" y="521" on="1"/>
        <pt x="488" y="481" on="1"/>
        <pt x="421" y="433" on="1"/>
        <pt x="439" y="397" on="0"/>
        <pt x="439" y="308" on="0"/>
        <pt x="422" y="275" on="1"/>
        <pt x="489" y="227" on="1"/>
        <pt x="464" y="188" on="1"/>
        <pt x="396" y="237" on="1"/>
        <pt x="348" y="186" on="0"/>
      </contour>
    </TTGlyph>
    <TTGlyph name="d" xMin="68" yMin="-11" xMax="517" yMax="740">
      <contour>
        <pt x="292" y="82" on="1"/>
        <pt x="347" y="82" on="0"/>
        <pt x="384" y="103" on="1"/>
        <pt x="384" y="425" on="1"/>
        <pt x="344" y="443" on="0"/>
        <pt x="297" y="443" on="1"/>
        <pt x="201" y="443" on="0"/>
        <pt x="201" y="371" on="1"/>
        <pt x="201" y="156" on="1"/>
        <pt x="201" y="82" on="0"/>
      </contour>
      <contour>
        <pt x="277" y="-11" on="1"/>
        <pt x="173" y="-11" on="0"/>
        <pt x="68" y="77" on="0"/>
        <pt x="68" y="158" on="1"/>
        <pt x="68" y="368" on="1"/>
        <pt x="68" y="445" on="0"/>
        <pt x="176" y="536" on="0"/>
        <pt x="286" y="536" on="1"/>
        <pt x="330" y="536" on="0"/>
        <pt x="384" y="517" on="1"/>
        <pt x="384" y="740" on="1"/>
        <pt x="517" y="740" on="1"/>
        <pt x="517" y="0" on="1"/>
        <pt x="427" y="0" on="1"/>
        <pt x="413" y="31" on="1"/>
        <pt x="354" y="-11" on="0"/>
      </contour>
    </TTGlyph>
    <TTGlyph name="dagger" xMin="78" yMin="0" xMax="422" yMax="646">
      <contour>
        <pt x="200" y="0" on="1"/>
        <pt x="200" y="418" on="1"/>
        <pt x="78" y="418" on="1"/>
        <pt x="78" y="495" on="1"/>
        <pt x="200" y="495" on="1"/>
        <pt x="200" y="646" on="1"/>
        <pt x="300" y="646" on="1"/>
        <pt x="300" y="495" on="1"/>
        <pt x="422" y="495" on="1"/>
        <pt x="422" y="418" on="1"/>
        <pt x="300" y="418" on="1"/>
        <pt x="300" y="0" on="1"/>
      </contour>
    </TTGlyph>
    <TTGlyph name="daggerdbl" xMin="107" yMin="0" xMax="394" yMax="646">
      <contour>
        <pt x="200" y="0" on="1"/>
        <pt x="200" y="187" on="1"/>
        <pt x="107" y="187" on="1"/>
        <pt x="107" y="278" on="1"/>
        <pt x="200" y="278" on="1"/>
        <pt x="200" y="426" on="1"/>
        <pt x="107" y="426" on="1"/>
        <pt x="107" y="517" on="1"/>
        <pt x="200" y="517" on="1"/>
        <pt x="200" y="646" on="1"/>
        <pt x="300" y="646" on="1"/>
        <pt x="300" y="517" on="1"/>
        <pt x="394" y="517" on="1"/>
        <pt x="394" y="426" on="1"/>
        <pt x="300" y="426" on="1"/>
        <pt x="300" y="278" on="1"/>
        <pt x="394" y="278" on="1"/>
        <pt x="394" y="187" on="1"/>
        <pt x="300" y="187" on="1"/>
        <pt x="300" y="0" on="1"/>
      </contour>
    </TTGlyph>
    <TTGlyph name="dcaron" xMin="68" yMin="-11" xMax="723" yMax="907">
      <component glyphName="d" x="0" y="0" flags="0x1004"/>
      <component glyphName="caron.alt" x="282" y="0" flags="0x1004"/>
    </TTGlyph>
    <TTGlyph name="dcroat" xMin="68" yMin="-11" xMax="598" yMax="740">
      <contour>
        <pt x="277" y="-11" on="1"/>
        <pt x="173" y="-11" on="0"/>
        <pt x="68" y="77" on="0"/>
        <pt x="68" y="158" on="1"/>
        <pt x="68" y="368" on="1"/>
        <pt x="68" y="445" on="0"/>
        <pt x="176" y="536" on="0"/>
        <pt x="286" y="536" on="1"/>
        <pt x="330" y="536" on="0"/>
        <pt x="384" y="517" on="1"/>
        <pt x="384" y="603" on="1"/>
        <pt x="303" y="603" on="1"/>
        <pt x="303" y="680" on="1"/>
        <pt x="384" y="680" on="1"/>
        <pt x="384" y="740" on="1"/>
        <pt x="517" y="740" on="1"/>
        <pt x="517" y="680" on="1"/>
        <pt x="598" y="680" on="1"/>
        <pt x="598" y="603" on="1"/>
        <pt x="517" y="603" on="1"/>
        <pt x="517" y="0" on="1"/>
        <pt x="427" y="0" on="1"/>
        <pt x="413" y="31" on="1"/>
        <pt x="354" y="-11" on="0"/>
      </contour>
      <contour>
        <pt x="292" y="82" on="1"/>
        <pt x="347" y="82" on="0"/>
        <pt x="384" y="103" on="1"/>
        <pt x="384" y="425" on="1"/>
        <pt x="344" y="443" on="0"/>
        <pt x="297" y="443" on="1"/>
        <pt x="201" y="443" on="0"/>
        <pt x="201" y="371" on="1"/>
        <pt x="201" y="156" on="1"/>
        <pt x="201" y="82" on="0"/>
      </contour>
    </TTGlyph>
    <TTGlyph name="degree" xMin="62" yMin="415" xMax="413" yMax="738">
      <contour>
        <pt x="239" y="415" on="1"/>
        <pt x="156" y="415" on="0"/>
        <pt x="62" y="509" on="0"/>
        <pt x="62" y="643" on="0"/>
        <pt x="156" y="738" on="0"/>
        <pt x="321" y="738" on="0"/>
        <pt x="413" y="643" on="0"/>
        <pt x="413" y="509" on="0"/>
        <pt x="321" y="415" on="0"/>
      </contour>
      <contour>
        <pt x="239" y="484" on="1"/>
        <pt x="286" y="484" on="0"/>
        <pt x="336" y="538" on="0"/>
        <pt x="336" y="615" on="0"/>
        <pt x="286" y="669" on="0"/>
        <pt x="192" y="669" on="0"/>
        <pt x="141" y="615" on="0"/>
        <pt x="141" y="538" on="0"/>
        <pt x="192" y="484" on="0"/>
      </contour>
    </TTGlyph>
    <TTGlyph name="dieresis" xMin="56" yMin="607" xMax="434" yMax="721">
      <contour>
        <pt x="305" y="607" on="1"/>
        <pt x="305" y="721" on="1"/>
        <pt x="434" y="721" on="1"/>
        <pt x="434" y="607" on="1"/>
      </contour>
      <contour>
        <pt x="56" y="607" on="1"/>
        <pt x="56" y="721" on="1"/>
        <pt x="185" y="721" on="1"/>
        <pt x="185" y="607" on="1"/>
      </contour>
    </TTGlyph>
    <TTGlyph name="divide" xMin="55" yMin="46" xMax="436" yMax="499">
      <contour>
        <pt x="190" y="387" on="1"/>
        <pt x="190" y="499" on="1"/>
        <pt x="301" y="499" on="1"/>
        <pt x="301" y="387" on="1"/>
      </contour>
      <contour>
        <pt x="55" y="234" on="1"/>
        <pt x="55" y="313" on="1"/>
        <pt x="436" y="313" on="1"/>
        <pt x="436" y="234" on="1"/>
      </contour>
      <contour>
        <pt x="190" y="46" on="1"/>
        <pt x="190" y="158" on="1"/>
        <pt x="301" y="158" on="1"/>
        <pt x="301" y="46" on="1"/>
      </contour>
    </TTGlyph>
    <TTGlyph name="dollar" xMin="59" yMin="-152" xMax="571" yMax="858">
      <contour>
        <pt x="209" y="502" on="0"/>
        <pt x="248" y="462" on="0"/>
        <pt x="300" y="446" on="1"/>
        <pt x="300" y="618" on="1"/>
        <pt x="254" y="614" on="0"/>
        <pt x="209" y="577" on="0"/>
      </contour>
      <contour>
        <pt x="438" y="233" on="0"/>
        <pt x="405" y="274" on="0"/>
        <pt x="354" y="291" on="1"/>
        <pt x="354" y="102" on="1"/>
        <pt x="403" y="106" on="0"/>
        <pt x="438" y="155" on="0"/>
      </contour>
      <contour>
        <pt x="300" y="-152" on="1"/>
        <pt x="300" y="-12" on="1"/>
        <pt x="159" y="-4" on="0"/>
        <pt x="59" y="53" on="1"/>
        <pt x="108" y="159" on="1"/>
        <pt x="203" y="110" on="0"/>
        <pt x="300" y="102" on="1"/>
        <pt x="300" y="308" on="1"/>
        <pt x="216" y="333" on="1"/>
        <pt x="133" y="358" on="0"/>
        <pt x="66" y="459" on="0"/>
        <pt x="66" y="534" on="1"/>
        <pt x="66" y="627" on="0"/>
        <pt x="195" y="729" on="0"/>
        <pt x="300" y="733" on="1"/>
        <pt x="300" y="858" on="1"/>
        <pt x="354" y="858" on="1"/>
        <pt x="354" y="732" on="1"/>
        <pt x="476" y="726" on="0"/>
        <pt x="558" y="677" on="1"/>
        <pt x="517" y="575" on="1"/>
        <pt x="435" y="613" on="0"/>
        <pt x="354" y="618" on="1"/>
        <pt x="354" y="430" on="1"/>
        <pt x="425" y="409" on="1"/>
        <pt x="499" y="387" on="0"/>
        <pt x="571" y="289" on="0"/>
        <pt x="571" y="113" on="0"/>
        <pt x="463" y="-8" on="0"/>
        <pt x="354" y="-13" on="1"/>
        <pt x="354" y="-152" on="1"/>
      </contour>
    </TTGlyph>
    <TTGlyph name="dotaccent" xMin="57" yMin="611" xMax="188" yMax="735">
      <contour>
        <pt x="57" y="611" on="1"/>
        <pt x="57" y="735" on="1"/>
        <pt x="188" y="735" on="1"/>
        <pt x="188" y="611" on="1"/>
      </contour>
    </TTGlyph>
    <TTGlyph name="dotlessi" xMin="83" yMin="0" xMax="206" yMax="524">
      <contour>
        <pt x="83" y="0" on="1"/>
        <pt x="83" y="524" on="1"/>
        <pt x="206" y="524" on="1"/>
        <pt x="206" y="0" on="1"/>
      </contour>
    </TTGlyph>
    <TTGlyph name="e" xMin="68" yMin="-11" xMax="515" yMax="536">
      <contour>
        <pt x="201" y="318" on="1"/>
        <pt x="390" y="318" on="1"/>
        <pt x="390" y="379" on="1"/>
        <pt x="390" y="419" on="0"/>
        <pt x="342" y="443" on="0"/>
        <pt x="249" y="443" on="0"/>
        <pt x="201" y="416" on="0"/>
        <pt x="201" y="377" on="1"/>
      </contour>
      <contour>
        <pt x="294" y="-11" on="1"/>
        <pt x="68" y="-11" on="0"/>
        <pt x="68" y="164" on="1"/>
        <pt x="68" y="369" on="1"/>
        <pt x="68" y="448" on="0"/>
        <pt x="189" y="536" on="0"/>
        <pt x="292" y="536" on="1"/>
        <pt x="515" y="536" on="0"/>
        <pt x="515" y="364" on="1"/>
        <pt x="515" y="237" on="1"/>
        <pt x="201" y="237" on="1"/>
        <pt x="201" y="151" on="1"/>
        <pt x="201" y="107" on="0"/>
        <pt x="244" y="81" on="0"/>
        <pt x="324" y="81" on="0"/>
        <pt x="350" y="84" on="0"/>
        <pt x="380" y="98" on="0"/>
        <pt x="391" y="132" on="0"/>
        <pt x="392" y="161" on="1"/>
        <pt x="515" y="161" on="1"/>
        <pt x="512" y="58" on="0"/>
        <pt x="407" y="-11" on="0"/>
      </contour>
    </TTGlyph>
    <TTGlyph name="eacute" xMin="68" yMin="-11" xMax="515" yMax="773">
      <component glyphName="e" x="0" y="0" flags="0x1004"/>
      <component glyphName="acute" x="220" y="0" flags="0x1004"/>
    </TTGlyph>
    <TTGlyph name="ebreve" xMin="68" yMin="-11" xMax="515" yMax="721">
      <component glyphName="e" x="0" y="0" flags="0x1004"/>
      <component glyphName="breve" x="171" y="0" flags="0x1004"/>
    </TTGlyph>
    <TTGlyph name="ecaron" xMin="68" yMin="-11" xMax="515" yMax="739">
      <component glyphName="e" x="0" y="0" flags="0x1004"/>
      <component glyphName="caron" x="171" y="0" flags="0x1004"/>
    </TTGlyph>
    <TTGlyph name="ecircumflex" xMin="68" yMin="-11" xMax="515" yMax="739">
      <component glyphName="e" x="0" y="0" flags="0x1004"/>
      <component glyphName="circumflex" x="171" y="0" flags="0x1004"/>
    </TTGlyph>
    <TTGlyph name="edieresis" xMin="68" yMin="-11" xMax="515" yMax="721">
      <component glyphName="e" x="0" y="0" flags="0x1004"/>
      <component glyphName="dieresis" x="60" y="0" flags="0x1004"/>
    </TTGlyph>
    <TTGlyph name="edotaccent" xMin="68" yMin="-11" xMax="515" yMax="735">
      <component glyphName="e" x="0" y="0" flags="0x1004"/>
      <component glyphName="dotaccent" x="176" y="0" flags="0x1004"/>
    </TTGlyph>
    <TTGlyph name="egrave" xMin="68" yMin="-11" xMax="515" yMax="773">
      <component glyphName="grave" x="108" y="0" flags="0x1004"/>
      <component glyphName="e" x="0" y="0" flags="0x1004"/>
    </TTGlyph>
    <TTGlyph name="eight" xMin="70" yMin="-10" xMax="604" yMax="730">
      <contour>
        <pt x="220" y="546" on="1"/>
        <pt x="220" y="507" on="0"/>
        <pt x="272" y="455" on="0"/>
        <pt x="336" y="424" on="1"/>
        <pt x="398" y="455" on="0"/>
        <pt x="451" y="509" on="0"/>
        <pt x="451" y="546" on="1"/>
        <pt x="451" y="629" on="0"/>
        <pt x="220" y="629" on="0"/>
      </contour>
      <contour>
        <pt x="336" y="94" on="1"/>
        <pt x="468" y="94" on="0"/>
        <pt x="468" y="191" on="1"/>
        <pt x="468" y="271" on="0"/>
        <pt x="336" y="328" on="1"/>
        <pt x="204" y="271" on="0"/>
        <pt x="204" y="191" on="1"/>
        <pt x="204" y="94" on="0"/>
      </contour>
      <contour>
        <pt x="335" y="-10" on="1"/>
        <pt x="210" y="-10" on="0"/>
        <pt x="70" y="92" on="0"/>
        <pt x="70" y="182" on="1"/>
        <pt x="70" y="315" on="0"/>
        <pt x="223" y="382" on="1"/>
        <pt x="83" y="427" on="0"/>
        <pt x="83" y="554" on="1"/>
        <pt x="83" y="633" on="0"/>
        <pt x="208" y="730" on="0"/>
        <pt x="465" y="730" on="0"/>
        <pt x="585" y="632" on="0"/>
        <pt x="585" y="551" on="1"/>
        <pt x="585" y="495" on="0"/>
        <pt x="514" y="405" on="0"/>
        <pt x="441" y="382" on="1"/>
        <pt x="604" y="322" on="0"/>
        <pt x="604" y="183" on="1"/>
        <pt x="604" y="90" on="0"/>
        <pt x="464" y="-10" on="0"/>
      </contour>
    </TTGlyph>
    <TTGlyph name="ellipsis" xMin="51" yMin="0" xMax="783" yMax="139">
      <component glyphName="period" x="557" y="0" flags="0x1004"/>
      <component glyphName="period" x="265" y="0" flags="0x1004"/>
      <component glyphName="period" x="-29" y="0" flags="0x1004"/>
    </TTGlyph>
    <TTGlyph name="emacron" xMin="68" yMin="-11" xMax="515" yMax="688">
      <component glyphName="macron" x="176" y="0" flags="0x1004"/>
      <component glyphName="e" x="0" y="0" flags="0x1004"/>
    </TTGlyph>
    <TTGlyph name="emdash" xMin="1" yMin="187" xMax="467" yMax="271">
      <contour>
        <pt x="1" y="187" on="1"/>
        <pt x="1" y="271" on="1"/>
        <pt x="467" y="271" on="1"/>
        <pt x="467" y="187" on="1"/>
      </contour>
    </TTGlyph>
    <TTGlyph name="emptyset" xMin="78" yMin="-3" xMax="680" yMax="661">
      <contour>
        <pt x="379" y="32" on="1"/>
        <pt x="287" y="32" on="0"/>
        <pt x="211" y="81" on="1"/>
        <pt x="211" y="81" on="0"/>
        <pt x="140" y="-3" on="1"/>
        <pt x="97" y="34" on="1"/>
        <pt x="167" y="117" on="1"/>
        <pt x="78" y="204" on="0"/>
        <pt x="78" y="460" on="0"/>
        <pt x="252" y="633" on="0"/>
        <pt x="379" y="633" on="1"/>
        <pt x="476" y="633" on="0"/>
        <pt x="554" y="579" on="1"/>
        <pt x="554" y="579" on="0"/>
        <pt x="623" y="661" on="1"/>
        <pt x="666" y="624" on="1"/>
        <pt x="598" y="542" on="1"/>
        <pt x="680" y="457" on="0"/>
        <pt x="680" y="205" on="0"/>
        <pt x="507" y="32" on="0"/>
      </contour>
      <contour>
        <pt x="552" y="489" on="1"/>
        <pt x="552" y="489" on="0"/>
        <pt x="256" y="135" on="1"/>
        <pt x="310" y="101" on="0"/>
        <pt x="380" y="101" on="1"/>
        <pt x="479" y="101" on="0"/>
        <pt x="607" y="233" on="0"/>
        <pt x="607" y="425" on="0"/>
      </contour>
      <contour>
        <pt x="212" y="171" on="1"/>
        <pt x="510" y="526" on="1"/>
        <pt x="452" y="565" on="0"/>
        <pt x="380" y="565" on="1"/>
        <pt x="281" y="565" on="0"/>
        <pt x="151" y="432" on="0"/>
        <pt x="151" y="237" on="0"/>
      </contour>
    </TTGlyph>
    <TTGlyph name="endash" xMin="62" yMin="218" xMax="287" yMax="299">
      <contour>
        <pt x="62" y="218" on="1"/>
        <pt x="62" y="299" on="1"/>
        <pt x="287" y="299" on="1"/>
        <pt x="287" y="218" on="1"/>
      </contour>
    </TTGlyph>
    <TTGlyph name="eng" xMin="78" yMin="-178" xMax="538" yMax="536">
      <contour>
        <pt x="538" y="87" on="1"/>
        <pt x="538" y="-58" on="0"/>
        <pt x="427" y="-178" on="0"/>
        <pt x="270" y="-178" on="1"/>
        <pt x="256" y="-85" on="1"/>
        <pt x="317" y="-80" on="0"/>
        <pt x="347" y="-70" on="1"/>
        <pt x="368" y="-63" on="0"/>
        <pt x="384" y="-44" on="0"/>
        <pt x="405" y="3" on="0"/>
        <pt x="405" y="84" on="1"/>
        <pt x="405" y="375" on="1"/>
        <pt x="405" y="443" on="0"/>
        <pt x="313" y="443" on="1"/>
        <pt x="273" y="443" on="0"/>
        <pt x="211" y="406" on="0"/>
        <pt x="211" y="370" on="1"/>
        <pt x="211" y="0" on="1"/>
        <pt x="78" y="0" on="1"/>
        <pt x="78" y="524" on="1"/>
        <pt x="211" y="524" on="1"/>
        <pt x="211" y="463" on="1"/>
        <pt x="228" y="494" on="0"/>
        <pt x="316" y="536" on="0"/>
        <pt x="369" y="536" on="1"/>
        <pt x="445" y="536" on="0"/>
        <pt x="538" y="454" on="0"/>
        <pt x="538" y="388" on="1"/>
      </contour>
    </TTGlyph>
    <TTGlyph name="eogonek" xMin="68" yMin="-248" xMax="515" yMax="536">
      <component glyphName="ogonek" x="215" y="0" flags="0x1004"/>
      <component glyphName="e" x="0" y="0" flags="0x1004"/>
    </TTGlyph>
    <TTGlyph name="equal" xMin="55" yMin="181" xMax="375" yMax="446">
      <contour>
        <pt x="55" y="361" on="1"/>
        <pt x="55" y="446" on="1"/>
        <pt x="375" y="446" on="1"/>
        <pt x="375" y="361" on="1"/>
      </contour>
      <contour>
        <pt x="55" y="181" on="1"/>
        <pt x="55" y="266" on="1"/>
        <pt x="375" y="266" on="1"/>
        <pt x="375" y="181" on="1"/>
      </contour>
    </TTGlyph>
    <TTGlyph name="estimated" xMin="46" yMin="87" xMax="542" yMax="625">
      <contour>
        <pt x="46" y="356" on="1"/>
        <pt x="46" y="471" on="0"/>
        <pt x="195" y="625" on="0"/>
        <pt x="425" y="625" on="0"/>
        <pt x="542" y="475" on="0"/>
        <pt x="542" y="342" on="1"/>
        <pt x="182" y="342" on="1"/>
        <pt x="182" y="208" on="1"/>
        <pt x="234" y="148" on="0"/>
        <pt x="424" y="148" on="0"/>
        <pt x="497" y="227" on="1"/>
        <pt x="538" y="188" on="1"/>
        <pt x="454" y="87" on="0"/>
        <pt x="188" y="87" on="0"/>
        <pt x="46" y="235" on="0"/>
      </contour>
      <contour>
        <pt x="311" y="573" on="1"/>
        <pt x="224" y="573" on="0"/>
        <pt x="178" y="515" on="1"/>
        <pt x="178" y="395" on="1"/>
        <pt x="439" y="395" on="1"/>
        <pt x="439" y="515" on="1"/>
        <pt x="397" y="573" on="0"/>
      </contour>
    </TTGlyph>
    <TTGlyph name="eth" xMin="81" yMin="-11" xMax="576" yMax="808">
      <contour>
        <pt x="331" y="87" on="1"/>
        <pt x="404" y="87" on="0"/>
        <pt x="444" y="140" on="0"/>
        <pt x="444" y="296" on="0"/>
        <pt x="433" y="359" on="1"/>
        <pt x="418" y="370" on="0"/>
        <pt x="354" y="387" on="0"/>
        <pt x="331" y="387" on="1"/>
        <pt x="217" y="387" on="0"/>
        <pt x="217" y="299" on="1"/>
        <pt x="217" y="163" on="1"/>
        <pt x="217" y="122" on="0"/>
        <pt x="269" y="87" on="0"/>
      </contour>
      <contour>
        <pt x="331" y="-11" on="1"/>
        <pt x="206" y="-11" on="0"/>
        <pt x="81" y="83" on="0"/>
        <pt x="81" y="167" on="1"/>
        <pt x="81" y="302" on="1"/>
        <pt x="81" y="383" on="0"/>
        <pt x="204" y="476" on="0"/>
        <pt x="303" y="476" on="1"/>
        <pt x="328" y="476" on="0"/>
        <pt x="413" y="458" on="0"/>
        <pt x="422" y="450" on="1"/>
        <pt x="414" y="524" on="0"/>
        <pt x="343" y="613" on="0"/>
        <pt x="294" y="627" on="1"/>
        <pt x="250" y="542" on="1"/>
        <pt x="192" y="570" on="1"/>
        <pt x="230" y="644" on="1"/>
        <pt x="182" y="652" on="0"/>
        <pt x="114" y="652" on="1"/>
        <pt x="114" y="652" on="0"/>
        <pt x="125" y="733" on="1"/>
        <pt x="151" y="735" on="0"/>
        <pt x="225" y="735" on="0"/>
        <pt x="270" y="725" on="1"/>
        <pt x="312" y="808" on="1"/>
        <pt x="370" y="780" on="1"/>
        <pt x="334" y="707" on="1"/>
        <pt x="433" y="679" on="0"/>
        <pt x="500" y="582" on="1"/>
        <pt x="576" y="474" on="0"/>
        <pt x="576" y="262" on="1"/>
        <pt x="576" y="225" on="1"/>
        <pt x="576" y="118" on="0"/>
        <pt x="462" y="-11" on="0"/>
      </contour>
    </TTGlyph>
    <TTGlyph name="exclam" xMin="94" yMin="0" xMax="223" yMax="721">
      <contour>
        <pt x="223" y="721" on="1"/>
        <pt x="223" y="663" on="0"/>
        <pt x="174" y="200" on="1"/>
        <pt x="137" y="200" on="1"/>
        <pt x="126" y="318" on="1"/>
        <pt x="96" y="659" on="0"/>
        <pt x="96" y="721" on="1"/>
      </contour>
      <contour>
        <pt x="94" y="0" on="1"/>
        <pt x="94" y="120" on="1"/>
        <pt x="216" y="120" on="1"/>
        <pt x="216" y="0" on="1"/>
      </contour>
    </TTGlyph>
    <TTGlyph name="exclamdown" xMin="93" yMin="-197" xMax="222" yMax="524">
      <component glyphName="exclam" x="316" y="524" scale="-1.0" flags="0x1004"/>
    </TTGlyph>
    <TTGlyph name="f" xMin="42" yMin="0" xMax="354" yMax="740">
      <contour>
        <pt x="112" y="0" on="1"/>
        <pt x="112" y="440" on="1"/>
        <pt x="42" y="440" on="1"/>
        <pt x="42" y="524" on="1"/>
        <pt x="112" y="524" on="1"/>
        <pt x="112" y="549" on="1"/>
        <pt x="112" y="645" on="0"/>
        <pt x="197" y="740" on="0"/>
        <pt x="289" y="740" on="1"/>
        <pt x="350" y="740" on="1"/>
        <pt x="354" y="648" on="1"/>
        <pt x="312" y="648" on="1"/>
        <pt x="273" y="648" on="0"/>
        <pt x="245" y="611" on="0"/>
        <pt x="245" y="579" on="1"/>
        <pt x="245" y="524" on="1"/>
        <pt x="349" y="524" on="1"/>
        <pt x="349" y="440" on="1"/>
        <pt x="245" y="440" on="1"/>
        <pt x="245" y="0" on="1"/>
      </contour>
    </TTGlyph>
    <TTGlyph name="f_f" xMin="42" yMin="0" xMax="712" yMax="740">
      <component glyphName="f" x="358" y="0" flags="0x1004"/>
      <component glyphName="f" x="0" y="0" flags="0x1004"/>
    </TTGlyph>
    <TTGlyph name="f_f_i" xMin="42" yMin="0" xMax="947" yMax="740">
      <component glyphName="i" x="737" y="0" flags="0x1004"/>
      <component glyphName="f" x="358" y="0" flags="0x1004"/>
      <component glyphName="f" x="0" y="0" flags="0x1004"/>
    </TTGlyph>
    <TTGlyph name="f_f_l" xMin="42" yMin="-6" xMax="1063" yMax="740">
      <component glyphName="l" x="737" y="0" flags="0x1004"/>
      <component glyphName="f" x="358" y="0" flags="0x1004"/>
      <component glyphName="f" x="0" y="0" flags="0x1004"/>
    </TTGlyph>
    <TTGlyph name="five" xMin="91" yMin="-10" xMax="622" yMax="721">
      <contour>
        <pt x="350" y="-10" on="1"/>
        <pt x="274" y="-10" on="0"/>
        <pt x="128" y="36" on="0"/>
        <pt x="91" y="62" on="1"/>
        <pt x="129" y="159" on="1"/>
        <pt x="229" y="99" on="0"/>
        <pt x="342" y="99" on="1"/>
        <pt x="480" y="99" on="0"/>
        <pt x="480" y="231" on="1"/>
        <pt x="480" y="283" on="0"/>
        <pt x="413" y="345" on="0"/>
        <pt x="362" y="345" on="1"/>
        <pt x="273" y="345" on="0"/>
        <pt x="221" y="295" on="1"/>
        <pt x="116" y="347" on="1"/>
        <pt x="156" y="721" on="1"/>
        <pt x="567" y="721" on="1"/>
        <pt x="567" y="601" on="1"/>
        <pt x="265" y="601" on="1"/>
        <pt x="245" y="423" on="1"/>
        <pt x="288" y="467" on="0"/>
        <pt x="495" y="467" on="0"/>
        <pt x="622" y="332" on="0"/>
        <pt x="622" y="122" on="0"/>
        <pt x="474" y="-10" on="0"/>
      </contour>
    </TTGlyph>
    <TTGlyph name="florin" xMin="118" yMin="-100" xMax="384" yMax="730">
      <contour>
        <pt x="354" y="658" on="1"/>
        <pt x="321" y="658" on="0"/>
        <pt x="300" y="622" on="0"/>
        <pt x="300" y="589" on="1"/>
        <pt x="300" y="470" on="1"/>
        <pt x="384" y="470" on="1"/>
        <pt x="384" y="412" on="1"/>
        <pt x="300" y="412" on="1"/>
        <pt x="300" y="49" on="1"/>
        <pt x="300" y="-19" on="0"/>
        <pt x="282" y="-56" on="1"/>
        <pt x="259" y="-100" on="0"/>
        <pt x="179" y="-100" on="1"/>
        <pt x="153" y="-100" on="0"/>
        <pt x="118" y="-96" on="1"/>
        <pt x="118" y="-24" on="1"/>
        <pt x="136" y="-27" on="0"/>
        <pt x="179" y="-27" on="0"/>
        <pt x="200" y="5" on="0"/>
        <pt x="200" y="36" on="1"/>
        <pt x="200" y="412" on="1"/>
        <pt x="128" y="412" on="1"/>
        <pt x="128" y="470" on="1"/>
        <pt x="200" y="470" on="1"/>
        <pt x="200" y="577" on="1"/>
        <pt x="200" y="654" on="0"/>
        <pt x="246" y="730" on="0"/>
        <pt x="323" y="730" on="1"/>
        <pt x="356" y="730" on="0"/>
        <pt x="382" y="727" on="1"/>
        <pt x="382" y="655" on="1"/>
      </contour>
    </TTGlyph>
    <TTGlyph name="foundryicon" xMin="17" yMin="1" xMax="641" yMax="593">
      <contour>
        <pt x="137" y="1" on="1"/>
        <pt x="207" y="225" on="1"/>
        <pt x="17" y="369" on="1"/>
        <pt x="253" y="369" on="1"/>
        <pt x="327" y="593" on="1"/>
        <pt x="404" y="369" on="1"/>
        <pt x="641" y="369" on="1"/>
        <pt x="450" y="225" on="1"/>
        <pt x="521" y="1" on="1"/>
        <pt x="327" y="136" on="1"/>
      </contour>
      <contour>
        <pt x="237" y="198" on="1"/>
        <pt x="289" y="198" on="1"/>
        <pt x="289" y="270" on="1"/>
        <pt x="372" y="198" on="1"/>
        <pt x="423" y="198" on="1"/>
        <pt x="423" y="328" on="1"/>
        <pt x="372" y="328" on="1"/>
        <pt x="372" y="255" on="1"/>
        <pt x="289" y="328" on="1"/>
        <pt x="237" y="328" on="1"/>
      </contour>
    </TTGlyph>
    <TTGlyph name="four" xMin="83" yMin="0" xMax="633" yMax="721">
      <contour>
        <pt x="410" y="0" on="1"/>
        <pt x="410" y="138" on="1"/>
        <pt x="83" y="138" on="1"/>
        <pt x="83" y="259" on="1"/>
        <pt x="302" y="721" on="1"/>
        <pt x="451" y="721" on="1"/>
        <pt x="241" y="258" on="1"/>
        <pt x="410" y="258" on="1"/>
        <pt x="410" y="421" on="1"/>
        <pt x="525" y="421" on="1"/>
        <pt x="525" y="258" on="1"/>
        <pt x="633" y="258" on="1"/>
        <pt x="633" y="138" on="1"/>
        <pt x="525" y="138" on="1"/>
        <pt x="525" y="0" on="1"/>
      </contour>
    </TTGlyph>
    <TTGlyph name="fraction" xMin="27" yMin="0" xMax="422" yMax="740">
      <contour>
        <pt x="27" y="0" on="1"/>
        <pt x="304" y="740" on="1"/>
        <pt x="422" y="740" on="1"/>
        <pt x="146" y="0" on="1"/>
      </contour>
    </TTGlyph>
    <TTGlyph name="g" xMin="68" yMin="-215" xMax="525" yMax="536">
      <contour>
        <pt x="295" y="104" on="1"/>
        <pt x="360" y="104" on="0"/>
        <pt x="392" y="127" on="1"/>
        <pt x="392" y="406" on="1"/>
        <pt x="392" y="418" on="0"/>
        <pt x="336" y="443" on="0"/>
        <pt x="295" y="443" on="1"/>
        <pt x="201" y="443" on="0"/>
        <pt x="201" y="370" on="1"/>
        <pt x="201" y="174" on="1"/>
        <pt x="201" y="104" on="0"/>
      </contour>
      <contour>
        <pt x="288" y="-215" on="1"/>
        <pt x="170" y="-215" on="0"/>
        <pt x="115" y="-188" on="1"/>
        <pt x="142" y="-98" on="1"/>
        <pt x="212" y="-118" on="0"/>
        <pt x="340" y="-118" on="0"/>
        <pt x="392" y="-69" on="0"/>
        <pt x="392" y="-15" on="1"/>
        <pt x="392" y="43" on="1"/>
        <pt x="348" y="16" on="0"/>
        <pt x="178" y="16" on="0"/>
        <pt x="68" y="102" on="0"/>
        <pt x="68" y="179" on="1"/>
        <pt x="68" y="367" on="1"/>
        <pt x="68" y="441" on="0"/>
        <pt x="164" y="536" on="0"/>
        <pt x="355" y="536" on="0"/>
        <pt x="415" y="487" on="1"/>
        <pt x="426" y="525" on="1"/>
        <pt x="525" y="525" on="1"/>
        <pt x="525" y="-6" on="1"/>
        <pt x="525" y="-215" on="0"/>
      </contour>
    </TTGlyph>
    <TTGlyph name="gbreve" xMin="68" yMin="-215" xMax="525" yMax="721">
      <component glyphName="g" x="0" y="0" flags="0x1004"/>
      <component glyphName="breve" x="152" y="0" flags="0x1004"/>
    </TTGlyph>
    <TTGlyph name="gcaron" xMin="68" yMin="-215" xMax="525" yMax="739">
      <component glyphName="g" x="0" y="0" flags="0x1004"/>
      <component glyphName="caron" x="152" y="0" flags="0x1004"/>
    </TTGlyph>
    <TTGlyph name="gcircumflex" xMin="68" yMin="-215" xMax="525" yMax="739">
      <component glyphName="g" x="0" y="0" flags="0x1004"/>
      <component glyphName="circumflex" x="152" y="0" flags="0x1004"/>
    </TTGlyph>
    <TTGlyph name="gdotaccent" xMin="68" yMin="-215" xMax="525" yMax="735">
      <component glyphName="g" x="0" y="0" flags="0x1004"/>
      <component glyphName="dotaccent" x="157" y="0" flags="0x1004"/>
    </TTGlyph>
    <TTGlyph name="germandbls" xMin="68" yMin="-10" xMax="592" yMax="736">
      <contour>
        <pt x="68" y="0" on="1"/>
        <pt x="68" y="546" on="1"/>
        <pt x="68" y="634" on="0"/>
        <pt x="185" y="736" on="0"/>
        <pt x="427" y="736" on="0"/>
        <pt x="544" y="633" on="0"/>
        <pt x="544" y="548" on="1"/>
        <pt x="544" y="497" on="0"/>
        <pt x="486" y="416" on="0"/>
        <pt x="429" y="400" on="1"/>
        <pt x="592" y="366" on="0"/>
        <pt x="592" y="195" on="1"/>
        <pt x="592" y="100" on="0"/>
        <pt x="453" y="-10" on="0"/>
        <pt x="304" y="-10" on="1"/>
        <pt x="295" y="83" on="1"/>
        <pt x="382" y="83" on="0"/>
        <pt x="451" y="144" on="0"/>
        <pt x="451" y="284" on="0"/>
        <pt x="385" y="335" on="0"/>
        <pt x="302" y="343" on="1"/>
        <pt x="302" y="436" on="1"/>
        <pt x="408" y="436" on="0"/>
        <pt x="408" y="542" on="1"/>
        <pt x="408" y="587" on="0"/>
        <pt x="368" y="644" on="0"/>
        <pt x="259" y="644" on="0"/>
        <pt x="220" y="597" on="0"/>
        <pt x="220" y="551" on="1"/>
        <pt x="220" y="0" on="1"/>
      </contour>
    </TTGlyph>
    <TTGlyph name="grave" xMin="37" yMin="595" xMax="224" yMax="773">
      <contour>
        <pt x="37" y="773" on="1"/>
        <pt x="168" y="773" on="1"/>
        <pt x="224" y="595" on="1"/>
        <pt x="151" y="595" on="1"/>
      </contour>
    </TTGlyph>
    <TTGlyph name="greater" xMin="74" yMin="15" xMax="438" yMax="528">
      <contour>
        <pt x="74" y="15" on="1"/>
        <pt x="74" y="127" on="1"/>
        <pt x="349" y="271" on="1"/>
        <pt x="74" y="414" on="1"/>
        <pt x="74" y="528" on="1"/>
        <pt x="438" y="325" on="1"/>
        <pt x="438" y="218" on="1"/>
      </contour>
    </TTGlyph>
    <TTGlyph name="greaterequal" xMin="90" yMin="0" xMax="521" yMax="628">
      <contour>
        <pt x="90" y="0" on="1"/>
        <pt x="90" y="85" on="1"/>
        <pt x="521" y="85" on="1"/>
        <pt x="521" y="0" on="1"/>
      </contour>
      <contour>
        <pt x="120" y="115" on="1"/>
        <pt x="120" y="227" on="1"/>
        <pt x="395" y="372" on="1"/>
        <pt x="120" y="514" on="1"/>
        <pt x="120" y="628" on="1"/>
        <pt x="482" y="425" on="1"/>
        <pt x="482" y="318" on="1"/>
      </contour>
    </TTGlyph>
    <TTGlyph name="guillemotleft" xMin="33" yMin="39" xMax="439" yMax="479">
      <contour>
        <pt x="372" y="39" on="1"/>
        <pt x="235" y="259" on="1"/>
        <pt x="368" y="479" on="1"/>
        <pt x="439" y="444" on="1"/>
        <pt x="339" y="259" on="1"/>
        <pt x="439" y="73" on="1"/>
      </contour>
      <contour>
        <pt x="169" y="39" on="1"/>
        <pt x="33" y="259" on="1"/>
        <pt x="166" y="479" on="1"/>
        <pt x="238" y="444" on="1"/>
        <pt x="137" y="259" on="1"/>
        <pt x="238" y="73" on="1"/>
      </contour>
    </TTGlyph>
    <TTGlyph name="guillemotright" xMin="75" yMin="39" xMax="481" yMax="479">
      <contour>
        <pt x="348" y="39" on="1"/>
        <pt x="276" y="73" on="1"/>
        <pt x="377" y="259" on="1"/>
        <pt x="276" y="444" on="1"/>
        <pt x="345" y="479" on="1"/>
        <pt x="481" y="259" on="1"/>
      </contour>
      <contour>
        <pt x="146" y="39" on="1"/>
        <pt x="75" y="73" on="1"/>
        <pt x="175" y="259" on="1"/>
        <pt x="75" y="444" on="1"/>
        <pt x="143" y="479" on="1"/>
        <pt x="279" y="259" on="1"/>
      </contour>
    </TTGlyph>
    <TTGlyph name="guilsinglleft" xMin="85" yMin="39" xMax="290" yMax="479">
      <contour>
        <pt x="222" y="39" on="1"/>
        <pt x="85" y="259" on="1"/>
        <pt x="218" y="479" on="1"/>
        <pt x="290" y="444" on="1"/>
        <pt x="189" y="259" on="1"/>
        <pt x="290" y="73" on="1"/>
      </contour>
    </TTGlyph>
    <TTGlyph name="guilsinglright" xMin="88" yMin="39" xMax="293" yMax="479">
      <contour>
        <pt x="160" y="39" on="1"/>
        <pt x="88" y="73" on="1"/>
        <pt x="189" y="259" on="1"/>
        <pt x="88" y="444" on="1"/>
        <pt x="156" y="479" on="1"/>
        <pt x="293" y="259" on="1"/>
      </contour>
    </TTGlyph>
    <TTGlyph name="h" xMin="83" yMin="0" xMax="542" yMax="740">
      <contour>
        <pt x="83" y="0" on="1"/>
        <pt x="83" y="740" on="1"/>
        <pt x="216" y="740" on="1"/>
        <pt x="216" y="474" on="1"/>
        <pt x="232" y="502" on="0"/>
        <pt x="325" y="536" on="0"/>
        <pt x="455" y="536" on="0"/>
        <pt x="542" y="455" on="0"/>
        <pt x="542" y="388" on="1"/>
        <pt x="542" y="0" on="1"/>
        <pt x="409" y="0" on="1"/>
        <pt x="409" y="369" on="1"/>
        <pt x="409" y="437" on="0"/>
        <pt x="320" y="437" on="1"/>
        <pt x="280" y="437" on="0"/>
        <pt x="216" y="396" on="0"/>
        <pt x="216" y="360" on="1"/>
        <pt x="216" y="0" on="1"/>
      </contour>
    </TTGlyph>
    <TTGlyph name="hbar" xMin="2" yMin="0" xMax="542" yMax="740">
      <contour>
        <pt x="83" y="0" on="1"/>
        <pt x="83" y="596" on="1"/>
        <pt x="2" y="596" on="1"/>
        <pt x="2" y="666" on="1"/>
        <pt x="83" y="666" on="1"/>
        <pt x="83" y="740" on="1"/>
        <pt x="216" y="740" on="1"/>
        <pt x="216" y="666" on="1"/>
        <pt x="359" y="666" on="1"/>
        <pt x="359" y="596" on="1"/>
        <pt x="216" y="596" on="1"/>
        <pt x="216" y="474" on="1"/>
        <pt x="232" y="502" on="0"/>
        <pt x="325" y="536" on="0"/>
        <pt x="455" y="536" on="0"/>
        <pt x="542" y="455" on="0"/>
        <pt x="542" y="388" on="1"/>
        <pt x="542" y="0" on="1"/>
        <pt x="409" y="0" on="1"/>
        <pt x="409" y="369" on="1"/>
        <pt x="409" y="437" on="0"/>
        <pt x="320" y="437" on="1"/>
        <pt x="280" y="437" on="0"/>
        <pt x="216" y="396" on="0"/>
        <pt x="216" y="360" on="1"/>
        <pt x="216" y="0" on="1"/>
      </contour>
    </TTGlyph>
    <TTGlyph name="hcircumflex" xMin="83" yMin="0" xMax="558" yMax="852">
      <component glyphName="h" x="0" y="0" flags="0x1004"/>
      <component glyphName="circumflex" x="270" y="113" flags="0x1004"/>
    </TTGlyph>
    <TTGlyph name="hungarumlaut" xMin="52" yMin="565" xMax="438" yMax="743">
      <contour>
        <pt x="252" y="565" on="1"/>
        <pt x="308" y="743" on="1"/>
        <pt x="438" y="743" on="1"/>
        <pt x="325" y="565" on="1"/>
      </contour>
      <contour>
        <pt x="52" y="565" on="1"/>
        <pt x="107" y="743" on="1"/>
        <pt x="238" y="743" on="1"/>
        <pt x="125" y="565" on="1"/>
      </contour>
    </TTGlyph>
    <TTGlyph name="hyphen" xMin="64" yMin="241" xMax="408" yMax="313">
      <contour>
        <pt x="64" y="241" on="1"/>
        <pt x="64" y="313" on="1"/>
        <pt x="408" y="313" on="1"/>
        <pt x="408" y="241" on="1"/>
      </contour>
    </TTGlyph>
    <TTGlyph name="i" xMin="79" yMin="0" xMax="210" yMax="735">
      <component glyphName="dotlessi" x="0" y="0" flags="0x1004"/>
      <component glyphName="dotaccent" x="22" y="0" flags="0x1004"/>
    </TTGlyph>
    <TTGlyph name="iacute" xMin="83" yMin="0" xMax="304" yMax="773">
      <component glyphName="dotlessi" x="0" y="0" flags="0x1004"/>
      <component glyphName="acute" x="66" y="0" flags="0x1004"/>
    </TTGlyph>
    <TTGlyph name="ibreve" xMin="18" yMin="0" xMax="268" yMax="721">
      <component glyphName="dotlessi" x="0" y="0" flags="0x1004"/>
      <component glyphName="breve" x="18" y="0" flags="0x1004"/>
    </TTGlyph>
    <TTGlyph name="icircumflex" xMin="-16" yMin="0" xMax="306" yMax="739">
      <component glyphName="dotlessi" x="0" y="0" flags="0x1004"/>
      <component glyphName="circumflex" x="18" y="0" flags="0x1004"/>
    </TTGlyph>
    <TTGlyph name="idieresis" xMin="-38" yMin="0" xMax="340" yMax="721">
      <component glyphName="dotlessi" x="0" y="0" flags="0x1004"/>
      <component glyphName="dieresis" x="-94" y="0" flags="0x1004"/>
    </TTGlyph>
    <TTGlyph name="igrave" xMin="-9" yMin="0" xMax="206" yMax="773">
      <component glyphName="grave" x="-46" y="0" flags="0x1004"/>
      <component glyphName="dotlessi" x="0" y="0" flags="0x1004"/>
    </TTGlyph>
    <TTGlyph name="ij" xMin="79" yMin="-161" xMax="522" yMax="735">
      <component glyphName="j" x="278" y="0" flags="0x1004"/>
      <component glyphName="i" x="0" y="0" flags="0x1004"/>
    </TTGlyph>
    <TTGlyph name="imacron" xMin="-1" yMin="0" xMax="294" yMax="688">
      <component glyphName="macron" x="22" y="0" flags="0x1004"/>
      <component glyphName="dotlessi" x="0" y="0" flags="0x1004"/>
    </TTGlyph>
    <TTGlyph name="infinity" xMin="106" yMin="176" xMax="894" yMax="571">
      <contour>
        <pt x="743" y="290" on="1"/>
        <pt x="815" y="290" on="0"/>
        <pt x="815" y="458" on="0"/>
        <pt x="743" y="458" on="1"/>
        <pt x="716" y="458" on="0"/>
        <pt x="624" y="406" on="1"/>
        <pt x="582" y="382" on="0"/>
        <pt x="566" y="374" on="1"/>
        <pt x="582" y="366" on="0"/>
        <pt x="716" y="290" on="0"/>
      </contour>
      <contour>
        <pt x="257" y="290" on="1"/>
        <pt x="284" y="290" on="0"/>
        <pt x="376" y="342" on="1"/>
        <pt x="418" y="366" on="0"/>
        <pt x="434" y="374" on="1"/>
        <pt x="418" y="382" on="0"/>
        <pt x="284" y="458" on="0"/>
        <pt x="257" y="458" on="1"/>
        <pt x="185" y="458" on="0"/>
        <pt x="185" y="290" on="0"/>
      </contour>
      <contour>
        <pt x="248" y="176" on="1"/>
        <pt x="186" y="176" on="0"/>
        <pt x="106" y="281" on="0"/>
        <pt x="106" y="467" on="0"/>
        <pt x="186" y="571" on="0"/>
        <pt x="248" y="571" on="1"/>
        <pt x="288" y="571" on="0"/>
        <pt x="423" y="500" on="0"/>
        <pt x="482" y="458" on="0"/>
        <pt x="500" y="444" on="1"/>
        <pt x="518" y="457" on="1"/>
        <pt x="535" y="470" on="0"/>
        <pt x="564" y="489" on="1"/>
        <pt x="686" y="571" on="0"/>
        <pt x="752" y="571" on="1"/>
        <pt x="814" y="571" on="0"/>
        <pt x="894" y="467" on="0"/>
        <pt x="894" y="281" on="0"/>
        <pt x="814" y="176" on="0"/>
        <pt x="752" y="176" on="1"/>
        <pt x="712" y="176" on="0"/>
        <pt x="577" y="247" on="0"/>
        <pt x="518" y="289" on="0"/>
        <pt x="500" y="303" on="1"/>
        <pt x="457" y="272" on="1"/>
        <pt x="414" y="240" on="0"/>
        <pt x="288" y="176" on="0"/>
      </contour>
    </TTGlyph>
    <TTGlyph name="integral" xMin="25" yMin="-128" xMax="290" yMax="704">
      <contour>
        <pt x="261" y="631" on="1"/>
        <pt x="228" y="631" on="0"/>
        <pt x="208" y="596" on="0"/>
        <pt x="208" y="562" on="1"/>
        <pt x="208" y="21" on="1"/>
        <pt x="208" y="-15" on="0"/>
        <pt x="201" y="-61" on="0"/>
        <pt x="189" y="-84" on="1"/>
        <pt x="165" y="-128" on="0"/>
        <pt x="86" y="-128" on="1"/>
        <pt x="60" y="-128" on="0"/>
        <pt x="25" y="-124" on="1"/>
        <pt x="25" y="-52" on="1"/>
        <pt x="49" y="-56" on="0"/>
        <pt x="57" y="-56" on="1"/>
        <pt x="87" y="-56" on="0"/>
        <pt x="107" y="-24" on="0"/>
        <pt x="107" y="8" on="1"/>
        <pt x="107" y="550" on="1"/>
        <pt x="107" y="627" on="0"/>
        <pt x="153" y="704" on="0"/>
        <pt x="230" y="704" on="1"/>
        <pt x="255" y="704" on="0"/>
        <pt x="290" y="700" on="1"/>
        <pt x="290" y="628" on="1"/>
      </contour>
    </TTGlyph>
    <TTGlyph name="iogonek" xMin="51" yMin="-248" xMax="227" yMax="735">
      <component glyphName="ogonek" x="21" y="0" flags="0x1004"/>
      <component glyphName="dotlessi" x="0" y="0" flags="0x1004"/>
      <component glyphName="dotaccent" x="22" y="0" flags="0x1004"/>
    </TTGlyph>
    <TTGlyph name="itilde" xMin="-7" yMin="0" xMax="296" yMax="736">
      <component glyphName="tilde" x="-41" y="0" flags="0x1004"/>
      <component glyphName="dotlessi" x="0" y="0" flags="0x1004"/>
    </TTGlyph>
    <TTGlyph name="j" xMin="5" yMin="-161" xMax="244" yMax="735">
      <component glyphName="uni0237" x="0" y="0" flags="0x1004"/>
      <component glyphName="dotaccent" x="55" y="0" flags="0x1004"/>
    </TTGlyph>
    <TTGlyph name="jcircumflex" xMin="5" yMin="-161" xMax="338" yMax="739">
      <component glyphName="uni0237" x="0" y="0" flags="0x1004"/>
      <component glyphName="circumflex" x="50" y="0" flags="0x1004"/>
    </TTGlyph>
    <TTGlyph name="k" xMin="83" yMin="0" xMax="583" yMax="740">
      <contour>
        <pt x="83" y="0" on="1"/>
        <pt x="83" y="740" on="1"/>
        <pt x="216" y="740" on="1"/>
        <pt x="216" y="294" on="1"/>
        <pt x="423" y="524" on="1"/>
        <pt x="575" y="524" on="1"/>
        <pt x="377" y="298" on="1"/>
        <pt x="583" y="0" on="1"/>
        <pt x="438" y="0" on="1"/>
        <pt x="274" y="243" on="1"/>
        <pt x="216" y="183" on="1"/>
        <pt x="216" y="0" on="1"/>
      </contour>
    </TTGlyph>
    <TTGlyph name="kgreenlandic" xMin="83" yMin="0" xMax="581" yMax="524">
      <contour>
        <pt x="83" y="0" on="1"/>
        <pt x="83" y="524" on="1"/>
        <pt x="217" y="524" on="1"/>
        <pt x="217" y="294" on="1"/>
        <pt x="229" y="308" on="0"/>
        <pt x="400" y="510" on="0"/>
        <pt x="413" y="524" on="1"/>
        <pt x="571" y="524" on="1"/>
        <pt x="376" y="295" on="1"/>
        <pt x="581" y="0" on="1"/>
        <pt x="422" y="0" on="1"/>
        <pt x="264" y="236" on="1"/>
        <pt x="217" y="188" on="1"/>
        <pt x="217" y="0" on="1"/>
      </contour>
    </TTGlyph>
    <TTGlyph name="l" xMin="83" yMin="-6" xMax="326" yMax="740">
      <contour>
        <pt x="260" y="-6" on="1"/>
        <pt x="169" y="-6" on="0"/>
        <pt x="83" y="76" on="0"/>
        <pt x="83" y="172" on="1"/>
        <pt x="83" y="740" on="1"/>
        <pt x="216" y="740" on="1"/>
        <pt x="216" y="174" on="1"/>
        <pt x="216" y="130" on="0"/>
        <pt x="257" y="93" on="0"/>
        <pt x="310" y="93" on="1"/>
        <pt x="326" y="93" on="1"/>
        <pt x="316" y="-6" on="1"/>
      </contour>
    </TTGlyph>
    <TTGlyph name="lacute" xMin="83" yMin="-6" xMax="326" yMax="987">
      <component glyphName="l" x="0" y="0" flags="0x1004"/>
      <component glyphName="acute" x="82" y="214" flags="0x1004"/>
    </TTGlyph>
    <TTGlyph name="lcaron" xMin="83" yMin="-6" xMax="413" yMax="907">
      <component glyphName="l" x="0" y="0" flags="0x1004"/>
      <component glyphName="caron.alt" x="-28" y="0" flags="0x1004"/>
    </TTGlyph>
    <TTGlyph name="ldot" xMin="83" yMin="-6" xMax="401" yMax="740">
      <component glyphName="periodcentered" x="151" y="19" flags="0x1004"/>
      <component glyphName="l" x="0" y="0" flags="0x1004"/>
    </TTGlyph>
    <TTGlyph name="less" xMin="55" yMin="15" xMax="418" yMax="528">
      <contour>
        <pt x="418" y="15" on="1"/>
        <pt x="55" y="217" on="1"/>
        <pt x="55" y="324" on="1"/>
        <pt x="418" y="528" on="1"/>
        <pt x="418" y="415" on="1"/>
        <pt x="143" y="271" on="1"/>
        <pt x="418" y="128" on="1"/>
      </contour>
    </TTGlyph>
    <TTGlyph name="lessequal" xMin="112" yMin="0" xMax="500" yMax="629">
      <contour>
        <pt x="112" y="0" on="1"/>
        <pt x="112" y="85" on="1"/>
        <pt x="499" y="85" on="1"/>
        <pt x="499" y="0" on="1"/>
      </contour>
      <contour>
        <pt x="500" y="117" on="1"/>
        <pt x="117" y="319" on="1"/>
        <pt x="117" y="426" on="1"/>
        <pt x="500" y="629" on="1"/>
        <pt x="500" y="517" on="1"/>
        <pt x="205" y="373" on="1"/>
        <pt x="500" y="229" on="1"/>
      </contour>
    </TTGlyph>
    <TTGlyph name="logicalnot" xMin="63" yMin="110" xMax="417" yMax="370">
      <contour>
        <pt x="344" y="110" on="1"/>
        <pt x="344" y="287" on="1"/>
        <pt x="63" y="287" on="1"/>
        <pt x="63" y="370" on="1"/>
        <pt x="417" y="370" on="1"/>
        <pt x="417" y="110" on="1"/>
      </contour>
    </TTGlyph>
    <TTGlyph name="lozenge" xMin="50" yMin="0" xMax="489" yMax="735">
      <contour>
        <pt x="277" y="92" on="1"/>
        <pt x="387" y="368" on="1"/>
        <pt x="277" y="638" on="1"/>
        <pt x="154" y="368" on="1"/>
      </contour>
      <contour>
        <pt x="228" y="0" on="1"/>
        <pt x="50" y="368" on="1"/>
        <pt x="228" y="735" on="1"/>
        <pt x="324" y="735" on="1"/>
        <pt x="489" y="368" on="1"/>
        <pt x="324" y="0" on="1"/>
      </contour>
    </TTGlyph>
    <TTGlyph name="lslash" xMin="12" yMin="-6" xMax="326" yMax="740">
      <contour>
        <pt x="12" y="332" on="1"/>
        <pt x="12" y="402" on="1"/>
        <pt x="292" y="517" on="1"/>
        <pt x="292" y="447" on="1"/>
      </contour>
      <contour>
        <pt x="260" y="-6" on="1"/>
        <pt x="316" y="-6" on="1"/>
        <pt x="326" y="93" on="1"/>
        <pt x="310" y="93" on="1"/>
        <pt x="257" y="93" on="0"/>
        <pt x="216" y="130" on="0"/>
        <pt x="216" y="174" on="1"/>
        <pt x="216" y="740" on="1"/>
        <pt x="83" y="740" on="1"/>
        <pt x="83" y="172" on="1"/>
        <pt x="83" y="76" on="0"/>
        <pt x="169" y="-6" on="0"/>
      </contour>
    </TTGlyph>
    <TTGlyph name="m" xMin="82" yMin="0" xMax="854" yMax="536">
      <contour>
        <pt x="82" y="0" on="1"/>
        <pt x="82" y="524" on="1"/>
        <pt x="215" y="524" on="1"/>
        <pt x="215" y="478" on="1"/>
        <pt x="233" y="498" on="0"/>
        <pt x="313" y="536" on="0"/>
        <pt x="370" y="536" on="1"/>
        <pt x="475" y="536" on="0"/>
        <pt x="514" y="471" on="1"/>
        <pt x="579" y="536" on="0"/>
        <pt x="688" y="536" on="1"/>
        <pt x="763" y="536" on="0"/>
        <pt x="854" y="454" on="0"/>
        <pt x="854" y="388" on="1"/>
        <pt x="854" y="0" on="1"/>
        <pt x="722" y="0" on="1"/>
        <pt x="722" y="372" on="1"/>
        <pt x="722" y="410" on="0"/>
        <pt x="682" y="438" on="0"/>
        <pt x="608" y="438" on="0"/>
        <pt x="539" y="399" on="0"/>
        <pt x="536" y="366" on="1"/>
        <pt x="536" y="0" on="1"/>
        <pt x="403" y="0" on="1"/>
        <pt x="403" y="372" on="1"/>
        <pt x="403" y="438" on="0"/>
        <pt x="325" y="438" on="1"/>
        <pt x="284" y="438" on="0"/>
        <pt x="215" y="396" on="0"/>
        <pt x="215" y="361" on="1"/>
        <pt x="215" y="0" on="1"/>
      </contour>
    </TTGlyph>
    <TTGlyph name="macron" xMin="-23" yMin="611" xMax="272" yMax="688">
      <contour>
        <pt x="-23" y="611" on="1"/>
        <pt x="-23" y="688" on="1"/>
        <pt x="272" y="688" on="1"/>
        <pt x="272" y="611" on="1"/>
      </contour>
    </TTGlyph>
    <TTGlyph name="minus" xMin="60" yMin="214" xMax="324" yMax="302">
      <contour>
        <pt x="60" y="214" on="1"/>
        <pt x="60" y="302" on="1"/>
        <pt x="324" y="302" on="1"/>
        <pt x="324" y="214" on="1"/>
      </contour>
    </TTGlyph>
    <TTGlyph name="multiply" xMin="75" yMin="105" xMax="425" yMax="458">
      <contour>
        <pt x="129" y="105" on="1"/>
        <pt x="75" y="168" on="1"/>
        <pt x="191" y="281" on="1"/>
        <pt x="75" y="394" on="1"/>
        <pt x="129" y="458" on="1"/>
        <pt x="250" y="339" on="1"/>
        <pt x="372" y="458" on="1"/>
        <pt x="425" y="394" on="1"/>
        <pt x="310" y="281" on="1"/>
        <pt x="425" y="168" on="1"/>
        <pt x="372" y="105" on="1"/>
        <pt x="250" y="224" on="1"/>
      </contour>
    </TTGlyph>
    <TTGlyph name="n" xMin="82" yMin="0" xMax="542" yMax="537">
      <contour>
        <pt x="542" y="376" on="1"/>
        <pt x="542" y="376" on="0"/>
        <pt x="542" y="0" on="1"/>
        <pt x="409" y="0" on="1"/>
        <pt x="409" y="369" on="1"/>
        <pt x="409" y="437" on="0"/>
        <pt x="317" y="437" on="1"/>
        <pt x="278" y="437" on="0"/>
        <pt x="215" y="395" on="0"/>
        <pt x="215" y="359" on="1"/>
        <pt x="215" y="0" on="1"/>
        <pt x="82" y="0" on="1"/>
        <pt x="82" y="524" on="1"/>
        <pt x="215" y="524" on="1"/>
        <pt x="215" y="478" on="1"/>
        <pt x="287" y="537" on="0"/>
        <pt x="456" y="537" on="0"/>
        <pt x="542" y="448" on="0"/>
      </contour>
    </TTGlyph>
    <TTGlyph name="nacute" xMin="82" yMin="0" xMax="542" yMax="773">
      <component glyphName="n" x="0" y="0" flags="0x1004"/>
      <component glyphName="acute" x="250" y="0" flags="0x1004"/>
    </TTGlyph>
    <TTGlyph name="napostrophe" xMin="11" yMin="0" xMax="542" yMax="932">
      <component glyphName="uni02BC" x="0" y="0" flags="0x1004"/>
      <component glyphName="n" x="0" y="0" flags="0x1004"/>
    </TTGlyph>
    <TTGlyph name="ncaron" xMin="82" yMin="0" xMax="542" yMax="739">
      <component glyphName="n" x="0" y="0" flags="0x1004"/>
      <component glyphName="caron" x="201" y="0" flags="0x1004"/>
    </TTGlyph>
    <TTGlyph name="nine" xMin="82" yMin="0" xMax="601" yMax="730">
      <contour>
        <pt x="345" y="382" on="1"/>
        <pt x="409" y="382" on="0"/>
        <pt x="458" y="437" on="0"/>
        <pt x="458" y="564" on="0"/>
        <pt x="399" y="626" on="0"/>
        <pt x="285" y="626" on="0"/>
        <pt x="221" y="564" on="0"/>
        <pt x="221" y="436" on="0"/>
        <pt x="274" y="382" on="0"/>
      </contour>
      <contour>
        <pt x="535" y="258" on="1"/>
        <pt x="394" y="0" on="1"/>
        <pt x="237" y="0" on="1"/>
        <pt x="395" y="288" on="1"/>
        <pt x="359" y="278" on="0"/>
        <pt x="320" y="278" on="1"/>
        <pt x="199" y="278" on="0"/>
        <pt x="82" y="380" on="0"/>
        <pt x="82" y="614" on="0"/>
        <pt x="219" y="730" on="0"/>
        <pt x="469" y="730" on="0"/>
        <pt x="601" y="611" on="0"/>
        <pt x="601" y="385" on="0"/>
      </contour>
    </TTGlyph>
    <TTGlyph name="notequal" xMin="55" yMin="73" xMax="375" yMax="534">
      <contour>
        <pt x="62" y="73" on="1"/>
        <pt x="276" y="534" on="1"/>
        <pt x="360" y="534" on="1"/>
        <pt x="146" y="73" on="1"/>
      </contour>
      <contour>
        <pt x="55" y="361" on="1"/>
        <pt x="375" y="361" on="1"/>
        <pt x="375" y="446" on="1"/>
        <pt x="55" y="446" on="1"/>
      </contour>
      <contour>
        <pt x="55" y="181" on="1"/>
        <pt x="375" y="181" on="1"/>
        <pt x="375" y="266" on="1"/>
        <pt x="55" y="266" on="1"/>
      </contour>
    </TTGlyph>
    <TTGlyph name="ntilde" xMin="82" yMin="0" xMax="542" yMax="736">
      <component glyphName="tilde" x="143" y="0" flags="0x1004"/>
      <component glyphName="n" x="0" y="0" flags="0x1004"/>
    </TTGlyph>
    <TTGlyph name="numbersign" xMin="51" yMin="0" xMax="619" yMax="721">
      <contour>
        <pt x="262" y="302" on="1"/>
        <pt x="387" y="302" on="1"/>
        <pt x="412" y="438" on="1"/>
        <pt x="285" y="438" on="1"/>
      </contour>
      <contour>
        <pt x="607" y="233" on="1"/>
        <pt x="474" y="233" on="1"/>
        <pt x="434" y="0" on="1"/>
        <pt x="333" y="0" on="1"/>
        <pt x="375" y="233" on="1"/>
        <pt x="250" y="233" on="1"/>
        <pt x="209" y="0" on="1"/>
        <pt x="109" y="0" on="1"/>
        <pt x="151" y="233" on="1"/>
        <pt x="51" y="233" on="1"/>
        <pt x="51" y="302" on="1"/>
        <pt x="163" y="302" on="1"/>
        <pt x="188" y="438" on="1"/>
        <pt x="62" y="438" on="1"/>
        <pt x="62" y="506" on="1"/>
        <pt x="199" y="506" on="1"/>
        <pt x="238" y="721" on="1"/>
        <pt x="334" y="721" on="1"/>
        <pt x="297" y="506" on="1"/>
        <pt x="424" y="506" on="1"/>
        <pt x="462" y="721" on="1"/>
        <pt x="559" y="721" on="1"/>
        <pt x="522" y="506" on="1"/>
        <pt x="619" y="506" on="1"/>
        <pt x="619" y="438" on="1"/>
        <pt x="510" y="438" on="1"/>
        <pt x="486" y="302" on="1"/>
        <pt x="607" y="302" on="1"/>
      </contour>
    </TTGlyph>
    <TTGlyph name="o" xMin="68" yMin="-11" xMax="523" yMax="536">
      <contour>
        <pt x="296" y="-11" on="1"/>
        <pt x="68" y="-11" on="0"/>
        <pt x="68" y="159" on="1"/>
        <pt x="68" y="365" on="1"/>
        <pt x="68" y="445" on="0"/>
        <pt x="188" y="536" on="0"/>
        <pt x="403" y="536" on="0"/>
        <pt x="523" y="445" on="0"/>
        <pt x="523" y="365" on="1"/>
        <pt x="523" y="159" on="1"/>
        <pt x="523" y="76" on="0"/>
        <pt x="418" y="-11" on="0"/>
      </contour>
      <contour>
        <pt x="296" y="81" on="1"/>
        <pt x="391" y="81" on="0"/>
        <pt x="391" y="153" on="1"/>
        <pt x="391" y="371" on="1"/>
        <pt x="391" y="443" on="0"/>
        <pt x="201" y="443" on="0"/>
        <pt x="201" y="371" on="1"/>
        <pt x="201" y="153" on="1"/>
        <pt x="201" y="81" on="0"/>
      </contour>
    </TTGlyph>
    <TTGlyph name="oacute" xMin="68" yMin="-11" xMax="523" yMax="773">
      <component glyphName="o" x="0" y="0" flags="0x1004"/>
      <component glyphName="acute" x="215" y="0" flags="0x1004"/>
    </TTGlyph>
    <TTGlyph name="obreve" xMin="68" yMin="-11" xMax="523" yMax="721">
      <component glyphName="o" x="0" y="0" flags="0x1004"/>
      <component glyphName="breve" x="167" y="0" flags="0x1004"/>
    </TTGlyph>
    <TTGlyph name="ocircumflex" xMin="68" yMin="-11" xMax="523" yMax="739">
      <component glyphName="o" x="0" y="0" flags="0x1004"/>
      <component glyphName="circumflex" x="167" y="0" flags="0x1004"/>
    </TTGlyph>
    <TTGlyph name="odieresis" xMin="68" yMin="-11" xMax="523" yMax="721">
      <component glyphName="o" x="0" y="0" flags="0x1004"/>
      <component glyphName="dieresis" x="55" y="0" flags="0x1004"/>
    </TTGlyph>
    <TTGlyph name="oe" xMin="61" yMin="-11" xMax="815" yMax="536">
      <contour>
        <pt x="509" y="320" on="1"/>
        <pt x="690" y="320" on="1"/>
        <pt x="690" y="374" on="1"/>
        <pt x="690" y="414" on="0"/>
        <pt x="644" y="443" on="0"/>
        <pt x="599" y="443" on="1"/>
        <pt x="509" y="443" on="0"/>
        <pt x="509" y="371" on="1"/>
      </contour>
      <contour>
        <pt x="285" y="81" on="1"/>
        <pt x="375" y="81" on="0"/>
        <pt x="375" y="153" on="1"/>
        <pt x="375" y="372" on="1"/>
        <pt x="375" y="410" on="0"/>
        <pt x="331" y="443" on="0"/>
        <pt x="285" y="443" on="1"/>
        <pt x="194" y="443" on="0"/>
        <pt x="194" y="372" on="1"/>
        <pt x="194" y="153" on="1"/>
        <pt x="194" y="114" on="0"/>
        <pt x="239" y="81" on="0"/>
      </contour>
      <contour>
        <pt x="285" y="-11" on="1"/>
        <pt x="61" y="-11" on="0"/>
        <pt x="61" y="159" on="1"/>
        <pt x="61" y="366" on="1"/>
        <pt x="61" y="446" on="0"/>
        <pt x="182" y="536" on="0"/>
        <pt x="386" y="536" on="0"/>
        <pt x="441" y="477" on="1"/>
        <pt x="496" y="536" on="0"/>
        <pt x="596" y="536" on="1"/>
        <pt x="815" y="536" on="0"/>
        <pt x="815" y="364" on="1"/>
        <pt x="815" y="250" on="1"/>
        <pt x="509" y="250" on="1"/>
        <pt x="509" y="157" on="1"/>
        <pt x="509" y="115" on="0"/>
        <pt x="554" y="81" on="0"/>
        <pt x="649" y="81" on="0"/>
        <pt x="690" y="116" on="0"/>
        <pt x="691" y="174" on="1"/>
        <pt x="815" y="174" on="1"/>
        <pt x="813" y="66" on="0"/>
        <pt x="711" y="-11" on="0"/>
        <pt x="503" y="-11" on="0"/>
        <pt x="442" y="44" on="1"/>
        <pt x="385" y="-11" on="0"/>
      </contour>
    </TTGlyph>
    <TTGlyph name="ogonek" xMin="30" yMin="-248" xMax="206" yMax="4">
      <contour>
        <pt x="120" y="-120" on="1"/>
        <pt x="120" y="-179" on="0"/>
        <pt x="206" y="-179" on="1"/>
        <pt x="200" y="-248" on="1"/>
        <pt x="193" y="-248" on="1"/>
        <pt x="30" y="-248" on="0"/>
        <pt x="30" y="-144" on="1"/>
        <pt x="30" y="-67" on="0"/>
        <pt x="104" y="4" on="1"/>
        <pt x="161" y="4" on="1"/>
        <pt x="120" y="-76" on="0"/>
      </contour>
    </TTGlyph>
    <TTGlyph name="ograve" xMin="68" yMin="-11" xMax="523" yMax="773">
      <component glyphName="o" x="0" y="0" flags="0x1004"/>
      <component glyphName="grave" x="103" y="0" flags="0x1004"/>
    </TTGlyph>
    <TTGlyph name="ohungarumlaut" xMin="68" yMin="-11" xMax="556" yMax="743">
      <component glyphName="o" x="0" y="0" flags="0x1004"/>
      <component glyphName="hungarumlaut" x="118" y="0" flags="0x1004"/>
    </TTGlyph>
    <TTGlyph name="omacron" xMin="68" yMin="-11" xMax="523" yMax="688">
      <component glyphName="o" x="0" y="0" flags="0x1004"/>
      <component glyphName="macron" x="171" y="0" flags="0x1004"/>
    </TTGlyph>
    <TTGlyph name="one" xMin="120" yMin="0" xMax="602" yMax="721">
      <contour>
        <pt x="122" y="0" on="1"/>
        <pt x="122" y="102" on="1"/>
        <pt x="298" y="102" on="1"/>
        <pt x="298" y="606" on="1"/>
        <pt x="132" y="580" on="1"/>
        <pt x="120" y="686" on="1"/>
        <pt x="343" y="721" on="1"/>
        <pt x="443" y="721" on="1"/>
        <pt x="443" y="102" on="1"/>
        <pt x="602" y="102" on="1"/>
        <pt x="602" y="0" on="1"/>
      </contour>
    </TTGlyph>
    <TTGlyph name="onehalf" xMin="62" yMin="-1" xMax="1163" yMax="735">
      <contour>
        <pt x="429" y="0" on="1"/>
        <pt x="742" y="735" on="1"/>
        <pt x="827" y="735" on="1"/>
        <pt x="514" y="0" on="1"/>
      </contour>
      <contour>
        <pt x="418" y="206" on="1"/>
        <pt x="64" y="206" on="1"/>
        <pt x="63" y="278" on="1"/>
        <pt x="194" y="278" on="1"/>
        <pt x="194" y="644" on="1"/>
        <pt x="71" y="625" on="1"/>
        <pt x="62" y="695" on="1"/>
        <pt x="227" y="721" on="1"/>
        <pt x="298" y="721" on="1"/>
        <pt x="298" y="278" on="1"/>
        <pt x="418" y="278" on="1"/>
      </contour>
      <contour>
        <pt x="1157" y="-1" on="1"/>
        <pt x="841" y="-1" on="1"/>
        <pt x="819" y="78" on="1"/>
        <pt x="993" y="253" on="1"/>
        <pt x="1028" y="288" on="0"/>
        <pt x="1058" y="342" on="0"/>
        <pt x="1058" y="411" on="0"/>
        <pt x="1027" y="445" on="0"/>
        <pt x="942" y="445" on="0"/>
        <pt x="913" y="404" on="0"/>
        <pt x="913" y="345" on="1"/>
        <pt x="807" y="345" on="1"/>
        <pt x="807" y="440" on="0"/>
        <pt x="887" y="523" on="0"/>
        <pt x="989" y="523" on="1"/>
        <pt x="1163" y="523" on="0"/>
        <pt x="1163" y="375" on="1"/>
        <pt x="1163" y="323" on="0"/>
        <pt x="1109" y="238" on="0"/>
        <pt x="1058" y="188" on="1"/>
        <pt x="944" y="78" on="1"/>
        <pt x="1157" y="78" on="1"/>
      </contour>
    </TTGlyph>
    <TTGlyph name="onequarter" xMin="62" yMin="0" xMax="1125" yMax="735">
      <contour>
        <pt x="415" y="0" on="1"/>
        <pt x="728" y="735" on="1"/>
        <pt x="812" y="735" on="1"/>
        <pt x="500" y="0" on="1"/>
      </contour>
      <contour>
        <pt x="418" y="206" on="1"/>
        <pt x="64" y="206" on="1"/>
        <pt x="63" y="278" on="1"/>
        <pt x="194" y="278" on="1"/>
        <pt x="194" y="644" on="1"/>
        <pt x="71" y="625" on="1"/>
        <pt x="62" y="695" on="1"/>
        <pt x="227" y="721" on="1"/>
        <pt x="298" y="721" on="1"/>
        <pt x="298" y="278" on="1"/>
        <pt x="418" y="278" on="1"/>
      </contour>
      <contour>
        <pt x="966" y="0" on="1"/>
        <pt x="966" y="103" on="1"/>
        <pt x="721" y="103" on="1"/>
        <pt x="721" y="180" on="1"/>
        <pt x="858" y="524" on="1"/>
        <pt x="951" y="524" on="1"/>
        <pt x="820" y="182" on="1"/>
        <pt x="966" y="182" on="1"/>
        <pt x="966" y="300" on="1"/>
        <pt x="1043" y="300" on="1"/>
        <pt x="1043" y="182" on="1"/>
        <pt x="1125" y="182" on="1"/>
        <pt x="1125" y="103" on="1"/>
        <pt x="1043" y="103" on="1"/>
        <pt x="1043" y="0" on="1"/>
      </contour>
    </TTGlyph>
    <TTGlyph name="ordfeminine" xMin="65" yMin="252" xMax="459" yMax="722">
      <contour>
        <pt x="168" y="391" on="1"/>
        <pt x="168" y="334" on="0"/>
        <pt x="224" y="334" on="1"/>
        <pt x="282" y="334" on="0"/>
        <pt x="309" y="376" on="1"/>
        <pt x="309" y="489" on="1"/>
        <pt x="291" y="471" on="0"/>
        <pt x="226" y="451" on="1"/>
        <pt x="168" y="434" on="0"/>
      </contour>
      <contour>
        <pt x="65" y="383" on="1"/>
        <pt x="65" y="429" on="0"/>
        <pt x="118" y="480" on="0"/>
        <pt x="200" y="506" on="1"/>
        <pt x="210" y="509" on="0"/>
        <pt x="230" y="515" on="1"/>
        <pt x="256" y="523" on="1"/>
        <pt x="262" y="525" on="0"/>
        <pt x="287" y="535" on="0"/>
        <pt x="295" y="544" on="0"/>
        <pt x="307" y="558" on="0"/>
        <pt x="310" y="576" on="0"/>
        <pt x="310" y="616" on="0"/>
        <pt x="280" y="643" on="0"/>
        <pt x="207" y="643" on="0"/>
        <pt x="179" y="612" on="0"/>
        <pt x="179" y="583" on="1"/>
        <pt x="179" y="565" on="1"/>
        <pt x="79" y="565" on="1"/>
        <pt x="79" y="579" on="1"/>
        <pt x="79" y="646" on="0"/>
        <pt x="162" y="722" on="0"/>
        <pt x="247" y="722" on="1"/>
        <pt x="417" y="722" on="0"/>
        <pt x="417" y="569" on="1"/>
        <pt x="417" y="396" on="1"/>
        <pt x="417" y="365" on="0"/>
        <pt x="434" y="342" on="0"/>
        <pt x="459" y="342" on="1"/>
        <pt x="450" y="259" on="1"/>
        <pt x="409" y="259" on="1"/>
        <pt x="368" y="259" on="0"/>
        <pt x="332" y="288" on="0"/>
        <pt x="319" y="320" on="1"/>
        <pt x="270" y="252" on="0"/>
        <pt x="188" y="252" on="1"/>
        <pt x="188" y="253" on="1"/>
        <pt x="131" y="253" on="0"/>
        <pt x="65" y="323" on="0"/>
      </contour>
    </TTGlyph>
    <TTGlyph name="ordmasculine" xMin="66" yMin="250" xMax="434" yMax="720">
      <contour>
        <pt x="250" y="250" on="1"/>
        <pt x="66" y="250" on="0"/>
        <pt x="66" y="396" on="1"/>
        <pt x="66" y="574" on="1"/>
        <pt x="66" y="643" on="0"/>
        <pt x="162" y="720" on="0"/>
        <pt x="337" y="720" on="0"/>
        <pt x="434" y="643" on="0"/>
        <pt x="434" y="574" on="1"/>
        <pt x="434" y="396" on="1"/>
        <pt x="434" y="325" on="0"/>
        <pt x="348" y="250" on="0"/>
      </contour>
      <contour>
        <pt x="249" y="330" on="1"/>
        <pt x="250" y="330" on="1"/>
        <pt x="326" y="330" on="0"/>
        <pt x="326" y="392" on="1"/>
        <pt x="326" y="580" on="1"/>
        <pt x="326" y="642" on="0"/>
        <pt x="172" y="642" on="0"/>
        <pt x="172" y="580" on="1"/>
        <pt x="172" y="392" on="1"/>
        <pt x="172" y="330" on="0"/>
      </contour>
    </TTGlyph>
    <TTGlyph name="oslash" xMin="68" yMin="-104" xMax="523" yMax="625">
      <contour>
        <pt x="201" y="153" on="1"/>
        <pt x="201" y="123" on="0"/>
        <pt x="216" y="106" on="1"/>
        <pt x="335" y="439" on="1"/>
        <pt x="319" y="443" on="0"/>
        <pt x="296" y="443" on="1"/>
        <pt x="201" y="443" on="0"/>
        <pt x="201" y="371" on="1"/>
      </contour>
      <contour>
        <pt x="391" y="371" on="1"/>
        <pt x="391" y="407" on="0"/>
        <pt x="369" y="424" on="1"/>
        <pt x="248" y="87" on="1"/>
        <pt x="268" y="81" on="0"/>
        <pt x="296" y="81" on="1"/>
        <pt x="391" y="81" on="0"/>
        <pt x="391" y="153" on="1"/>
      </contour>
      <contour>
        <pt x="296" y="-11" on="1"/>
        <pt x="251" y="-11" on="0"/>
        <pt x="215" y="-5" on="1"/>
        <pt x="179" y="-104" on="1"/>
        <pt x="144" y="-95" on="1"/>
        <pt x="180" y="4" on="1"/>
        <pt x="68" y="39" on="0"/>
        <pt x="68" y="159" on="1"/>
        <pt x="68" y="365" on="1"/>
        <pt x="68" y="445" on="0"/>
        <pt x="188" y="536" on="0"/>
        <pt x="296" y="536" on="1"/>
        <pt x="335" y="536" on="0"/>
        <pt x="368" y="530" on="1"/>
        <pt x="402" y="625" on="1"/>
        <pt x="438" y="615" on="1"/>
        <pt x="404" y="521" on="1"/>
        <pt x="461" y="502" on="0"/>
        <pt x="523" y="422" on="0"/>
        <pt x="523" y="365" on="1"/>
        <pt x="523" y="159" on="1"/>
        <pt x="523" y="76" on="0"/>
        <pt x="418" y="-11" on="0"/>
      </contour>
    </TTGlyph>
    <TTGlyph name="oslashacute" xMin="68" yMin="-104" xMax="523" yMax="773">
      <component glyphName="oslash" x="0" y="0" flags="0x1004"/>
      <component glyphName="acute" x="211" y="0" flags="0x1004"/>
    </TTGlyph>
    <TTGlyph name="otilde" xMin="68" yMin="-11" xMax="523" yMax="736">
      <component glyphName="tilde" x="108" y="0" flags="0x1004"/>
      <component glyphName="o" x="0" y="0" flags="0x1004"/>
    </TTGlyph>
    <TTGlyph name="p" xMin="82" yMin="-200" xMax="530" yMax="536">
      <contour>
        <pt x="304" y="81" on="1"/>
        <pt x="397" y="81" on="0"/>
        <pt x="397" y="156" on="1"/>
        <pt x="397" y="369" on="1"/>
        <pt x="397" y="443" on="0"/>
        <pt x="308" y="443" on="1"/>
        <pt x="247" y="443" on="0"/>
        <pt x="215" y="411" on="1"/>
        <pt x="215" y="104" on="1"/>
        <pt x="255" y="81" on="0"/>
      </contour>
      <contour>
        <pt x="82" y="-200" on="1"/>
        <pt x="82" y="524" on="1"/>
        <pt x="175" y="524" on="1"/>
        <pt x="188" y="490" on="1"/>
        <pt x="252" y="536" on="0"/>
        <pt x="425" y="536" on="0"/>
        <pt x="530" y="444" on="0"/>
        <pt x="530" y="367" on="1"/>
        <pt x="530" y="159" on="1"/>
        <pt x="530" y="86" on="0"/>
        <pt x="420" y="-11" on="0"/>
        <pt x="315" y="-11" on="1"/>
        <pt x="258" y="-11" on="0"/>
        <pt x="215" y="8" on="1"/>
        <pt x="215" y="-200" on="1"/>
      </contour>
    </TTGlyph>
    <TTGlyph name="paragraph" xMin="46" yMin="0" xMax="499" yMax="721">
      <contour>
        <pt x="218" y="0" on="1"/>
        <pt x="218" y="419" on="1"/>
        <pt x="143" y="419" on="0"/>
        <pt x="46" y="499" on="0"/>
        <pt x="46" y="647" on="0"/>
        <pt x="148" y="721" on="0"/>
        <pt x="226" y="721" on="1"/>
        <pt x="499" y="721" on="1"/>
        <pt x="499" y="0" on="1"/>
        <pt x="415" y="0" on="1"/>
        <pt x="415" y="651" on="1"/>
        <pt x="302" y="651" on="1"/>
        <pt x="302" y="0" on="1"/>
      </contour>
    </TTGlyph>
    <TTGlyph name="parenleft" xMin="102" yMin="-78" xMax="382" yMax="769">
      <contour>
        <pt x="382" y="-78" on="1"/>
        <pt x="380" y="-78" on="1"/>
        <pt x="229" y="-78" on="0"/>
        <pt x="102" y="67" on="0"/>
        <pt x="102" y="205" on="1"/>
        <pt x="102" y="481" on="1"/>
        <pt x="102" y="620" on="0"/>
        <pt x="228" y="769" on="0"/>
        <pt x="380" y="769" on="1"/>
        <pt x="382" y="769" on="1"/>
        <pt x="382" y="664" on="1"/>
        <pt x="303" y="664" on="0"/>
        <pt x="238" y="594" on="0"/>
        <pt x="238" y="498" on="1"/>
        <pt x="238" y="190" on="1"/>
        <pt x="238" y="95" on="0"/>
        <pt x="303" y="27" on="0"/>
        <pt x="382" y="27" on="1"/>
      </contour>
    </TTGlyph>
    <TTGlyph name="parenright" xMin="88" yMin="-78" xMax="368" yMax="769">
      <contour>
        <pt x="88" y="-78" on="1"/>
        <pt x="88" y="28" on="1"/>
        <pt x="167" y="28" on="0"/>
        <pt x="232" y="97" on="0"/>
        <pt x="232" y="193" on="1"/>
        <pt x="232" y="500" on="1"/>
        <pt x="232" y="596" on="0"/>
        <pt x="167" y="664" on="0"/>
        <pt x="88" y="664" on="1"/>
        <pt x="88" y="769" on="1"/>
        <pt x="90" y="769" on="1"/>
        <pt x="241" y="769" on="0"/>
        <pt x="368" y="624" on="0"/>
        <pt x="368" y="486" on="1"/>
        <pt x="368" y="210" on="1"/>
        <pt x="368" y="71" on="0"/>
        <pt x="242" y="-78" on="0"/>
        <pt x="90" y="-78" on="1"/>
      </contour>
    </TTGlyph>
    <TTGlyph name="partialdiff" xMin="54" yMin="-10" xMax="541" yMax="730">
      <contour>
        <pt x="238" y="63" on="1"/>
        <pt x="270" y="63" on="0"/>
        <pt x="328" y="127" on="0"/>
        <pt x="348" y="178" on="1"/>
        <pt x="386" y="278" on="0"/>
        <pt x="397" y="388" on="1"/>
        <pt x="313" y="371" on="0"/>
        <pt x="207" y="216" on="0"/>
        <pt x="207" y="138" on="1"/>
        <pt x="207" y="104" on="0"/>
        <pt x="225" y="63" on="0"/>
      </contour>
      <contour>
        <pt x="231" y="-10" on="1"/>
        <pt x="144" y="-10" on="0"/>
        <pt x="54" y="82" on="0"/>
        <pt x="54" y="151" on="1"/>
        <pt x="54" y="200" on="0"/>
        <pt x="100" y="302" on="0"/>
        <pt x="185" y="390" on="0"/>
        <pt x="320" y="451" on="0"/>
        <pt x="401" y="456" on="1"/>
        <pt x="401" y="468" on="1"/>
        <pt x="401" y="566" on="0"/>
        <pt x="312" y="666" on="0"/>
        <pt x="190" y="666" on="0"/>
        <pt x="121" y="629" on="1"/>
        <pt x="101" y="678" on="1"/>
        <pt x="187" y="730" on="0"/>
        <pt x="398" y="730" on="0"/>
        <pt x="541" y="581" on="0"/>
        <pt x="541" y="440" on="1"/>
        <pt x="541" y="247" on="0"/>
        <pt x="372" y="-10" on="0"/>
      </contour>
    </TTGlyph>
    <TTGlyph name="percent" xMin="96" yMin="-9" xMax="937" yMax="716">
      <contour>
        <pt x="339" y="0" on="1"/>
        <pt x="604" y="706" on="1"/>
        <pt x="688" y="706" on="1"/>
        <pt x="426" y="0" on="1"/>
      </contour>
      <contour>
        <pt x="788" y="-9" on="1"/>
        <pt x="708" y="-9" on="0"/>
        <pt x="641" y="87" on="0"/>
        <pt x="641" y="176" on="1"/>
        <pt x="641" y="202" on="1"/>
        <pt x="641" y="293" on="0"/>
        <pt x="707" y="383" on="0"/>
        <pt x="869" y="383" on="0"/>
        <pt x="936" y="292" on="0"/>
        <pt x="937" y="202" on="1"/>
        <pt x="937" y="176" on="1"/>
        <pt x="937" y="87" on="0"/>
        <pt x="868" y="-9" on="0"/>
      </contour>
      <contour>
        <pt x="788" y="54" on="1"/>
        <pt x="831" y="54" on="0"/>
        <pt x="857" y="111" on="0"/>
        <pt x="857" y="169" on="1"/>
        <pt x="857" y="211" on="1"/>
        <pt x="857" y="267" on="0"/>
        <pt x="832" y="319" on="0"/>
        <pt x="744" y="319" on="0"/>
        <pt x="719" y="268" on="0"/>
        <pt x="719" y="212" on="1"/>
        <pt x="719" y="169" on="1"/>
        <pt x="719" y="111" on="0"/>
        <pt x="745" y="54" on="0"/>
      </contour>
      <contour>
        <pt x="242" y="324" on="1"/>
        <pt x="162" y="324" on="0"/>
        <pt x="96" y="419" on="0"/>
        <pt x="96" y="509" on="1"/>
        <pt x="96" y="535" on="1"/>
        <pt x="96" y="626" on="0"/>
        <pt x="161" y="716" on="0"/>
        <pt x="323" y="716" on="0"/>
        <pt x="390" y="626" on="0"/>
        <pt x="391" y="536" on="1"/>
        <pt x="391" y="509" on="1"/>
        <pt x="391" y="420" on="0"/>
        <pt x="322" y="324" on="0"/>
      </contour>
      <contour>
        <pt x="242" y="388" on="1"/>
        <pt x="285" y="388" on="0"/>
        <pt x="312" y="445" on="0"/>
        <pt x="312" y="502" on="1"/>
        <pt x="312" y="545" on="1"/>
        <pt x="312" y="601" on="0"/>
        <pt x="287" y="653" on="0"/>
        <pt x="198" y="653" on="0"/>
        <pt x="174" y="602" on="0"/>
        <pt x="174" y="546" on="1"/>
        <pt x="174" y="502" on="1"/>
        <pt x="174" y="444" on="0"/>
        <pt x="199" y="388" on="0"/>
      </contour>
    </TTGlyph>
    <TTGlyph name="period" xMin="80" yMin="0" xMax="226" yMax="139">
      <contour>
        <pt x="80" y="0" on="1"/>
        <pt x="80" y="139" on="1"/>
        <pt x="226" y="139" on="1"/>
        <pt x="226" y="0" on="1"/>
      </contour>
    </TTGlyph>
    <TTGlyph name="periodcentered" xMin="129" yMin="381" xMax="250" yMax="500">
      <contour>
        <pt x="129" y="381" on="1"/>
        <pt x="129" y="500" on="1"/>
        <pt x="250" y="500" on="1"/>
        <pt x="250" y="381" on="1"/>
      </contour>
    </TTGlyph>
    <TTGlyph name="perthousand" xMin="62" yMin="-9" xMax="1272" yMax="713">
      <contour>
        <pt x="306" y="0" on="1"/>
        <pt x="571" y="706" on="1"/>
        <pt x="655" y="706" on="1"/>
        <pt x="393" y="0" on="1"/>
      </contour>
      <contour>
        <pt x="1123" y="-9" on="1"/>
        <pt x="1043" y="-9" on="0"/>
        <pt x="976" y="87" on="0"/>
        <pt x="976" y="176" on="1"/>
        <pt x="976" y="202" on="1"/>
        <pt x="976" y="293" on="0"/>
        <pt x="1042" y="383" on="0"/>
        <pt x="1204" y="383" on="0"/>
        <pt x="1271" y="292" on="0"/>
        <pt x="1272" y="202" on="1"/>
        <pt x="1272" y="176" on="1"/>
        <pt x="1272" y="87" on="0"/>
        <pt x="1203" y="-9" on="0"/>
      </contour>
      <contour>
        <pt x="1123" y="54" on="1"/>
        <pt x="1166" y="54" on="0"/>
        <pt x="1192" y="111" on="0"/>
        <pt x="1192" y="169" on="1"/>
        <pt x="1192" y="211" on="1"/>
        <pt x="1192" y="267" on="0"/>
        <pt x="1167" y="319" on="0"/>
        <pt x="1079" y="319" on="0"/>
        <pt x="1054" y="268" on="0"/>
        <pt x="1054" y="212" on="1"/>
        <pt x="1054" y="169" on="1"/>
        <pt x="1054" y="111" on="0"/>
        <pt x="1080" y="54" on="0"/>
      </contour>
      <contour>
        <pt x="755" y="-9" on="1"/>
        <pt x="675" y="-9" on="0"/>
        <pt x="608" y="87" on="0"/>
        <pt x="608" y="176" on="1"/>
        <pt x="608" y="202" on="1"/>
        <pt x="608" y="293" on="0"/>
        <pt x="674" y="383" on="0"/>
        <pt x="836" y="383" on="0"/>
        <pt x="903" y="292" on="0"/>
        <pt x="904" y="202" on="1"/>
        <pt x="904" y="176" on="1"/>
        <pt x="904" y="87" on="0"/>
        <pt x="835" y="-9" on="0"/>
      </contour>
      <contour>
        <pt x="755" y="54" on="1"/>
        <pt x="798" y="54" on="0"/>
        <pt x="824" y="111" on="0"/>
        <pt x="824" y="169" on="1"/>
        <pt x="824" y="211" on="1"/>
        <pt x="824" y="267" on="0"/>
        <pt x="799" y="319" on="0"/>
        <pt x="711" y="319" on="0"/>
        <pt x="686" y="268" on="0"/>
        <pt x="686" y="212" on="1"/>
        <pt x="686" y="169" on="1"/>
        <pt x="686" y="111" on="0"/>
        <pt x="712" y="54" on="0"/>
      </contour>
      <contour>
        <pt x="209" y="321" on="1"/>
        <pt x="129" y="321" on="0"/>
        <pt x="62" y="417" on="0"/>
        <pt x="62" y="506" on="1"/>
        <pt x="62" y="532" on="1"/>
        <pt x="62" y="623" on="0"/>
        <pt x="128" y="713" on="0"/>
        <pt x="290" y="713" on="0"/>
        <pt x="357" y="623" on="0"/>
        <pt x="358" y="533" on="1"/>
        <pt x="358" y="506" on="1"/>
        <pt x="358" y="417" on="0"/>
        <pt x="289" y="321" on="0"/>
      </contour>
      <contour>
        <pt x="209" y="385" on="1"/>
        <pt x="252" y="385" on="0"/>
        <pt x="278" y="442" on="0"/>
        <pt x="278" y="500" on="1"/>
        <pt x="278" y="542" on="1"/>
        <pt x="278" y="598" on="0"/>
        <pt x="253" y="650" on="0"/>
        <pt x="165" y="650" on="0"/>
        <pt x="141" y="599" on="0"/>
        <pt x="141" y="543" on="1"/>
        <pt x="141" y="500" on="1"/>
        <pt x="141" y="442" on="0"/>
        <pt x="167" y="385" on="0"/>
      </contour>
    </TTGlyph>
    <TTGlyph name="pi" xMin="18" yMin="-10" xMax="581" yMax="524">
      <contour>
        <pt x="116" y="0" on="1"/>
        <pt x="116" y="435" on="1"/>
        <pt x="92" y="433" on="0"/>
        <pt x="79" y="428" on="1"/>
        <pt x="71" y="425" on="0"/>
        <pt x="59" y="420" on="0"/>
        <pt x="45" y="411" on="0"/>
        <pt x="37" y="406" on="0"/>
        <pt x="22" y="394" on="0"/>
        <pt x="18" y="391" on="1"/>
        <pt x="18" y="481" on="1"/>
        <pt x="55" y="524" on="0"/>
        <pt x="116" y="524" on="1"/>
        <pt x="581" y="524" on="1"/>
        <pt x="581" y="436" on="1"/>
        <pt x="492" y="436" on="1"/>
        <pt x="492" y="167" on="1"/>
        <pt x="492" y="137" on="0"/>
        <pt x="495" y="107" on="0"/>
        <pt x="516" y="87" on="0"/>
        <pt x="536" y="81" on="0"/>
        <pt x="564" y="76" on="1"/>
        <pt x="542" y="-10" on="1"/>
        <pt x="534" y="-10" on="1"/>
        <pt x="447" y="-10" on="0"/>
        <pt x="369" y="55" on="0"/>
        <pt x="369" y="145" on="1"/>
        <pt x="369" y="436" on="1"/>
        <pt x="239" y="436" on="1"/>
        <pt x="239" y="0" on="1"/>
      </contour>
    </TTGlyph>
    <TTGlyph name="plus" xMin="64" yMin="76" xMax="407" yMax="473">
      <contour>
        <pt x="196" y="76" on="1"/>
        <pt x="196" y="238" on="1"/>
        <pt x="64" y="238" on="1"/>
        <pt x="64" y="317" on="1"/>
        <pt x="196" y="317" on="1"/>
        <pt x="196" y="473" on="1"/>
        <pt x="276" y="473" on="1"/>
        <pt x="276" y="317" on="1"/>
        <pt x="407" y="317" on="1"/>
        <pt x="407" y="238" on="1"/>
        <pt x="276" y="238" on="1"/>
        <pt x="276" y="76" on="1"/>
      </contour>
    </TTGlyph>
    <TTGlyph name="plusminus" xMin="83" yMin="0" xMax="417" yMax="497">
      <contour>
        <pt x="83" y="0" on="1"/>
        <pt x="83" y="81" on="1"/>
        <pt x="417" y="81" on="1"/>
        <pt x="417" y="0" on="1"/>
      </contour>
      <contour>
        <pt x="209" y="159" on="1"/>
        <pt x="209" y="289" on="1"/>
        <pt x="83" y="289" on="1"/>
        <pt x="83" y="369" on="1"/>
        <pt x="209" y="369" on="1"/>
        <pt x="209" y="497" on="1"/>
        <pt x="291" y="497" on="1"/>
        <pt x="291" y="369" on="1"/>
        <pt x="417" y="369" on="1"/>
        <pt x="417" y="289" on="1"/>
        <pt x="291" y="289" on="1"/>
        <pt x="291" y="159" on="1"/>
      </contour>
    </TTGlyph>
    <TTGlyph name="product" xMin="74" yMin="-7" xMax="793" yMax="711">
      <contour>
        <pt x="434" y="-7" on="1"/>
        <pt x="282" y="-7" on="0"/>
        <pt x="74" y="200" on="0"/>
        <pt x="74" y="505" on="0"/>
        <pt x="282" y="711" on="0"/>
        <pt x="587" y="711" on="0"/>
        <pt x="793" y="506" on="0"/>
        <pt x="793" y="200" on="0"/>
        <pt x="586" y="-7" on="0"/>
      </contour>
      <contour>
        <pt x="435" y="40" on="1"/>
        <pt x="568" y="40" on="0"/>
        <pt x="741" y="219" on="0"/>
        <pt x="741" y="487" on="0"/>
        <pt x="568" y="665" on="0"/>
        <pt x="302" y="665" on="0"/>
        <pt x="127" y="487" on="0"/>
        <pt x="127" y="219" on="0"/>
        <pt x="302" y="40" on="0"/>
      </contour>
      <contour>
        <pt x="382" y="362" on="1"/>
        <pt x="473" y="362" on="1"/>
        <pt x="540" y="362" on="0"/>
        <pt x="540" y="428" on="1"/>
        <pt x="540" y="440" on="1"/>
        <pt x="540" y="519" on="0"/>
        <pt x="478" y="519" on="1"/>
        <pt x="382" y="519" on="1"/>
      </contour>
      <contour>
        <pt x="318" y="156" on="1"/>
        <pt x="318" y="563" on="1"/>
        <pt x="476" y="563" on="1"/>
        <pt x="601" y="563" on="0"/>
        <pt x="604" y="443" on="1"/>
        <pt x="604" y="437" on="1"/>
        <pt x="604" y="318" on="0"/>
        <pt x="469" y="318" on="1"/>
        <pt x="382" y="318" on="1"/>
        <pt x="382" y="156" on="1"/>
      </contour>
    </TTGlyph>
    <TTGlyph name="q" xMin="61" yMin="-200" xMax="509" yMax="536">
      <contour>
        <pt x="287" y="81" on="1"/>
        <pt x="312" y="81" on="0"/>
        <pt x="371" y="97" on="0"/>
        <pt x="376" y="107" on="1"/>
        <pt x="376" y="410" on="1"/>
        <pt x="355" y="443" on="0"/>
        <pt x="287" y="443" on="1"/>
        <pt x="193" y="443" on="0"/>
        <pt x="193" y="369" on="1"/>
        <pt x="193" y="150" on="1"/>
        <pt x="193" y="112" on="0"/>
        <pt x="240" y="81" on="0"/>
      </contour>
      <contour>
        <pt x="376" y="-200" on="1"/>
        <pt x="376" y="16" on="1"/>
        <pt x="328" y="-11" on="0"/>
        <pt x="262" y="-11" on="1"/>
        <pt x="159" y="-11" on="0"/>
        <pt x="61" y="82" on="0"/>
        <pt x="61" y="155" on="1"/>
        <pt x="61" y="366" on="1"/>
        <pt x="61" y="444" on="0"/>
        <pt x="170" y="536" on="0"/>
        <pt x="346" y="536" on="0"/>
        <pt x="400" y="491" on="1"/>
        <pt x="410" y="524" on="1"/>
        <pt x="509" y="524" on="1"/>
        <pt x="509" y="-200" on="1"/>
      </contour>
    </TTGlyph>
    <TTGlyph name="question" xMin="63" yMin="0" xMax="546" yMax="733">
      <contour>
        <pt x="209" y="0" on="1"/>
        <pt x="209" y="120" on="1"/>
        <pt x="331" y="120" on="1"/>
        <pt x="331" y="0" on="1"/>
      </contour>
      <contour>
        <pt x="546" y="448" on="0"/>
        <pt x="487" y="341" on="0"/>
        <pt x="418" y="284" on="1"/>
        <pt x="418" y="284" on="0"/>
        <pt x="329" y="210" on="1"/>
        <pt x="217" y="210" on="1"/>
        <pt x="338" y="361" on="1"/>
        <pt x="374" y="407" on="0"/>
        <pt x="403" y="473" on="0"/>
        <pt x="403" y="567" on="0"/>
        <pt x="363" y="625" on="0"/>
        <pt x="234" y="625" on="0"/>
        <pt x="197" y="572" on="0"/>
        <pt x="197" y="511" on="1"/>
        <pt x="197" y="470" on="1"/>
        <pt x="63" y="470" on="1"/>
        <pt x="63" y="506" on="1"/>
        <pt x="63" y="562" on="0"/>
        <pt x="79" y="635" on="0"/>
        <pt x="103" y="668" on="1"/>
        <pt x="150" y="733" on="0"/>
        <pt x="302" y="733" on="1"/>
        <pt x="452" y="733" on="0"/>
        <pt x="502" y="667" on="1"/>
        <pt x="527" y="635" on="0"/>
        <pt x="546" y="566" on="0"/>
      </contour>
    </TTGlyph>
    <TTGlyph name="questiondown" xMin="53" yMin="-138" xMax="536" yMax="595">
      <component glyphName="question" x="599" y="595" scale="-1.0" flags="0x1004"/>
    </TTGlyph>
    <TTGlyph name="quotedbl" xMin="97" yMin="426" xMax="403" yMax="740">
      <contour>
        <pt x="308" y="426" on="1"/>
        <pt x="279" y="740" on="1"/>
        <pt x="403" y="740" on="1"/>
        <pt x="366" y="426" on="1"/>
      </contour>
      <contour>
        <pt x="135" y="426" on="1"/>
        <pt x="97" y="740" on="1"/>
        <pt x="220" y="740" on="1"/>
        <pt x="193" y="426" on="1"/>
      </contour>
    </TTGlyph>
    <TTGlyph name="quotedblbase" xMin="145" yMin="-190" xMax="545" yMax="135">
      <contour>
        <pt x="302" y="26" on="1"/>
        <pt x="302" y="-39" on="0"/>
        <pt x="237" y="-162" on="0"/>
        <pt x="206" y="-190" on="1"/>
        <pt x="154" y="-167" on="1"/>
        <pt x="179" y="-139" on="0"/>
        <pt x="225" y="-45" on="0"/>
        <pt x="225" y="0" on="1"/>
        <pt x="225" y="0" on="0"/>
        <pt x="145" y="0" on="1"/>
        <pt x="145" y="135" on="1"/>
        <pt x="302" y="135" on="1"/>
      </contour>
      <contour>
        <pt x="545" y="26" on="1"/>
        <pt x="545" y="-39" on="0"/>
        <pt x="481" y="-162" on="0"/>
        <pt x="450" y="-190" on="1"/>
        <pt x="397" y="-167" on="1"/>
        <pt x="422" y="-139" on="0"/>
        <pt x="469" y="-45" on="0"/>
        <pt x="469" y="0" on="1"/>
        <pt x="388" y="0" on="1"/>
        <pt x="388" y="135" on="1"/>
        <pt x="545" y="135" on="1"/>
      </contour>
    </TTGlyph>
    <TTGlyph name="quotedblleft" xMin="125" yMin="415" xMax="515" yMax="740">
      <contour>
        <pt x="357" y="524" on="1"/>
        <pt x="357" y="589" on="0"/>
        <pt x="422" y="712" on="0"/>
        <pt x="453" y="740" on="1"/>
        <pt x="505" y="717" on="1"/>
        <pt x="480" y="689" on="0"/>
        <pt x="434" y="595" on="0"/>
        <pt x="434" y="550" on="1"/>
        <pt x="434" y="550" on="0"/>
        <pt x="515" y="550" on="1"/>
        <pt x="515" y="415" on="1"/>
        <pt x="357" y="415" on="1"/>
      </contour>
      <contour>
        <pt x="125" y="524" on="1"/>
        <pt x="125" y="589" on="0"/>
        <pt x="190" y="712" on="0"/>
        <pt x="221" y="740" on="1"/>
        <pt x="273" y="717" on="1"/>
        <pt x="248" y="689" on="0"/>
        <pt x="202" y="595" on="0"/>
        <pt x="202" y="550" on="1"/>
        <pt x="282" y="550" on="1"/>
        <pt x="282" y="415" on="1"/>
        <pt x="125" y="415" on="1"/>
      </contour>
    </TTGlyph>
    <TTGlyph name="quotedblright" xMin="145" yMin="416" xMax="534" yMax="740">
      <contour>
        <pt x="534" y="631" on="1"/>
        <pt x="534" y="566" on="0"/>
        <pt x="469" y="444" on="0"/>
        <pt x="438" y="416" on="1"/>
        <pt x="386" y="438" on="1"/>
        <pt x="411" y="466" on="0"/>
        <pt x="458" y="560" on="0"/>
        <pt x="458" y="605" on="1"/>
        <pt x="458" y="605" on="0"/>
        <pt x="377" y="605" on="1"/>
        <pt x="377" y="740" on="1"/>
        <pt x="534" y="740" on="1"/>
      </contour>
      <contour>
        <pt x="302" y="631" on="1"/>
        <pt x="302" y="566" on="0"/>
        <pt x="237" y="444" on="0"/>
        <pt x="206" y="416" on="1"/>
        <pt x="154" y="438" on="1"/>
        <pt x="179" y="466" on="0"/>
        <pt x="225" y="560" on="0"/>
        <pt x="225" y="605" on="1"/>
        <pt x="145" y="605" on="1"/>
        <pt x="145" y="740" on="1"/>
        <pt x="302" y="740" on="1"/>
      </contour>
    </TTGlyph>
    <TTGlyph name="quoteleft" xMin="145" yMin="409" xMax="302" yMax="734">
      <contour>
        <pt x="145" y="518" on="1"/>
        <pt x="145" y="583" on="0"/>
        <pt x="209" y="706" on="0"/>
        <pt x="240" y="734" on="1"/>
        <pt x="292" y="711" on="1"/>
        <pt x="267" y="683" on="0"/>
        <pt x="221" y="589" on="0"/>
        <pt x="221" y="544" on="1"/>
        <pt x="221" y="544" on="0"/>
        <pt x="302" y="544" on="1"/>
        <pt x="302" y="409" on="1"/>
        <pt x="145" y="409" on="1"/>
      </contour>
    </TTGlyph>
    <TTGlyph name="quoteright" xMin="125" yMin="410" xMax="282" yMax="734">
      <contour>
        <pt x="282" y="625" on="1"/>
        <pt x="282" y="560" on="0"/>
        <pt x="218" y="438" on="0"/>
        <pt x="187" y="410" on="1"/>
        <pt x="134" y="432" on="1"/>
        <pt x="159" y="460" on="0"/>
        <pt x="206" y="555" on="0"/>
        <pt x="206" y="600" on="1"/>
        <pt x="206" y="600" on="0"/>
        <pt x="125" y="600" on="1"/>
        <pt x="125" y="734" on="1"/>
        <pt x="282" y="734" on="1"/>
      </contour>
    </TTGlyph>
    <TTGlyph name="quotesinglbase" xMin="145" yMin="-190" xMax="302" yMax="135">
      <contour>
        <pt x="302" y="26" on="1"/>
        <pt x="302" y="-39" on="0"/>
        <pt x="237" y="-162" on="0"/>
        <pt x="206" y="-190" on="1"/>
        <pt x="154" y="-167" on="1"/>
        <pt x="179" y="-139" on="0"/>
        <pt x="225" y="-45" on="0"/>
        <pt x="225" y="0" on="1"/>
        <pt x="225" y="0" on="0"/>
        <pt x="145" y="0" on="1"/>
        <pt x="145" y="135" on="1"/>
        <pt x="302" y="135" on="1"/>
      </contour>
    </TTGlyph>
    <TTGlyph name="quotesingle" xMin="126" yMin="426" xMax="250" yMax="740">
      <contour>
        <pt x="165" y="426" on="1"/>
        <pt x="126" y="740" on="1"/>
        <pt x="250" y="740" on="1"/>
        <pt x="223" y="426" on="1"/>
      </contour>
    </TTGlyph>
    <TTGlyph name="r" xMin="78" yMin="0" xMax="396" yMax="533">
      <contour>
        <pt x="396" y="532" on="1"/>
        <pt x="393" y="419" on="1"/>
        <pt x="333" y="416" on="0"/>
        <pt x="218" y="381" on="0"/>
        <pt x="211" y="352" on="1"/>
        <pt x="211" y="0" on="1"/>
        <pt x="78" y="0" on="1"/>
        <pt x="78" y="524" on="1"/>
        <pt x="211" y="524" on="1"/>
        <pt x="211" y="462" on="1"/>
        <pt x="227" y="492" on="0"/>
        <pt x="340" y="533" on="0"/>
        <pt x="384" y="533" on="1"/>
      </contour>
    </TTGlyph>
    <TTGlyph name="racute" xMin="78" yMin="0" xMax="421" yMax="773">
      <component glyphName="r" x="0" y="0" flags="0x1004"/>
      <component glyphName="acute" x="183" y="0" flags="0x1004"/>
    </TTGlyph>
    <TTGlyph name="radical" xMin="-1" yMin="0" xMax="619" yMax="735">
      <contour>
        <pt x="-1" y="250" on="1"/>
        <pt x="-1" y="304" on="1"/>
        <pt x="166" y="304" on="1"/>
        <pt x="271" y="112" on="1"/>
        <pt x="523" y="735" on="1"/>
        <pt x="619" y="735" on="1"/>
        <pt x="329" y="0" on="1"/>
        <pt x="208" y="0" on="1"/>
        <pt x="57" y="250" on="1"/>
      </contour>
    </TTGlyph>
    <TTGlyph name="rcaron" xMin="78" yMin="0" xMax="422" yMax="739">
      <component glyphName="r" x="0" y="0" flags="0x1004"/>
      <component glyphName="caron" x="134" y="0" flags="0x1004"/>
    </TTGlyph>
    <TTGlyph name="registered" xMin="74" yMin="-7" xMax="793" yMax="711">
      <contour>
        <pt x="434" y="-7" on="1"/>
        <pt x="282" y="-7" on="0"/>
        <pt x="74" y="200" on="0"/>
        <pt x="74" y="505" on="0"/>
        <pt x="282" y="711" on="0"/>
        <pt x="587" y="711" on="0"/>
        <pt x="793" y="506" on="0"/>
        <pt x="793" y="200" on="0"/>
        <pt x="586" y="-7" on="0"/>
      </contour>
      <contour>
        <pt x="435" y="40" on="1"/>
        <pt x="568" y="40" on="0"/>
        <pt x="741" y="219" on="0"/>
        <pt x="741" y="487" on="0"/>
        <pt x="568" y="665" on="0"/>
        <pt x="302" y="665" on="0"/>
        <pt x="127" y="487" on="0"/>
        <pt x="127" y="219" on="0"/>
        <pt x="302" y="40" on="0"/>
      </contour>
      <contour>
        <pt x="353" y="362" on="1"/>
        <pt x="483" y="362" on="1"/>
        <pt x="550" y="362" on="0"/>
        <pt x="550" y="428" on="1"/>
        <pt x="550" y="440" on="1"/>
        <pt x="550" y="519" on="0"/>
        <pt x="488" y="519" on="1"/>
        <pt x="353" y="519" on="1"/>
      </contour>
      <contour>
        <pt x="289" y="156" on="1"/>
        <pt x="289" y="563" on="1"/>
        <pt x="486" y="563" on="1"/>
        <pt x="611" y="563" on="0"/>
        <pt x="614" y="443" on="1"/>
        <pt x="614" y="437" on="1"/>
        <pt x="614" y="345" on="0"/>
        <pt x="540" y="325" on="1"/>
        <pt x="630" y="156" on="1"/>
        <pt x="567" y="156" on="1"/>
        <pt x="479" y="318" on="1"/>
        <pt x="353" y="318" on="1"/>
        <pt x="353" y="156" on="1"/>
      </contour>
    </TTGlyph>
    <TTGlyph name="ring" xMin="32" yMin="577" xMax="257" yMax="784">
      <contour>
        <pt x="145" y="577" on="1"/>
        <pt x="92" y="577" on="0"/>
        <pt x="32" y="632" on="0"/>
        <pt x="32" y="730" on="0"/>
        <pt x="92" y="784" on="0"/>
        <pt x="197" y="784" on="0"/>
        <pt x="257" y="730" on="0"/>
        <pt x="257" y="632" on="0"/>
        <pt x="198" y="577" on="0"/>
      </contour>
      <contour>
        <pt x="145" y="621" on="1"/>
        <pt x="202" y="621" on="0"/>
        <pt x="202" y="741" on="0"/>
        <pt x="87" y="741" on="0"/>
        <pt x="87" y="621" on="0"/>
      </contour>
    </TTGlyph>
    <TTGlyph name="s" xMin="66" yMin="-10" xMax="459" yMax="534">
      <contour>
        <pt x="260" y="534" on="1"/>
        <pt x="359" y="534" on="0"/>
        <pt x="447" y="491" on="1"/>
        <pt x="416" y="409" on="1"/>
        <pt x="391" y="422" on="0"/>
        <pt x="305" y="443" on="0"/>
        <pt x="227" y="443" on="0"/>
        <pt x="196" y="415" on="0"/>
        <pt x="196" y="350" on="0"/>
        <pt x="232" y="340" on="1"/>
        <pt x="341" y="306" on="1"/>
        <pt x="406" y="285" on="0"/>
        <pt x="459" y="211" on="0"/>
        <pt x="459" y="148" on="1"/>
        <pt x="459" y="68" on="0"/>
        <pt x="353" y="-10" on="0"/>
        <pt x="176" y="-10" on="0"/>
        <pt x="66" y="30" on="1"/>
        <pt x="93" y="120" on="1"/>
        <pt x="184" y="81" on="0"/>
        <pt x="266" y="81" on="1"/>
        <pt x="337" y="81" on="0"/>
        <pt x="337" y="150" on="1"/>
        <pt x="337" y="189" on="0"/>
        <pt x="293" y="203" on="1"/>
        <pt x="178" y="239" on="1"/>
        <pt x="69" y="273" on="0"/>
        <pt x="69" y="383" on="1"/>
        <pt x="69" y="461" on="0"/>
        <pt x="175" y="534" on="0"/>
      </contour>
    </TTGlyph>
    <TTGlyph name="sacute" xMin="66" yMin="-10" xMax="459" yMax="773">
      <component glyphName="s" x="0" y="0" flags="0x1004"/>
      <component glyphName="acute" x="199" y="0" flags="0x1004"/>
    </TTGlyph>
    <TTGlyph name="scaron" xMin="66" yMin="-10" xMax="459" yMax="739">
      <component glyphName="s" x="0" y="0" flags="0x1004"/>
      <component glyphName="caron" x="150" y="0" flags="0x1004"/>
    </TTGlyph>
    <TTGlyph name="scedilla" xMin="66" yMin="-236" xMax="459" yMax="534">
      <component glyphName="s" x="0" y="0" flags="0x1004"/>
      <component glyphName="cedilla" x="166" y="0" flags="0x1004"/>
    </TTGlyph>
    <TTGlyph name="scircumflex" xMin="66" yMin="-10" xMax="459" yMax="739">
      <component glyphName="s" x="0" y="0" flags="0x1004"/>
      <component glyphName="circumflex" x="150" y="0" flags="0x1004"/>
    </TTGlyph>
    <TTGlyph name="section" xMin="61" yMin="-11" xMax="470" yMax="731">
      <contour>
        <pt x="155" y="414" on="1"/>
        <pt x="155" y="377" on="0"/>
        <pt x="197" y="358" on="1"/>
        <pt x="360" y="283" on="1"/>
        <pt x="371" y="300" on="0"/>
        <pt x="371" y="342" on="0"/>
        <pt x="353" y="376" on="0"/>
        <pt x="323" y="389" on="1"/>
        <pt x="323" y="389" on="0"/>
        <pt x="176" y="459" on="1"/>
        <pt x="169" y="454" on="0"/>
        <pt x="155" y="426" on="0"/>
      </contour>
      <contour>
        <pt x="271" y="-11" on="1"/>
        <pt x="142" y="-11" on="0"/>
        <pt x="61" y="55" on="1"/>
        <pt x="106" y="137" on="1"/>
        <pt x="185" y="86" on="0"/>
        <pt x="256" y="86" on="1"/>
        <pt x="292" y="86" on="0"/>
        <pt x="336" y="116" on="0"/>
        <pt x="336" y="160" on="0"/>
        <pt x="315" y="187" on="0"/>
        <pt x="287" y="201" on="1"/>
        <pt x="159" y="262" on="1"/>
        <pt x="65" y="308" on="0"/>
        <pt x="65" y="387" on="1"/>
        <pt x="65" y="449" on="0"/>
        <pt x="118" y="488" on="1"/>
        <pt x="73" y="524" on="0"/>
        <pt x="73" y="582" on="1"/>
        <pt x="73" y="657" on="0"/>
        <pt x="171" y="731" on="0"/>
        <pt x="258" y="731" on="1"/>
        <pt x="374" y="731" on="0"/>
        <pt x="451" y="672" on="1"/>
        <pt x="410" y="595" on="1"/>
        <pt x="335" y="639" on="0"/>
        <pt x="269" y="639" on="1"/>
        <pt x="236" y="639" on="0"/>
        <pt x="197" y="613" on="0"/>
        <pt x="197" y="570" on="0"/>
        <pt x="217" y="549" on="0"/>
        <pt x="238" y="539" on="1"/>
        <pt x="365" y="479" on="1"/>
        <pt x="470" y="429" on="0"/>
        <pt x="470" y="350" on="1"/>
        <pt x="470" y="296" on="0"/>
        <pt x="418" y="247" on="1"/>
        <pt x="459" y="212" on="0"/>
        <pt x="459" y="79" on="0"/>
        <pt x="361" y="-11" on="0"/>
      </contour>
    </TTGlyph>
    <TTGlyph name="semicolon" xMin="83" yMin="-93" xMax="273" yMax="556">
      <component glyphName="period" x="3" y="417" flags="0x1004"/>
      <component glyphName="comma" x="7" y="97" flags="0x1004"/>
    </TTGlyph>
    <TTGlyph name="seven" xMin="109" yMin="0" xMax="597" yMax="721">
      <contour>
        <pt x="597" y="721" on="1"/>
        <pt x="597" y="620" on="1"/>
        <pt x="326" y="0" on="1"/>
        <pt x="173" y="0" on="1"/>
        <pt x="438" y="607" on="1"/>
        <pt x="109" y="607" on="1"/>
        <pt x="109" y="721" on="1"/>
      </contour>
    </TTGlyph>
    <TTGlyph name="six" xMin="92" yMin="-10" xMax="611" yMax="721">
      <contour>
        <pt x="354" y="97" on="1"/>
        <pt x="411" y="97" on="0"/>
        <pt x="478" y="166" on="0"/>
        <pt x="478" y="288" on="0"/>
        <pt x="420" y="354" on="0"/>
        <pt x="352" y="354" on="1"/>
        <pt x="230" y="354" on="0"/>
        <pt x="230" y="224" on="1"/>
        <pt x="230" y="166" on="0"/>
        <pt x="297" y="97" on="0"/>
      </contour>
      <contour>
        <pt x="347" y="-10" on="1"/>
        <pt x="229" y="-10" on="0"/>
        <pt x="92" y="115" on="0"/>
        <pt x="92" y="344" on="0"/>
        <pt x="158" y="471" on="1"/>
        <pt x="299" y="721" on="1"/>
        <pt x="456" y="721" on="1"/>
        <pt x="298" y="441" on="1"/>
        <pt x="345" y="454" on="0"/>
        <pt x="375" y="454" on="1"/>
        <pt x="494" y="454" on="0"/>
        <pt x="611" y="345" on="0"/>
        <pt x="611" y="218" on="1"/>
        <pt x="611" y="112" on="0"/>
        <pt x="469" y="-10" on="0"/>
      </contour>
    </TTGlyph>
    <TTGlyph name="slash" xMin="52" yMin="0" xMax="448" yMax="740">
      <contour>
        <pt x="52" y="0" on="1"/>
        <pt x="330" y="740" on="1"/>
        <pt x="448" y="740" on="1"/>
        <pt x="170" y="0" on="1"/>
      </contour>
    </TTGlyph>
    <TTGlyph name="sterling" xMin="65" yMin="0" xMax="552" yMax="740">
      <contour>
        <pt x="549" y="0" on="1"/>
        <pt x="101" y="0" on="1"/>
        <pt x="125" y="303" on="1"/>
        <pt x="65" y="303" on="1"/>
        <pt x="65" y="396" on="1"/>
        <pt x="132" y="396" on="1"/>
        <pt x="142" y="518" on="1"/>
        <pt x="154" y="740" on="0"/>
        <pt x="368" y="740" on="1"/>
        <pt x="478" y="740" on="0"/>
        <pt x="552" y="691" on="1"/>
        <pt x="517" y="593" on="1"/>
        <pt x="445" y="625" on="0"/>
        <pt x="335" y="625" on="0"/>
        <pt x="290" y="565" on="0"/>
        <pt x="286" y="510" on="1"/>
        <pt x="277" y="396" on="1"/>
        <pt x="509" y="396" on="1"/>
        <pt x="509" y="303" on="1"/>
        <pt x="269" y="303" on="1"/>
        <pt x="252" y="110" on="1"/>
        <pt x="549" y="110" on="1"/>
      </contour>
    </TTGlyph>
    <TTGlyph name="summation" xMin="63" yMin="0" xMax="529" yMax="721">
      <contour>
        <pt x="529" y="0" on="1"/>
        <pt x="63" y="0" on="1"/>
        <pt x="63" y="115" on="1"/>
        <pt x="291" y="372" on="1"/>
        <pt x="63" y="607" on="1"/>
        <pt x="63" y="721" on="1"/>
        <pt x="529" y="721" on="1"/>
        <pt x="529" y="608" on="1"/>
        <pt x="229" y="608" on="1"/>
        <pt x="441" y="399" on="1"/>
        <pt x="441" y="351" on="1"/>
        <pt x="223" y="113" on="1"/>
        <pt x="529" y="113" on="1"/>
      </contour>
    </TTGlyph>
    <TTGlyph name="t" xMin="24" yMin="-6" xMax="368" yMax="693">
      <contour>
        <pt x="316" y="-6" on="1"/>
        <pt x="196" y="-6" on="0"/>
        <pt x="107" y="67" on="0"/>
        <pt x="107" y="167" on="1"/>
        <pt x="107" y="440" on="1"/>
        <pt x="24" y="440" on="1"/>
        <pt x="24" y="524" on="1"/>
        <pt x="111" y="524" on="1"/>
        <pt x="124" y="693" on="1"/>
        <pt x="240" y="693" on="1"/>
        <pt x="240" y="524" on="1"/>
        <pt x="365" y="524" on="1"/>
        <pt x="365" y="440" on="1"/>
        <pt x="240" y="440" on="1"/>
        <pt x="240" y="176" on="1"/>
        <pt x="240" y="125" on="0"/>
        <pt x="274" y="93" on="0"/>
        <pt x="338" y="93" on="1"/>
        <pt x="368" y="93" on="1"/>
        <pt x="363" y="-6" on="1"/>
      </contour>
    </TTGlyph>
    <TTGlyph name="tbar" xMin="24" yMin="-6" xMax="368" yMax="693">
      <contour>
        <pt x="316" y="-6" on="1"/>
        <pt x="196" y="-6" on="0"/>
        <pt x="107" y="67" on="0"/>
        <pt x="107" y="167" on="1"/>
        <pt x="107" y="265" on="1"/>
        <pt x="36" y="265" on="1"/>
        <pt x="36" y="342" on="1"/>
        <pt x="107" y="342" on="1"/>
        <pt x="107" y="440" on="1"/>
        <pt x="24" y="440" on="1"/>
        <pt x="24" y="524" on="1"/>
        <pt x="111" y="524" on="1"/>
        <pt x="124" y="693" on="1"/>
        <pt x="240" y="693" on="1"/>
        <pt x="240" y="524" on="1"/>
        <pt x="365" y="524" on="1"/>
        <pt x="365" y="440" on="1"/>
        <pt x="240" y="440" on="1"/>
        <pt x="240" y="342" on="1"/>
        <pt x="331" y="342" on="1"/>
        <pt x="331" y="265" on="1"/>
        <pt x="240" y="265" on="1"/>
        <pt x="240" y="176" on="1"/>
        <pt x="240" y="125" on="0"/>
        <pt x="274" y="93" on="0"/>
        <pt x="338" y="93" on="1"/>
        <pt x="368" y="93" on="1"/>
        <pt x="363" y="-6" on="1"/>
      </contour>
    </TTGlyph>
    <TTGlyph name="tcaron" xMin="24" yMin="-6" xMax="451" yMax="907">
      <component glyphName="t" x="0" y="0" flags="0x1004"/>
      <component glyphName="caron.alt" x="10" y="0" flags="0x1004"/>
    </TTGlyph>
    <TTGlyph name="thorn" xMin="77" yMin="-200" xMax="527" yMax="740">
      <contour>
        <pt x="300" y="81" on="1"/>
        <pt x="394" y="81" on="0"/>
        <pt x="394" y="156" on="1"/>
        <pt x="394" y="369" on="1"/>
        <pt x="394" y="442" on="0"/>
        <pt x="304" y="442" on="1"/>
        <pt x="243" y="442" on="0"/>
        <pt x="210" y="411" on="1"/>
        <pt x="210" y="104" on="1"/>
        <pt x="250" y="81" on="0"/>
      </contour>
      <contour>
        <pt x="77" y="-200" on="1"/>
        <pt x="77" y="740" on="1"/>
        <pt x="210" y="740" on="1"/>
        <pt x="210" y="506" on="1"/>
        <pt x="263" y="535" on="0"/>
        <pt x="326" y="535" on="1"/>
        <pt x="420" y="535" on="0"/>
        <pt x="527" y="444" on="0"/>
        <pt x="527" y="367" on="1"/>
        <pt x="527" y="367" on="0"/>
        <pt x="527" y="159" on="1"/>
        <pt x="527" y="86" on="0"/>
        <pt x="416" y="-12" on="0"/>
        <pt x="311" y="-12" on="1"/>
        <pt x="257" y="-12" on="0"/>
        <pt x="210" y="8" on="1"/>
        <pt x="210" y="-200" on="1"/>
      </contour>
    </TTGlyph>
    <TTGlyph name="three" xMin="105" yMin="-10" xMax="594" yMax="730">
      <contour>
        <pt x="344" y="-10" on="1"/>
        <pt x="229" y="-10" on="0"/>
        <pt x="107" y="105" on="0"/>
        <pt x="105" y="213" on="1"/>
        <pt x="241" y="213" on="1"/>
        <pt x="243" y="98" on="0"/>
        <pt x="346" y="98" on="1"/>
        <pt x="451" y="98" on="0"/>
        <pt x="451" y="214" on="1"/>
        <pt x="451" y="274" on="0"/>
        <pt x="389" y="331" on="0"/>
        <pt x="311" y="331" on="1"/>
        <pt x="311" y="428" on="1"/>
        <pt x="388" y="428" on="0"/>
        <pt x="447" y="478" on="0"/>
        <pt x="447" y="574" on="0"/>
        <pt x="395" y="621" on="0"/>
        <pt x="297" y="621" on="0"/>
        <pt x="244" y="560" on="0"/>
        <pt x="244" y="504" on="1"/>
        <pt x="108" y="504" on="1"/>
        <pt x="109" y="613" on="0"/>
        <pt x="232" y="730" on="0"/>
        <pt x="462" y="730" on="0"/>
        <pt x="587" y="631" on="0"/>
        <pt x="587" y="538" on="1"/>
        <pt x="587" y="474" on="0"/>
        <pt x="531" y="392" on="0"/>
        <pt x="479" y="381" on="1"/>
        <pt x="534" y="365" on="0"/>
        <pt x="594" y="276" on="0"/>
        <pt x="594" y="208" on="1"/>
        <pt x="594" y="103" on="0"/>
        <pt x="464" y="-10" on="0"/>
      </contour>
    </TTGlyph>
    <TTGlyph name="threequarters" xMin="120" yMin="0" xMax="1145" yMax="735">
      <contour>
        <pt x="434" y="0" on="1"/>
        <pt x="747" y="735" on="1"/>
        <pt x="832" y="735" on="1"/>
        <pt x="519" y="0" on="1"/>
      </contour>
      <contour>
        <pt x="985" y="0" on="1"/>
        <pt x="985" y="103" on="1"/>
        <pt x="741" y="103" on="1"/>
        <pt x="741" y="180" on="1"/>
        <pt x="877" y="524" on="1"/>
        <pt x="971" y="524" on="1"/>
        <pt x="839" y="182" on="1"/>
        <pt x="985" y="182" on="1"/>
        <pt x="985" y="300" on="1"/>
        <pt x="1063" y="300" on="1"/>
        <pt x="1063" y="182" on="1"/>
        <pt x="1145" y="182" on="1"/>
        <pt x="1145" y="103" on="1"/>
        <pt x="1063" y="103" on="1"/>
        <pt x="1063" y="0" on="1"/>
      </contour>
      <contour>
        <pt x="299" y="213" on="1"/>
        <pt x="202" y="213" on="0"/>
        <pt x="122" y="289" on="0"/>
        <pt x="120" y="377" on="1"/>
        <pt x="210" y="377" on="1"/>
        <pt x="211" y="321" on="0"/>
        <pt x="252" y="289" on="0"/>
        <pt x="350" y="289" on="0"/>
        <pt x="380" y="327" on="0"/>
        <pt x="380" y="414" on="0"/>
        <pt x="339" y="448" on="0"/>
        <pt x="274" y="448" on="1"/>
        <pt x="274" y="517" on="1"/>
        <pt x="362" y="517" on="0"/>
        <pt x="372" y="548" on="1"/>
        <pt x="377" y="561" on="0"/>
        <pt x="377" y="624" on="0"/>
        <pt x="342" y="656" on="0"/>
        <pt x="246" y="656" on="0"/>
        <pt x="212" y="621" on="0"/>
        <pt x="212" y="567" on="1"/>
        <pt x="212" y="564" on="1"/>
        <pt x="122" y="564" on="1"/>
        <pt x="122" y="657" on="0"/>
        <pt x="212" y="730" on="0"/>
        <pt x="383" y="730" on="0"/>
        <pt x="468" y="659" on="0"/>
        <pt x="468" y="595" on="1"/>
        <pt x="468" y="499" on="0"/>
        <pt x="392" y="483" on="1"/>
        <pt x="472" y="461" on="0"/>
        <pt x="472" y="363" on="1"/>
        <pt x="472" y="213" on="0"/>
      </contour>
    </TTGlyph>
    <TTGlyph name="tilde" xMin="34" yMin="601" xMax="337" yMax="736">
      <contour>
        <pt x="131" y="601" on="1"/>
        <pt x="34" y="601" on="0"/>
        <pt x="34" y="728" on="1"/>
        <pt x="91" y="728" on="1"/>
        <pt x="91" y="686" on="0"/>
        <pt x="122" y="686" on="1"/>
        <pt x="131" y="686" on="0"/>
        <pt x="145" y="698" on="1"/>
        <pt x="187" y="736" on="0"/>
        <pt x="239" y="736" on="1"/>
        <pt x="337" y="736" on="0"/>
        <pt x="337" y="609" on="1"/>
        <pt x="279" y="609" on="1"/>
        <pt x="279" y="651" on="0"/>
        <pt x="252" y="651" on="1"/>
        <pt x="243" y="651" on="0"/>
        <pt x="228" y="638" on="1"/>
        <pt x="183" y="601" on="0"/>
      </contour>
    </TTGlyph>
    <TTGlyph name="trademark" xMin="65" yMin="374" xMax="795" yMax="706">
      <contour>
        <pt x="154" y="374" on="1"/>
        <pt x="154" y="636" on="1"/>
        <pt x="65" y="636" on="1"/>
        <pt x="65" y="706" on="1"/>
        <pt x="338" y="706" on="1"/>
        <pt x="338" y="636" on="1"/>
        <pt x="249" y="636" on="1"/>
        <pt x="249" y="374" on="1"/>
      </contour>
      <contour>
        <pt x="403" y="374" on="1"/>
        <pt x="403" y="706" on="1"/>
        <pt x="509" y="706" on="1"/>
        <pt x="599" y="539" on="1"/>
        <pt x="690" y="706" on="1"/>
        <pt x="795" y="706" on="1"/>
        <pt x="795" y="374" on="1"/>
        <pt x="714" y="374" on="1"/>
        <pt x="714" y="605" on="1"/>
        <pt x="640" y="455" on="1"/>
        <pt x="561" y="455" on="1"/>
        <pt x="483" y="605" on="1"/>
        <pt x="483" y="374" on="1"/>
      </contour>
    </TTGlyph>
    <TTGlyph name="two" xMin="99" yMin="0" xMax="576" yMax="730">
      <contour>
        <pt x="569" y="0" on="1"/>
        <pt x="135" y="0" on="1"/>
        <pt x="118" y="110" on="1"/>
        <pt x="360" y="360" on="1"/>
        <pt x="404" y="405" on="0"/>
        <pt x="436" y="474" on="0"/>
        <pt x="436" y="517" on="1"/>
        <pt x="436" y="619" on="0"/>
        <pt x="341" y="619" on="1"/>
        <pt x="292" y="619" on="0"/>
        <pt x="245" y="560" on="0"/>
        <pt x="245" y="484" on="1"/>
        <pt x="99" y="484" on="1"/>
        <pt x="99" y="615" on="0"/>
        <pt x="207" y="730" on="0"/>
        <pt x="462" y="730" on="0"/>
        <pt x="576" y="616" on="0"/>
        <pt x="576" y="518" on="1"/>
        <pt x="576" y="441" on="0"/>
        <pt x="515" y="323" on="0"/>
        <pt x="445" y="257" on="1"/>
        <pt x="295" y="115" on="1"/>
        <pt x="569" y="115" on="1"/>
      </contour>
    </TTGlyph>
    <TTGlyph name="u" xMin="79" yMin="-12" xMax="538" yMax="524">
      <contour>
        <pt x="79" y="142" on="1"/>
        <pt x="79" y="142" on="0"/>
        <pt x="79" y="524" on="1"/>
        <pt x="212" y="524" on="1"/>
        <pt x="212" y="164" on="1"/>
        <pt x="212" y="126" on="0"/>
        <pt x="265" y="89" on="0"/>
        <pt x="342" y="89" on="0"/>
        <pt x="405" y="130" on="0"/>
        <pt x="405" y="171" on="1"/>
        <pt x="405" y="524" on="1"/>
        <pt x="538" y="524" on="1"/>
        <pt x="538" y="0" on="1"/>
        <pt x="413" y="0" on="1"/>
        <pt x="409" y="58" on="1"/>
        <pt x="394" y="27" on="0"/>
        <pt x="305" y="-12" on="0"/>
        <pt x="253" y="-12" on="1"/>
        <pt x="173" y="-12" on="0"/>
        <pt x="79" y="73" on="0"/>
      </contour>
    </TTGlyph>
    <TTGlyph name="uacute" xMin="79" yMin="-12" xMax="538" yMax="773">
      <component glyphName="u" x="0" y="0" flags="0x1004"/>
      <component glyphName="acute" x="232" y="0" flags="0x1004"/>
    </TTGlyph>
    <TTGlyph name="ubreve" xMin="79" yMin="-12" xMax="538" yMax="721">
      <component glyphName="u" x="0" y="0" flags="0x1004"/>
      <component glyphName="breve" x="184" y="0" flags="0x1004"/>
    </TTGlyph>
    <TTGlyph name="ucircumflex" xMin="79" yMin="-12" xMax="538" yMax="739">
      <component glyphName="u" x="0" y="0" flags="0x1004"/>
      <component glyphName="circumflex" x="184" y="0" flags="0x1004"/>
    </TTGlyph>
    <TTGlyph name="udieresis" xMin="79" yMin="-12" xMax="538" yMax="721">
      <component glyphName="u" x="0" y="0" flags="0x1004"/>
      <component glyphName="dieresis" x="72" y="0" flags="0x1004"/>
    </TTGlyph>
    <TTGlyph name="ugrave" xMin="79" yMin="-12" xMax="538" yMax="773">
      <component glyphName="u" x="0" y="0" flags="0x1004"/>
      <component glyphName="grave" x="120" y="0" flags="0x1004"/>
    </TTGlyph>
    <TTGlyph name="uhungarumlaut" xMin="79" yMin="-12" xMax="573" yMax="743">
      <component glyphName="u" x="0" y="0" flags="0x1004"/>
      <component glyphName="hungarumlaut" x="135" y="0" flags="0x1004"/>
    </TTGlyph>
    <TTGlyph name="umacron" xMin="79" yMin="-12" xMax="538" yMax="688">
      <component glyphName="u" x="0" y="0" flags="0x1004"/>
      <component glyphName="macron" x="188" y="0" flags="0x1004"/>
    </TTGlyph>
    <TTGlyph name="underscore" xMin="4" yMin="-16" xMax="435" yMax="70">
      <contour>
        <pt x="4" y="-16" on="1"/>
        <pt x="4" y="70" on="1"/>
        <pt x="435" y="70" on="1"/>
        <pt x="435" y="-16" on="1"/>
      </contour>
    </TTGlyph>
    <TTGlyph name="uni00AD" xMin="64" yMin="241" xMax="408" yMax="313">
      <contour>
        <pt x="64" y="241" on="1"/>
        <pt x="64" y="313" on="1"/>
        <pt x="408" y="313" on="1"/>
        <pt x="408" y="241" on="1"/>
      </contour>
    </TTGlyph>
    <TTGlyph name="uni00B2" xMin="65" yMin="305" xMax="413" yMax="772">
      <contour>
        <pt x="404" y="305" on="1"/>
        <pt x="92" y="305" on="1"/>
        <pt x="81" y="377" on="1"/>
        <pt x="256" y="531" on="1"/>
        <pt x="294" y="564" on="0"/>
        <pt x="320" y="605" on="0"/>
        <pt x="320" y="632" on="1"/>
        <pt x="320" y="701" on="0"/>
        <pt x="247" y="701" on="1"/>
        <pt x="200" y="701" on="0"/>
        <pt x="164" y="664" on="0"/>
        <pt x="164" y="613" on="1"/>
        <pt x="65" y="613" on="1"/>
        <pt x="65" y="698" on="0"/>
        <pt x="147" y="772" on="0"/>
        <pt x="330" y="772" on="0"/>
        <pt x="413" y="695" on="0"/>
        <pt x="413" y="632" on="1"/>
        <pt x="413" y="586" on="0"/>
        <pt x="367" y="517" on="0"/>
        <pt x="314" y="474" on="1"/>
        <pt x="195" y="377" on="1"/>
        <pt x="404" y="377" on="1"/>
      </contour>
    </TTGlyph>
    <TTGlyph name="uni00B3" xMin="68" yMin="297" xMax="393" yMax="772">
      <contour>
        <pt x="307" y="297" on="0"/>
        <pt x="153" y="297" on="0"/>
        <pt x="69" y="372" on="0"/>
        <pt x="68" y="448" on="1"/>
        <pt x="161" y="448" on="1"/>
        <pt x="162" y="407" on="0"/>
        <pt x="192" y="371" on="0"/>
        <pt x="263" y="371" on="0"/>
        <pt x="295" y="399" on="0"/>
        <pt x="295" y="472" on="0"/>
        <pt x="251" y="505" on="0"/>
        <pt x="189" y="505" on="1"/>
        <pt x="189" y="573" on="1"/>
        <pt x="251" y="573" on="0"/>
        <pt x="292" y="602" on="0"/>
        <pt x="292" y="668" on="0"/>
        <pt x="264" y="699" on="0"/>
        <pt x="191" y="699" on="0"/>
        <pt x="163" y="664" on="0"/>
        <pt x="163" y="623" on="1"/>
        <pt x="71" y="623" on="1"/>
        <pt x="71" y="772" on="0"/>
        <pt x="387" y="772" on="0"/>
        <pt x="387" y="644" on="1"/>
        <pt x="387" y="603" on="0"/>
        <pt x="349" y="546" on="0"/>
        <pt x="311" y="539" on="1"/>
        <pt x="393" y="518" on="0"/>
        <pt x="393" y="427" on="1"/>
        <pt x="393" y="361" on="0"/>
      </contour>
    </TTGlyph>
    <TTGlyph name="uni00B9" xMin="103" yMin="305" xMax="459" yMax="760">
      <contour>
        <pt x="104" y="305" on="1"/>
        <pt x="104" y="372" on="1"/>
        <pt x="243" y="372" on="1"/>
        <pt x="243" y="684" on="1"/>
        <pt x="111" y="667" on="1"/>
        <pt x="103" y="737" on="1"/>
        <pt x="272" y="760" on="1"/>
        <pt x="338" y="760" on="1"/>
        <pt x="338" y="372" on="1"/>
        <pt x="459" y="372" on="1"/>
        <pt x="459" y="305" on="1"/>
      </contour>
    </TTGlyph>
    <TTGlyph name="uni0122" xMin="82" yMin="-409" xMax="697" yMax="733">
      <component glyphName="uni0326" x="223" y="0" flags="0x1004"/>
      <component glyphName="G" x="0" y="0" flags="0x1004"/>
    </TTGlyph>
    <TTGlyph name="uni0123" xMin="68" yMin="-215" xMax="525" yMax="968">
      <component glyphName="uni0312" x="136" y="0" flags="0x1004"/>
      <component glyphName="g" x="0" y="0" flags="0x1004"/>
    </TTGlyph>
    <TTGlyph name="uni0136" xMin="104" yMin="-409" xMax="707" yMax="721">
      <component glyphName="uni0326" x="230" y="0" flags="0x1004"/>
      <component glyphName="K" x="0" y="0" flags="0x1004"/>
    </TTGlyph>
    <TTGlyph name="uni0137" xMin="83" yMin="-409" xMax="583" yMax="740">
      <component glyphName="uni0326" x="172" y="0" flags="0x1004"/>
      <component glyphName="k" x="0" y="0" flags="0x1004"/>
    </TTGlyph>
    <TTGlyph name="uni013B" xMin="104" yMin="-409" xMax="550" yMax="721">
      <component glyphName="uni0326" x="169" y="0" flags="0x1004"/>
      <component glyphName="L" x="0" y="0" flags="0x1004"/>
    </TTGlyph>
    <TTGlyph name="uni013C" xMin="83" yMin="-409" xMax="326" yMax="740">
      <component glyphName="uni0326" x="78" y="0" flags="0x1004"/>
      <component glyphName="l" x="0" y="0" flags="0x1004"/>
    </TTGlyph>
    <TTGlyph name="uni0145" xMin="104" yMin="-409" xMax="716" yMax="721">
      <component glyphName="uni0326" x="288" y="0" flags="0x1004"/>
      <component glyphName="N" x="0" y="0" flags="0x1004"/>
    </TTGlyph>
    <TTGlyph name="uni0146" xMin="82" yMin="-409" xMax="542" yMax="537">
      <component glyphName="uni0326" x="172" y="0" flags="0x1004"/>
      <component glyphName="n" x="0" y="0" flags="0x1004"/>
    </TTGlyph>
    <TTGlyph name="uni0156" xMin="104" yMin="-409" xMax="688" yMax="721">
      <component glyphName="uni0326" x="240" y="0" flags="0x1004"/>
      <component glyphName="R" x="0" y="0" flags="0x1004"/>
    </TTGlyph>
    <TTGlyph name="uni0157" xMin="70" yMin="-409" xMax="396" yMax="533">
      <component glyphName="uni0326" x="-5" y="0" flags="0x1004"/>
      <component glyphName="r" x="0" y="0" flags="0x1004"/>
    </TTGlyph>
    <TTGlyph name="uni0162" xMin="19" yMin="-236" xMax="564" yMax="721">
      <component glyphName="cedilla" x="186" y="0" flags="0x1004"/>
      <component glyphName="T" x="0" y="0" flags="0x1004"/>
    </TTGlyph>
</ttFont>
